<?xml version="1.0" standalone="no"?>
<!DOCTYPE svg PUBLIC "-//W3C//DTD SVG 1.1//EN" "http://www.w3.org/Graphics/SVG/1.1/DTD/svg11.dtd" >
<svg>
<metadata>
Created by FontForge 20090914 at Thu Mar 20 08:56:55 2014
 By www-data
Copyright 2000, 2004 , 2005Adobe Systems Incorporated. All Rights Reserved. U.S. Patent D454,582.Myriad is a registered trademark of Adobe Systems Incorporated.
</metadata>
<defs>
<font id="MyriadPro-SemiboldCond" horiz-adv-x="300" >
  <font-face 
    font-family="Myriad Pro"
    font-weight="600"
    font-stretch="condensed"
    units-per-em="1000"
    panose-1="2 11 6 6 3 4 3 2 2 4"
    ascent="750"
    descent="-250"
    x-height="487"
    cap-height="674"
    bbox="-145 -250 970 948"
    underline-thickness="50"
    underline-position="-50"
    stemh="77"
    stemv="107"
    unicode-range="U+0020-U+FB04"
  />
<missing-glyph horiz-adv-x="500" 
d="M0 0v700h500v-700h-500zM250 395l170 255h-340zM280 350l170 -255v510zM80 50h340l-170 255zM50 605v-510l170 255z" />
    <glyph glyph-name="f_f_j" unicode="ffj" horiz-adv-x="699" 
d="M617 678l-17 -83c-20 8 -49 17 -87 17c-74 0 -94 -46 -94 -105v-20h232v-454c0 -105 -19 -155 -58 -190c-33 -28 -87 -42 -126 -43l-10 85c23 4 48 10 64 31c18 23 23 58 23 141v352h-125v-409h-107v409h-136v-409h-107v409h-63v78h63v12c0 65 20 118 63 153
c27 23 64 35 105 35c30 0 56 -7 71 -14l-29 -79c-10 4 -22 9 -38 9c-19 0 -35 -9 -45 -22c-16 -19 -20 -48 -20 -79v-15h136v28c0 74 41 185 199 185c45 0 84 -10 106 -22z" />
    <glyph glyph-name="f_j" unicode="fj" horiz-adv-x="456" 
d="M176 0h-107v409h-63v78h63v28c0 74 41 185 199 185c44 0 84 -10 106 -22l-18 -83c-19 8 -49 17 -86 17c-74 0 -94 -46 -94 -105v-20h232v-454c0 -105 -19 -155 -58 -190c-33 -28 -87 -42 -126 -43l-10 85c22 4 48 10 64 31c18 23 23 58 23 141v352h-125v-409z" />
    <glyph glyph-name="f_f" unicode="ff" horiz-adv-x="495" 
d="M411 0h-107v409h-128v-409h-107v409h-63v78h63v17c0 55 14 107 46 141c25 26 63 42 115 42c19 0 42 -4 54 -9l-19 -82c-9 3 -21 6 -33 6c-42 0 -56 -37 -56 -97v-18h128v24c0 54 10 106 48 145c28 31 69 44 107 44c31 0 54 -5 71 -11l-14 -84c-10 4 -23 7 -41 7
c-49 0 -64 -47 -64 -99v-26h87v-78h-87v-409z" />
    <glyph glyph-name="f_i" unicode="fi" horiz-adv-x="457" 
d="M176 0h-107v409h-63v78h63v28c0 74 41 185 199 185c44 0 84 -10 106 -22l-18 -83c-19 8 -49 17 -86 17c-74 0 -94 -46 -94 -105v-20h232v-487h-107v409h-125v-409z" />
    <glyph glyph-name="f_l" unicode="fl" horiz-adv-x="457" 
d="M176 0h-107v409h-63v78h63v22c0 43 16 105 58 144c31 28 74 47 143 47c52 0 107 -12 138 -26v-674h-107v607c-12 5 -27 8 -47 8c-58 0 -78 -48 -78 -101v-27h77v-78h-77v-409z" />
    <glyph glyph-name="f_f_i" unicode="ffi" horiz-adv-x="700" 
d="M617 678l-17 -83c-20 8 -49 17 -87 17c-74 0 -94 -46 -94 -105v-20h232v-487h-107v409h-125v-409h-107v409h-136v-409h-107v409h-63v78h63v12c0 65 20 118 63 153c27 23 64 35 105 35c30 0 56 -7 71 -14l-29 -79c-10 4 -22 9 -38 9c-19 0 -35 -9 -45 -22
c-16 -19 -20 -48 -20 -79v-15h136v28c0 74 41 185 199 185c45 0 84 -10 106 -22z" />
    <glyph glyph-name="f_f_l" unicode="ffl" horiz-adv-x="700" 
d="M308 673l-29 -79c-10 4 -22 9 -38 9c-19 0 -35 -9 -45 -22c-16 -19 -20 -48 -20 -79v-15h136v22c0 43 16 105 58 144c31 28 74 47 143 47c52 0 107 -12 138 -26v-674h-106v607c-12 5 -28 8 -48 8c-58 0 -78 -48 -78 -101v-27h77v-78h-77v-409h-107v409h-136v-409h-107
v409h-63v78h63v12c0 65 20 118 63 153c27 23 64 35 105 35c30 0 56 -7 71 -14z" />
    <glyph glyph-name=".notdef" horiz-adv-x="500" 
d="M0 0v700h500v-700h-500zM250 395l170 255h-340zM280 350l170 -255v510zM80 50h340l-170 255zM50 605v-510l170 255z" />
    <glyph glyph-name="space" unicode=" " horiz-adv-x="158" 
 />
    <glyph glyph-name="exclam" unicode="!" horiz-adv-x="222" 
d="M156 205h-90l-13 469h116zM111 -8h-1c-35 0 -62 29 -62 68c0 42 28 70 63 70c37 0 63 -28 63 -70c0 -39 -24 -68 -63 -68z" />
    <glyph glyph-name="quotedbl" unicode="&#x22;" horiz-adv-x="321" 
d="M41 684h89l-17 -248h-55zM192 684h90l-18 -248h-55z" />
    <glyph glyph-name="numbersign" unicode="#" horiz-adv-x="408" 
d="M159 262h74l17 132h-75zM126 0h-64l25 197h-69v65h77l17 132h-72v64h81l24 192h63l-24 -192h74l25 192h63l-24 -192h67v-64h-76l-16 -132h72v-64h-80l-25 -198h-65l25 198h-73z" />
    <glyph glyph-name="dollar" unicode="$" horiz-adv-x="408" 
d="M234 -84h-72v101c-45 1 -84 15 -109 29l19 84c29 -17 64 -30 103 -30c54 0 82 35 82 82c0 48 -26 81 -81 114c-70 43 -121 89 -121 170c0 78 48 138 117 159v100h72v-91c40 -1 76 -13 97 -26l-21 -82c-19 11 -46 25 -86 25c-51 0 -78 -35 -78 -74c0 -45 20 -65 87 -105
c82 -49 114 -106 114 -179c0 -92 -51 -151 -123 -169v-108z" />
    <glyph glyph-name="percent" unicode="%" horiz-adv-x="652" 
d="M152 658h1c85 0 123 -94 123 -197c0 -137 -61 -199 -125 -199c-82 0 -127 88 -127 196c0 114 50 200 128 200zM150 598h-1c-37 0 -51 -63 -51 -138c0 -76 13 -139 53 -139s51 64 51 138c0 71 -10 139 -52 139zM181 -11h-60l349 672h59zM503 390h1c86 0 124 -94 124 -197
c0 -137 -62 -199 -126 -199c-82 0 -127 88 -127 196c0 114 50 200 128 200zM502 330h-1c-38 0 -51 -63 -51 -138c-1 -77 14 -139 52 -139c40 0 51 63 51 138c0 71 -10 139 -51 139z" />
    <glyph glyph-name="ampersand" unicode="&#x26;" horiz-adv-x="512" 
d="M502 0h-117c-11 15 -21 28 -38 53c-36 -39 -90 -61 -145 -61c-115 0 -178 88 -178 188c0 78 36 141 104 188v3c-32 46 -49 97 -49 148c0 87 58 163 155 163c75 0 134 -54 134 -145c0 -64 -23 -119 -116 -183v-4c28 -42 75 -114 113 -164c26 52 32 125 34 174h92
c-8 -87 -34 -181 -79 -240c17 -25 48 -64 90 -120zM220 73h1c34 0 62 16 83 44c-46 59 -94 129 -133 188c-24 -23 -48 -62 -48 -112c0 -64 35 -120 97 -120zM228 608h-1c-34 0 -53 -37 -53 -84c0 -42 12 -74 36 -111c46 36 68 74 68 119c0 35 -12 76 -50 76z" />
    <glyph glyph-name="quotesingle" unicode="'" horiz-adv-x="170" 
d="M41 684h89l-17 -248h-55z" />
    <glyph glyph-name="parenleft" unicode="(" horiz-adv-x="256" 
d="M157 692h78c-57 -90 -105 -222 -105 -407c0 -180 48 -313 105 -405h-78c-55 75 -113 211 -113 405c3 196 58 331 113 407z" />
    <glyph glyph-name="parenright" unicode=")" horiz-adv-x="256" 
d="M99 -120h-79c58 91 106 226 106 408c0 180 -48 313 -106 404h79c55 -74 113 -207 113 -405c-3 -197 -58 -330 -113 -407z" />
    <glyph glyph-name="asterisk" unicode="*" horiz-adv-x="379" 
d="M245 682l69 -39l-93 -118l1 -3l138 22v-77l-138 21l-1 -2l94 -114l-72 -41l-55 139l-2 -2l-59 -138l-64 40l93 120l-2 1l-135 -24v77l134 -21l2 2l-91 116l68 39l56 -135h3z" />
    <glyph glyph-name="plus" unicode="+" horiz-adv-x="596" 
d="M262 532h72v-230h222v-70h-222v-232h-72v232h-222v70h222v230z" />
    <glyph glyph-name="comma" unicode="," horiz-adv-x="216" 
d="M83 -118l-70 -7c26 71 53 176 63 251l113 10c-27 -86 -69 -194 -106 -254z" />
    <glyph glyph-name="hyphen" unicode="-" horiz-adv-x="268" 
d="M30 309h208v-79h-208v79z" />
    <glyph glyph-name="period" unicode="." horiz-adv-x="216" 
d="M113 -8h-1c-34 0 -63 29 -63 74c0 43 30 74 65 74c37 0 65 -28 65 -74c0 -45 -26 -74 -66 -74z" />
    <glyph glyph-name="slash" unicode="/" horiz-adv-x="280" 
d="M64 -40h-73l226 722h73z" />
    <glyph glyph-name="zero" unicode="0" horiz-adv-x="408" 
d="M209 658c130 0 174 -153 174 -331c0 -235 -81 -335 -181 -335c-123 0 -177 144 -177 331c0 201 62 335 184 335zM206 567c-50 0 -74 -89 -74 -242c-1 -154 21 -242 75 -242c49 0 69 90 69 242c0 145 -19 242 -70 242z" />
    <glyph glyph-name="one" unicode="1" horiz-adv-x="408" 
d="M183 0v547h-2l-109 -59l-19 83l144 79h91v-650h-105z" />
    <glyph glyph-name="two" unicode="2" horiz-adv-x="408" 
d="M364 0h-336v71l60 79c81 107 160 211 160 317c0 61 -30 101 -87 101c-44 0 -76 -21 -96 -34l-21 82c26 19 77 42 136 42c127 0 174 -88 174 -184c0 -122 -78 -228 -156 -326l-41 -52v-2h207v-94z" />
    <glyph glyph-name="three" unicode="3" horiz-adv-x="408" 
d="M26 21l18 85c23 -14 59 -26 95 -26c66 0 105 43 105 110c0 78 -55 117 -126 117h-18v79h14c47 1 113 27 113 98c0 55 -32 86 -80 86c-31 0 -60 -13 -82 -28l-17 80c25 19 74 36 126 36c104 0 159 -70 159 -154c0 -65 -35 -120 -95 -148v-2c61 -19 113 -74 113 -168
c0 -102 -73 -194 -204 -194c-48 0 -94 13 -121 29z" />
    <glyph glyph-name="four" unicode="4" horiz-adv-x="408" 
d="M329 0h-95v166h-220v73l212 411h103v-398h68v-86h-68v-166zM108 252h126v156c0 39 3 78 6 116h-3c-18 -43 -32 -73 -50 -111l-79 -159v-2z" />
    <glyph glyph-name="five" unicode="5" horiz-adv-x="408" 
d="M351 650v-93h-174l-20 -142c7 1 13 1 22 1c31 0 86 -14 122 -49c36 -34 56 -83 56 -149c0 -127 -83 -226 -213 -226c-43 0 -91 11 -117 27l19 85c22 -12 56 -24 92 -24c65 0 114 45 114 128c0 94 -65 130 -144 130c-21 0 -36 -1 -49 -3l39 315h253z" />
    <glyph glyph-name="six" unicode="6" horiz-adv-x="408" 
d="M339 658v-88c-15 0 -31 -2 -51 -6c-96 -23 -138 -111 -155 -201h4c24 34 58 56 104 56c85 0 144 -77 144 -200c0 -119 -57 -227 -174 -227c-119 0 -185 110 -185 267c0 134 40 231 96 298c41 50 104 83 159 94c26 5 45 6 58 7zM210 71h1c43 0 68 52 68 145
c0 75 -25 125 -73 125c-25 0 -52 -17 -67 -55c-3 -7 -6 -24 -6 -49c1 -107 32 -166 77 -166z" />
    <glyph glyph-name="seven" unicode="7" horiz-adv-x="408" 
d="M38 650h336v-68l-207 -582h-104l202 554v2h-227v94z" />
    <glyph glyph-name="eight" unicode="8" horiz-adv-x="408" 
d="M126 344l-1 2c-54 36 -82 92 -82 145c0 104 78 167 170 167s154 -70 154 -157c0 -49 -21 -106 -86 -148v-3c60 -35 102 -95 102 -172c0 -112 -78 -186 -182 -186c-110 0 -177 78 -177 173c0 85 49 143 102 179zM205 66c44 0 75 40 75 106c0 68 -41 109 -83 134
c-42 -27 -69 -74 -69 -128c0 -63 27 -112 77 -112zM207 584c-40 0 -63 -40 -63 -89c0 -55 32 -87 71 -110c33 21 54 62 54 105c0 53 -20 94 -62 94z" />
    <glyph glyph-name="nine" unicode="9" horiz-adv-x="408" 
d="M71 -8v90c21 0 35 1 55 5c28 7 58 22 81 45c32 32 58 85 69 155h-3c-22 -27 -54 -47 -98 -47c-83 0 -148 75 -148 194c0 114 66 224 180 224c117 0 175 -113 175 -264c0 -139 -41 -241 -98 -308c-39 -48 -95 -79 -155 -90c-21 -4 -40 -4 -58 -4zM201 579h-1
c-35 0 -69 -43 -68 -137c1 -77 28 -126 73 -126c27 0 52 19 64 44c4 12 6 24 6 57c0 109 -31 162 -74 162z" />
    <glyph glyph-name="colon" unicode=":" horiz-adv-x="216" 
d="M113 337h-1c-34 0 -61 30 -61 71s28 72 63 72c37 0 63 -28 63 -72c0 -41 -24 -71 -64 -71zM113 -8h-1c-34 0 -61 29 -61 71c0 40 28 71 63 71c37 0 63 -28 63 -71c0 -42 -24 -71 -64 -71z" />
    <glyph glyph-name="semicolon" unicode=";" horiz-adv-x="216" 
d="M81 -118l-67 -7c25 71 52 176 63 251l109 10c-26 -86 -68 -194 -105 -254zM121 337h-1c-35 0 -62 30 -62 71s28 72 64 72s63 -28 63 -72c0 -41 -24 -71 -64 -71z" />
    <glyph glyph-name="less" unicode="&#x3c;" horiz-adv-x="596" 
d="M61 238v56l474 238v-86l-369 -180v-2l369 -179v-85z" />
    <glyph glyph-name="equal" unicode="=" horiz-adv-x="596" 
d="M556 327h-516v70h516v-70zM556 139h-516v70h516v-70z" />
    <glyph glyph-name="greater" unicode="&#x3e;" horiz-adv-x="596" 
d="M535 303v-74l-474 -229v84l392 181v2l-392 181v84z" />
    <glyph glyph-name="question" unicode="?" horiz-adv-x="323" 
d="M187 199h-91l-2 16c-9 60 9 117 48 179c30 50 50 83 50 129s-29 71 -72 71c-23 0 -47 -6 -65 -18l-19 82c19 13 63 28 109 28c118 0 156 -78 156 -147c0 -71 -41 -127 -75 -180c-29 -47 -43 -85 -39 -141v-19zM140 -8h-1c-36 0 -63 29 -63 69c0 42 30 70 64 71
c38 0 64 -29 64 -71c0 -40 -24 -69 -64 -69z" />
    <glyph glyph-name="at" unicode="@" horiz-adv-x="607" 
d="M348 233l26 137c-7 4 -16 5 -27 5c-60 0 -116 -91 -116 -191c0 -40 13 -59 37 -59c35 0 70 55 80 108zM418 -22l14 -39c-49 -29 -98 -39 -154 -39c-129 0 -245 98 -245 295c0 209 132 399 320 399c149 0 224 -114 224 -251c0 -181 -63 -278 -156 -278
c-44 0 -68 29 -67 83h-2c-29 -58 -72 -83 -110 -83c-50 0 -84 42 -84 115c0 119 76 248 210 248c30 0 63 -7 83 -18l-37 -192c-13 -72 -3 -104 25 -104c44 0 88 78 88 213c0 132 -56 224 -183 224c-135 0 -261 -144 -261 -357c0 -167 85 -250 209 -250c47 0 88 12 126 34z
" />
    <glyph glyph-name="A" unicode="A" horiz-adv-x="448" 
d="M288 176h-134l-36 -176h-104l150 674h125l139 -674h-104zM166 259h111l-28 155c-8 44 -17 106 -25 153h-3c-7 -47 -17 -111 -25 -153z" />
    <glyph glyph-name="B" unicode="B" horiz-adv-x="453" 
d="M59 2v662c36 9 82 13 133 13c62 0 119 -10 160 -47c33 -29 48 -72 48 -120c0 -63 -34 -120 -100 -148v-3c78 -22 122 -85 122 -166c0 -55 -18 -100 -49 -133c-39 -43 -105 -65 -202 -65c-49 0 -86 3 -112 7zM165 592v-199h32c54 0 98 44 98 105c0 56 -26 98 -92 98
c-16 0 -29 -1 -38 -4zM165 313v-232c9 -2 20 -3 34 -3c65 0 113 39 113 116c0 79 -55 118 -116 119h-31z" />
    <glyph glyph-name="C" unicode="C" horiz-adv-x="385" 
d="M356 101l13 -90c-20 -10 -55 -17 -99 -17c-154 0 -242 126 -242 334c0 259 137 352 257 352c44 0 74 -9 88 -17l-20 -90c-16 7 -32 13 -64 13c-73 0 -148 -67 -148 -251c0 -181 68 -246 149 -246c25 0 50 5 66 12z" />
    <glyph glyph-name="D" unicode="D" horiz-adv-x="470" 
d="M59 2v662c31 8 74 13 120 13c78 0 134 -19 174 -56c55 -49 89 -137 89 -272c0 -145 -36 -235 -88 -285c-45 -46 -110 -69 -197 -69c-37 0 -74 4 -98 7zM165 588v-503c9 -2 19 -2 26 -2c73 0 141 62 141 267c0 153 -44 241 -136 241c-11 0 -22 -1 -31 -3z" />
    <glyph glyph-name="E" unicode="E" horiz-adv-x="376" 
d="M326 396v-89h-160v-214h182v-93h-289v674h277v-93h-170v-185h160z" />
    <glyph glyph-name="F" unicode="F" horiz-adv-x="371" 
d="M59 0v674h277v-93h-170v-201h159v-89h-159v-291h-107z" />
    <glyph glyph-name="G" unicode="G" horiz-adv-x="456" 
d="M414 366v-348c-29 -12 -85 -24 -131 -24c-69 0 -126 19 -171 66c-53 55 -85 151 -84 271c2 253 140 349 272 349c47 0 83 -9 104 -20l-21 -92c-18 10 -43 16 -77 16c-87 0 -167 -64 -167 -254c0 -183 70 -245 140 -245c18 0 30 2 36 5v189h-72v87h171z" />
    <glyph glyph-name="H" unicode="H" horiz-adv-x="492" 
d="M59 674h107v-279h160v279h107v-674h-107v297h-160v-297h-107v674z" />
    <glyph glyph-name="I" unicode="I" horiz-adv-x="226" 
d="M59 674h107v-674h-107v674z" />
    <glyph glyph-name="J" unicode="J" horiz-adv-x="282" 
d="M124 200v474h107v-470c0 -175 -80 -212 -175 -212c-24 0 -46 3 -59 8l9 90c11 -3 24 -4 40 -4c45 0 78 18 78 114z" />
    <glyph glyph-name="K" unicode="K" horiz-adv-x="434" 
d="M59 0v674h106v-311h3c13 28 24 57 37 85l106 226h117l-157 -291l161 -383h-117l-116 300l-34 -60v-240h-106z" />
    <glyph glyph-name="L" unicode="L" horiz-adv-x="364" 
d="M59 0v674h107v-584h180v-90h-287z" />
    <glyph glyph-name="M" unicode="M" horiz-adv-x="620" 
d="M482 0l-13 260c-4 76 -8 168 -7 242h-3c-13 -74 -31 -155 -47 -220l-70 -274h-73l-66 267c-18 68 -36 152 -48 227h-3c-1 -76 -5 -165 -9 -245l-12 -257h-93l45 674h113l65 -273c21 -87 38 -158 51 -234h2c12 76 27 146 47 234l63 273h115l40 -674h-97z" />
    <glyph glyph-name="N" unicode="N" horiz-adv-x="493" 
d="M154 0h-95v674h99l113 -288c23 -61 57 -148 78 -213h2c-5 86 -11 190 -11 311v190h94v-674h-99l-114 287c-24 62 -54 143 -73 214h-2c4 -78 8 -173 8 -313v-188z" />
    <glyph glyph-name="O" unicode="O" horiz-adv-x="465" 
d="M239 682c142 0 198 -155 198 -336c0 -254 -89 -354 -208 -354c-134 0 -201 143 -201 346c0 202 76 344 211 344zM234 589c-67 0 -95 -111 -95 -252c0 -147 28 -252 96 -252c69 0 91 121 91 256c0 122 -20 248 -92 248z" />
    <glyph glyph-name="P" unicode="P" horiz-adv-x="431" 
d="M59 0v664c35 8 78 13 126 13c71 0 128 -13 168 -51c36 -34 54 -86 54 -144c0 -68 -19 -115 -50 -151c-40 -47 -105 -69 -162 -69h-30v-262h-106zM165 585v-235c8 -2 16 -2 26 -2c70 0 109 48 109 126c0 63 -26 116 -98 116c-14 0 -28 -2 -37 -5z" />
    <glyph glyph-name="Q" unicode="Q" horiz-adv-x="465" 
d="M461 -19l-38 -82c-55 22 -121 55 -165 80c-13 8 -23 13 -28 13c-123 0 -202 120 -202 346c0 201 76 344 212 344c142 0 197 -155 197 -336c0 -175 -40 -277 -107 -312v-4c44 -19 90 -34 131 -49zM234 85h1c68 0 91 119 91 256c0 127 -21 248 -92 248
c-68 0 -96 -122 -95 -250c-1 -135 24 -254 95 -254z" />
    <glyph glyph-name="R" unicode="R" horiz-adv-x="443" 
d="M59 0v664c37 9 84 13 129 13c69 0 127 -12 167 -49c37 -36 51 -81 51 -137c0 -78 -38 -139 -106 -170v-2c47 -17 72 -62 85 -142c15 -82 31 -154 42 -177h-111c-9 19 -23 85 -35 164c-13 87 -38 116 -91 116h-25v-280h-106zM165 589v-227h28c64 0 104 50 104 119
c0 66 -26 111 -96 112c-13 0 -27 -1 -36 -4z" />
    <glyph glyph-name="S" unicode="S" horiz-adv-x="379" 
d="M26 22l18 92c25 -15 69 -27 104 -27c66 0 102 39 102 94c0 54 -33 85 -88 123c-75 48 -127 115 -127 188c0 105 71 188 197 188c43 0 83 -13 101 -24l-20 -92c-18 12 -47 23 -83 23c-61 0 -90 -41 -90 -82c0 -52 27 -76 96 -120c85 -56 119 -121 119 -193
c0 -121 -86 -198 -207 -198c-51 0 -101 14 -122 28z" />
    <glyph glyph-name="T" unicode="T" horiz-adv-x="376" 
d="M134 0v576h-121v98h350v-98h-122v-576h-107z" />
    <glyph glyph-name="U" unicode="U" horiz-adv-x="481" 
d="M56 674h107v-444c0 -109 34 -144 77 -144c46 0 77 34 77 144v444h107v-426c0 -174 -68 -256 -185 -256c-123 0 -183 83 -183 251v431z" />
    <glyph glyph-name="V" unicode="V" horiz-adv-x="438" 
d="M276 0h-116l-152 674h117l56 -302c13 -74 30 -163 40 -245h3c9 83 24 169 37 247l55 300h116z" />
    <glyph glyph-name="W" unicode="W" horiz-adv-x="668" 
d="M242 0h-104l-122 674h111l44 -294c11 -80 19 -157 28 -240h3c9 85 24 158 39 241l54 293h88l52 -289c14 -78 27 -153 36 -245h2c10 93 20 165 30 243l44 291h104l-124 -674h-109l-51 269c-12 67 -23 143 -31 221h-2c-11 -79 -23 -153 -37 -223z" />
    <glyph glyph-name="X" unicode="X" horiz-adv-x="400" 
d="M396 0h-111l-50 141c-14 38 -26 75 -39 119h-3c-12 -44 -24 -84 -35 -121l-46 -139h-107l131 344l-126 330h111l49 -139c11 -33 22 -67 34 -108h2c13 44 23 75 32 110l44 137h107l-128 -332z" />
    <glyph glyph-name="Y" unicode="Y" horiz-adv-x="398" 
d="M251 0h-107v270l-148 404h114l52 -164c14 -45 29 -97 42 -148h2c10 51 24 101 39 151l48 161h111l-153 -400v-274z" />
    <glyph glyph-name="Z" unicode="Z" horiz-adv-x="374" 
d="M15 0v63l221 516v2h-202v93h322v-77l-214 -501v-3h213v-93h-340z" />
    <glyph glyph-name="bracketleft" unicode="[" horiz-adv-x="256" 
d="M229 -112h-168v798h168v-70h-86v-658h86v-70z" />
    <glyph glyph-name="backslash" unicode="\" horiz-adv-x="246" 
d="M255 -40h-73l-191 722h73z" />
    <glyph glyph-name="bracketright" unicode="]" horiz-adv-x="256" 
d="M27 686h168v-798h-168v70h85v658h-85v70z" />
    <glyph glyph-name="asciicircum" unicode="^" horiz-adv-x="596" 
d="M543 182h-84l-159 374h-5l-159 -374h-83l209 468h72z" />
    <glyph glyph-name="underscore" unicode="_" horiz-adv-x="500" 
d="M0 -75h500v-50h-500v50z" />
    <glyph glyph-name="grave" unicode="`" 
d="M33 686h99l72 -138h-68z" />
    <glyph glyph-name="a" unicode="a" horiz-adv-x="396" 
d="M346 305v-194c0 -38 1 -79 6 -111h-96l-6 50h-2c-25 -38 -61 -58 -103 -58c-70 0 -123 59 -123 144c0 125 106 178 216 179v13c0 50 -20 86 -73 86c-35 0 -64 -10 -91 -27l-20 73c24 15 75 35 134 35c126 0 158 -86 158 -190zM241 153v91c-42 -1 -117 -12 -117 -97
c0 -55 29 -75 53 -75c26 0 52 18 61 56c2 7 3 16 3 25z" />
    <glyph glyph-name="b" unicode="b" horiz-adv-x="425" 
d="M49 132v560h106v-258h2c24 41 58 61 102 61c86 0 136 -98 136 -242c0 -173 -70 -261 -154 -261c-45 0 -73 23 -96 68h-3l-6 -60h-91c1 36 4 92 4 132zM155 309v-136c0 -12 2 -23 4 -31c14 -51 39 -62 57 -62c52 0 72 68 72 166c0 90 -21 158 -72 158
c-28 0 -51 -31 -57 -63c-2 -9 -4 -22 -4 -32z" />
    <glyph glyph-name="c" unicode="c" horiz-adv-x="313" 
d="M294 93l11 -83c-15 -8 -46 -16 -82 -16c-116 0 -193 86 -193 246c0 145 81 254 210 254c29 0 57 -7 70 -14l-16 -85c-11 4 -28 11 -52 11c-69 0 -105 -75 -105 -164c0 -100 40 -160 105 -160c20 0 37 3 52 11z" />
    <glyph glyph-name="d" unicode="d" horiz-adv-x="425" 
d="M270 692h106v-560c0 -40 2 -95 4 -132h-92l-6 58h-3c-17 -35 -54 -66 -101 -66c-95 0 -148 103 -148 250c0 171 74 253 153 253c40 0 69 -19 85 -53h2v250zM270 172v129c0 9 0 20 -2 30c-4 39 -26 73 -58 73c-54 0 -73 -76 -73 -163c0 -98 26 -161 71 -161
c20 0 45 11 58 60c3 9 4 20 4 32z" />
    <glyph glyph-name="e" unicode="e" horiz-adv-x="394" 
d="M363 215h-229c1 -109 52 -139 109 -139c35 0 65 8 87 18l15 -77c-30 -14 -77 -23 -122 -23c-125 0 -193 91 -193 242c0 161 78 259 182 259c102 0 154 -93 154 -223c0 -28 -2 -44 -3 -57zM135 291h132c1 78 -25 124 -63 124c-46 0 -67 -67 -69 -124z" />
    <glyph glyph-name="f" unicode="f" horiz-adv-x="260" 
d="M176 0h-107v409h-63v78h63v24c0 54 10 106 47 145c29 31 69 44 108 44c31 0 54 -5 71 -11l-14 -84c-10 4 -24 7 -41 7c-49 0 -64 -47 -64 -99v-26h86v-78h-86v-409z" />
    <glyph glyph-name="g" unicode="g" horiz-adv-x="425" 
d="M377 334v-276c0 -115 -18 -168 -54 -205c-33 -34 -82 -53 -145 -53c-44 0 -85 9 -116 23l22 83c22 -11 53 -21 92 -21c64 0 95 41 95 132v38h-2c-17 -34 -52 -53 -90 -53c-99 0 -148 110 -148 238c0 170 77 255 159 255c44 0 73 -27 90 -60h2l6 52h94
c-3 -40 -5 -88 -5 -153zM271 178v136c0 12 -2 25 -5 35c-7 27 -22 55 -54 55c-51 0 -75 -68 -75 -161c0 -105 32 -156 73 -156c20 0 43 10 55 51c5 13 6 27 6 40z" />
    <glyph glyph-name="h" unicode="h" horiz-adv-x="434" 
d="M49 0v692h107v-257h2c11 17 26 32 42 42c18 11 39 18 65 18c77 0 120 -64 120 -187v-308h-107v304c0 53 -11 101 -56 101c-28 0 -51 -19 -62 -60c-2 -9 -4 -25 -4 -37v-308h-107z" />
    <glyph glyph-name="i" unicode="i" horiz-adv-x="205" 
d="M156 0h-107v487h107v-487zM102 676c33 0 57 -24 57 -62c1 -36 -24 -61 -59 -61c-31 0 -56 25 -55 61c-1 38 25 62 57 62z" />
    <glyph glyph-name="j" unicode="j" horiz-adv-x="208" 
d="M-24 -200l-10 85c23 4 48 10 64 31c18 23 23 58 23 141v430h107v-454c0 -105 -19 -155 -58 -190c-33 -28 -87 -42 -126 -43zM107 676c32 0 57 -24 57 -62c0 -36 -25 -61 -59 -61c-32 0 -57 25 -56 61c-1 38 26 62 58 62z" />
    <glyph glyph-name="k" unicode="k" horiz-adv-x="386" 
d="M155 692v-424h2c9 24 17 43 25 62l78 157h116l-123 -204l131 -283h-119l-85 213l-25 -43v-170h-106v692h106z" />
    <glyph glyph-name="l" unicode="l" horiz-adv-x="210" 
d="M49 0v692h107v-692h-107z" />
    <glyph glyph-name="m" unicode="m" horiz-adv-x="653" 
d="M49 0v350c0 55 -2 94 -4 137h93l6 -58h2c23 37 62 66 113 66c50 0 87 -24 104 -70h2c13 21 30 40 49 52c20 12 43 18 68 18c77 0 122 -60 122 -180v-315h-106v295c0 59 -8 111 -56 111c-27 0 -49 -21 -59 -57c-2 -10 -3 -24 -3 -39v-310h-107v311c0 44 -6 95 -54 95
c-25 0 -50 -20 -59 -60c-3 -10 -5 -24 -5 -38v-308h-106z" />
    <glyph glyph-name="n" unicode="n" horiz-adv-x="434" 
d="M49 0v350c0 55 -2 94 -4 137h93l5 -57h2c23 39 64 65 115 65c82 0 125 -63 125 -176v-319h-107v309c0 48 -10 96 -57 96c-26 0 -50 -20 -60 -60c-3 -10 -5 -26 -5 -44v-301h-107z" />
    <glyph glyph-name="o" unicode="o" horiz-adv-x="410" 
d="M208 495c102 0 171 -90 171 -250c0 -197 -101 -253 -175 -253c-103 0 -174 86 -174 250c0 176 87 253 178 253zM206 412c-58 0 -69 -97 -69 -168c0 -82 14 -170 71 -170c53 0 65 97 65 170c0 71 -12 168 -67 168z" />
    <glyph glyph-name="p" unicode="p" horiz-adv-x="425" 
d="M49 -192v526c0 65 -3 112 -4 153h93l6 -59h2c23 45 60 67 102 67c97 0 146 -105 146 -251c0 -176 -75 -252 -154 -252c-43 0 -69 26 -83 51h-2v-235h-106zM155 306v-128c0 -15 2 -30 5 -41c13 -47 38 -57 55 -57c54 0 73 77 73 163c0 96 -23 161 -72 161
c-27 0 -51 -30 -57 -62c-3 -11 -4 -23 -4 -36z" />
    <glyph glyph-name="q" unicode="q" horiz-adv-x="425" 
d="M270 -192v238h-3c-18 -31 -50 -54 -93 -54c-86 0 -143 99 -143 243c0 168 71 260 159 260c32 0 68 -14 90 -61l2 -2l6 55h92c-1 -40 -4 -89 -4 -153v-526h-106zM270 176v131c0 9 -1 22 -3 31c-6 39 -30 66 -56 66c-51 0 -74 -67 -74 -162s24 -162 73 -162
c20 0 44 13 56 60c3 11 4 24 4 36z" />
    <glyph glyph-name="r" unicode="r" horiz-adv-x="273" 
d="M49 0v350c0 45 -3 95 -4 137h93l6 -74h3c19 50 59 82 99 82c10 0 16 -1 22 -2v-107c-6 2 -13 2 -22 2c-37 0 -75 -31 -86 -84c-3 -12 -4 -28 -4 -47v-257h-107z" />
    <glyph glyph-name="s" unicode="s" horiz-adv-x="308" 
d="M20 22l21 79c18 -12 52 -26 84 -26c38 0 61 21 61 56c0 30 -14 50 -59 79c-72 43 -99 90 -99 139c0 84 62 146 149 146c40 0 70 -11 94 -24l-22 -79c-19 12 -41 21 -67 21c-37 0 -55 -24 -55 -51c0 -26 12 -41 59 -71c65 -39 99 -87 99 -147c0 -99 -69 -150 -161 -150
c-38 0 -82 11 -104 28z" />
    <glyph glyph-name="t" unicode="t" horiz-adv-x="286" 
d="M70 571l107 37v-121h94v-78h-94v-252c0 -60 23 -75 50 -75c12 0 22 1 33 3l2 -83c-16 -5 -40 -8 -70 -8c-34 0 -65 9 -86 30c-24 24 -36 60 -36 132v253h-58v78h58v84z" />
    <glyph glyph-name="u" unicode="u" horiz-adv-x="428" 
d="M377 487v-346c0 -52 2 -100 4 -141h-92l-7 51h-2c-19 -29 -57 -59 -109 -59c-89 0 -124 67 -124 194v301h106v-288c0 -69 13 -118 57 -118c32 0 49 29 54 48c4 11 6 26 6 42v316h107z" />
    <glyph glyph-name="v" unicode="v" horiz-adv-x="374" 
d="M8 487h113l48 -243c7 -38 14 -82 21 -128h2c6 45 13 86 20 128l47 243h106l-129 -487h-97z" />
    <glyph glyph-name="w" unicode="w" horiz-adv-x="594" 
d="M8 487h114l35 -223c8 -52 16 -103 21 -151h4c7 48 18 103 28 149l49 225h82l47 -219c11 -55 21 -104 28 -155h3c4 49 12 99 21 153l37 221h106l-124 -487h-90l-45 199c-11 47 -19 94 -26 150h-2c-7 -57 -17 -105 -28 -151l-49 -198h-91z" />
    <glyph glyph-name="x" unicode="x" horiz-adv-x="370" 
d="M10 487h116l36 -95c11 -29 20 -57 28 -83h2l27 83l36 95h108l-113 -240l113 -247h-116l-39 100c-10 25 -18 50 -27 78h-2c-8 -26 -18 -52 -27 -78l-36 -100h-108l112 243z" />
    <glyph glyph-name="y" unicode="y" horiz-adv-x="370" 
d="M8 487h114l56 -265c7 -33 11 -62 16 -90h2c4 26 10 58 16 88l48 267h105l-91 -348c-26 -105 -59 -210 -114 -277c-38 -47 -81 -69 -100 -76l-34 92c22 10 45 27 66 50c19 20 33 46 42 68c4 10 6 16 6 23c0 6 -1 12 -3 18z" />
    <glyph glyph-name="z" unicode="z" horiz-adv-x="334" 
d="M17 0v66l135 255c15 26 33 55 43 76v2h-161v88h278v-72l-133 -248c-15 -27 -32 -56 -43 -77v-2h178v-88h-297z" />
    <glyph glyph-name="braceleft" unicode="{" horiz-adv-x="256" 
d="M18 254v67c55 0 68 32 68 63c0 27 -3 54 -6 80c-3 28 -6 55 -6 85c0 93 56 137 140 137h15v-68h-14c-40 -4 -57 -30 -57 -71c0 -25 3 -49 5 -71c2 -23 5 -45 5 -66c0 -71 -26 -106 -73 -121v-2c47 -14 73 -48 73 -121c0 -22 -3 -45 -5 -68s-5 -46 -5 -69
c0 -41 12 -69 58 -73h13v-68h-17c-75 0 -138 35 -138 137c0 29 3 57 6 85c3 27 6 54 6 82c0 27 -13 62 -68 62z" />
    <glyph glyph-name="bar" unicode="|" horiz-adv-x="210" 
d="M64 750h82v-1000h-82v1000z" />
    <glyph glyph-name="braceright" unicode="}" horiz-adv-x="256" 
d="M237 321v-67c-54 0 -67 -35 -67 -62c0 -28 3 -55 6 -82c3 -28 6 -56 6 -85c0 -102 -64 -137 -138 -137h-18v68h14c45 4 57 32 57 73c0 23 -2 46 -4 69s-5 46 -5 68c-1 73 26 107 73 121v2c-47 15 -74 50 -73 121c0 21 3 43 5 66c2 22 4 46 4 71c0 41 -16 67 -56 71h-15
v68h16c84 0 140 -44 140 -137c0 -30 -3 -57 -6 -85c-3 -26 -6 -53 -6 -80c0 -31 13 -63 67 -63z" />
    <glyph glyph-name="asciitilde" unicode="~" horiz-adv-x="596" 
d="M135 210h-71c-2 109 59 153 124 153c42 1 81 -18 131 -46s74 -41 98 -41c32 0 46 30 45 81h70c5 -101 -38 -155 -113 -155c-41 0 -71 10 -130 43c-51 31 -80 45 -106 45c-30 0 -48 -21 -48 -80z" />
    <glyph glyph-name="uni00A0" unicode="&#xa0;" horiz-adv-x="158" 
 />
    <glyph glyph-name="exclamdown" unicode="&#xa1;" horiz-adv-x="222" 
d="M169 -190h-116l13 469h90zM111 495h1c36 0 62 -28 62 -70c0 -40 -24 -68 -63 -68c-36 0 -63 28 -63 68c0 42 28 70 63 70z" />
    <glyph glyph-name="cent" unicode="&#xa2;" horiz-adv-x="408" 
d="M277 -7h-71v99c-39 8 -73 27 -99 61c-30 36 -49 94 -49 172c0 118 58 209 149 231v98h71v-92c27 -2 52 -8 69 -17l-16 -83c-23 12 -45 17 -72 17c-65 0 -95 -78 -95 -157c0 -93 40 -151 101 -151c32 0 52 5 76 16l10 -80c-18 -10 -43 -16 -74 -17v-97z" />
    <glyph glyph-name="sterling" unicode="&#xa3;" horiz-adv-x="408" 
d="M370 0h-336v67c52 22 91 95 91 158c0 25 -1 47 -4 67h-80v73h68c-6 28 -12 69 -12 105c0 110 69 188 172 188c40 0 65 -9 81 -19l-19 -85c-13 7 -32 14 -58 14c-51 0 -74 -42 -74 -92c0 -43 6 -75 12 -111h104v-73h-94c4 -37 3 -73 -7 -105c-8 -30 -25 -66 -55 -95v-2
h211v-90z" />
    <glyph glyph-name="currency" unicode="&#xa4;" horiz-adv-x="408" 
d="M204 533h1c37 0 73 -15 97 -39l63 75l48 -50l-76 -75c16 -33 23 -74 23 -115c0 -44 -8 -85 -24 -117l76 -78l-48 -48l-65 75c-26 -26 -65 -39 -97 -39c-35 0 -72 13 -96 38l-62 -74l-48 48l73 74c-17 33 -25 74 -25 116c0 45 9 87 27 120l-76 75l49 50l63 -76
c26 25 64 40 97 40zM203 456h-1c-45 0 -66 -53 -66 -130c0 -73 25 -128 66 -128c46 -1 66 54 66 129c0 68 -19 129 -65 129z" />
    <glyph glyph-name="yen" unicode="&#xa5;" horiz-adv-x="408" 
d="M251 0h-99v175h-127v57h127v66h-127v58h104l-119 294h106l59 -185c12 -39 25 -79 31 -105h2c7 27 17 65 30 106l61 184h100l-124 -294h105v-58h-129v-66h129v-57h-129v-175z" />
    <glyph glyph-name="brokenbar" unicode="&#xa6;" horiz-adv-x="210" 
d="M64 174h82v-350h-82v350zM64 674h82v-350h-82v350z" />
    <glyph glyph-name="section" unicode="&#xa7;" horiz-adv-x="417" 
d="M111 351v-1c0 -27 21 -53 77 -78c36 -16 67 -33 88 -49c19 12 31 40 31 66c0 32 -23 61 -63 79c-33 15 -69 30 -95 48c-23 -14 -38 -38 -38 -65zM343 657l-19 -69c-23 14 -54 23 -91 23c-39 0 -76 -18 -76 -58c0 -44 31 -60 85 -82c79 -32 143 -70 143 -162
c0 -51 -21 -90 -58 -124c13 -12 33 -43 33 -84c0 -97 -76 -151 -171 -151c-51 0 -103 13 -132 33l21 71c21 -13 61 -33 112 -33c45 0 81 21 81 65c0 38 -28 60 -99 92c-81 37 -140 78 -140 158c0 41 20 82 69 119c-18 18 -33 48 -33 82c0 91 76 145 170 145
c42 0 79 -9 105 -25z" />
    <glyph glyph-name="dieresis" unicode="&#xa8;" 
d="M66 563h-1c-28 0 -52 23 -52 55s24 55 53 55c30 0 52 -22 52 -55c0 -32 -22 -55 -52 -55zM234 563h-1c-29 0 -52 23 -52 55s24 55 53 55s52 -22 52 -55c0 -32 -22 -55 -52 -55z" />
    <glyph glyph-name="copyright" unicode="&#xa9;" horiz-adv-x="677" 
d="M340 648h1c170 0 304 -138 304 -308c0 -172 -134 -310 -305 -310c-172 0 -308 138 -308 310c0 170 136 308 308 308zM339 599h-1c-139 0 -248 -116 -248 -261c0 -144 109 -258 249 -259c139 -1 248 115 248 260c0 144 -109 260 -248 260zM474 495l-13 -48
c-14 6 -49 21 -95 21c-84 0 -133 -53 -133 -132c0 -76 49 -131 131 -131c39 0 74 10 97 22l13 -46c-35 -20 -74 -28 -121 -28c-115 0 -182 80 -182 181c0 115 86 186 196 186c48 0 94 -15 107 -25z" />
    <glyph glyph-name="ordfeminine" unicode="&#xaa;" horiz-adv-x="289" 
d="M257 263h-61l-5 34h-2c-17 -25 -43 -39 -74 -39c-48 0 -85 36 -85 95c0 82 73 116 154 117v9c0 27 -16 50 -56 50c-26 0 -47 -8 -64 -19l-13 52c24 16 56 26 90 26c85 0 112 -60 112 -129v-121c0 -25 1 -52 4 -75zM185 359v61c-31 0 -88 -9 -88 -60c0 -29 20 -45 41 -45
c15 0 31 8 40 25c3 5 7 12 7 19z" />
    <glyph glyph-name="guillemotleft" unicode="&#xab;" horiz-adv-x="370" 
d="M204 432l-106 -180l106 -180h-80l-104 180l104 180h80zM357 432l-106 -180l106 -180h-81l-104 180l105 180h80z" />
    <glyph glyph-name="logicalnot" unicode="&#xac;" horiz-adv-x="596" 
d="M40 411h516v-299h-71v229h-445v70z" />
    <glyph glyph-name="uni00AD" unicode="&#xad;" horiz-adv-x="291" 
d="M30 309h208v-79h-208v79z" />
    <glyph glyph-name="registered" unicode="&#xae;" horiz-adv-x="373" 
d="M164 505v-58h-37v152c11 2 31 5 58 5c29 0 43 -5 54 -12c9 -6 15 -18 15 -33c0 -16 -14 -29 -32 -35v-2c15 -5 23 -17 28 -38c5 -22 8 -31 11 -37h-41c-5 6 -8 19 -12 35c-3 16 -11 23 -28 23h-16zM166 573v-39h14c18 0 32 6 32 20c0 13 -10 20 -29 20
c-8 0 -14 -1 -17 -1zM187 684h1c87 0 157 -70 157 -158c0 -89 -70 -159 -158 -159c-89 0 -159 70 -159 159c0 88 70 158 159 158zM186 648h-1c-65 0 -114 -55 -114 -122c0 -69 49 -123 116 -123c66 -1 115 54 115 123c0 67 -49 122 -116 122z" />
    <glyph glyph-name="macron" unicode="&#xaf;" 
d="M48 645h205v-64h-205v64z" />
    <glyph glyph-name="degree" unicode="&#xb0;" horiz-adv-x="284" 
d="M149 684h1c72 0 120 -56 120 -123c0 -78 -64 -126 -123 -126c-69 0 -120 52 -120 121c0 72 58 128 122 128zM148 637h-1c-36 0 -67 -36 -67 -80c0 -42 31 -76 69 -76s68 33 68 77c0 41 -25 79 -69 79z" />
    <glyph glyph-name="plusminus" unicode="&#xb1;" horiz-adv-x="596" 
d="M262 567h72v-182h222v-70h-222v-187h-72v187h-222v70h222v182zM40 70h516v-70h-516v70z" />
    <glyph glyph-name="two.superior" unicode="&#xb2;" horiz-adv-x="261" 
d="M5 417v42l44 54c51 63 101 120 101 173c0 42 -23 59 -55 59c-26 0 -49 -13 -64 -25l-19 58c20 17 58 34 104 34c87 0 118 -55 118 -110c0 -73 -57 -136 -104 -188l-23 -27v-3h132v-67h-234z" />
    <glyph glyph-name="three.superior" unicode="&#xb3;" horiz-adv-x="249" 
d="M33 732l-14 55c21 13 55 25 92 25c75 0 109 -46 109 -93c0 -42 -24 -73 -64 -90v-2c39 -8 76 -45 76 -95c0 -68 -55 -120 -145 -120c-35 0 -64 8 -83 20l13 59c15 -9 40 -18 68 -18c36 0 65 23 65 60c0 43 -33 66 -81 66h-10v53h7c31 0 76 15 76 54c0 29 -19 45 -48 45
c-26 0 -44 -8 -61 -19z" />
    <glyph glyph-name="acute" unicode="&#xb4;" 
d="M179 686h99l-103 -138h-68z" />
    <glyph glyph-name="mu" unicode="&#xb5;" horiz-adv-x="429" 
d="M293 49h-3c-11 -23 -42 -51 -79 -51c-24 0 -45 7 -60 29v-54c0 -66 4 -133 10 -165h-98c-8 24 -14 82 -14 171v508h107v-314c0 -56 14 -94 54 -94c35 0 51 29 57 48c4 11 6 28 6 44v316h106v-362c0 -38 7 -54 33 -53l-10 -76c-8 -3 -20 -4 -34 -4c-38 0 -62 18 -75 57z
" />
    <glyph glyph-name="paragraph" unicode="&#xb6;" horiz-adv-x="417" 
d="M238 -50h-62v319h-7c-38 0 -136 46 -144 179c-6 115 64 226 234 226c45 0 69 -2 99 -7v-717h-61v661h-59v-661z" />
    <glyph glyph-name="periodcentered" unicode="&#xb7;" horiz-adv-x="216" 
d="M108 192h-1c-35 0 -64 28 -64 73c0 42 31 73 65 73c37 0 65 -28 65 -73s-26 -73 -65 -73z" />
    <glyph glyph-name="cedilla" unicode="&#xb8;" 
d="M137 5h60l-27 -52c35 -5 67 -33 67 -72c0 -60 -51 -83 -102 -83c-26 0 -53 7 -72 18l18 50c16 -9 34 -15 51 -15c18 0 34 7 34 27c0 23 -26 37 -68 41z" />
    <glyph glyph-name="one.superior" unicode="&#xb9;" horiz-adv-x="227" 
d="M176 417h-78v319h-2l-72 -36l-14 59l97 48h69v-390z" />
    <glyph glyph-name="ordmasculine" unicode="&#xba;" horiz-adv-x="307" 
d="M154 588h1c76 0 118 -60 118 -164c0 -128 -66 -166 -120 -166c-73 0 -122 58 -122 164c0 112 58 166 123 166zM152 530h-1c-37 0 -47 -67 -47 -107c0 -53 12 -107 48 -107c41 0 48 59 48 107c0 47 -8 107 -48 107z" />
    <glyph glyph-name="guillemotright" unicode="&#xbb;" horiz-adv-x="370" 
d="M119 252l-106 180h79l105 -180l-103 -180h-81zM272 252l-107 180h80l105 -180l-104 -180h-81z" />
    <glyph glyph-name="onequarter" unicode="&#xbc;" horiz-adv-x="643" 
d="M190 263h-79v319h-2l-72 -36l-14 59l97 48h70v-390zM172 -8h-60l346 666h59zM567 0h-72v97h-148v49l142 246h78v-236h44v-59h-44v-97zM495 156v84c0 28 2 52 3 69h-2c-11 -22 -17 -38 -29 -60l-50 -91v-2h78z" />
    <glyph glyph-name="onehalf" unicode="&#xbd;" horiz-adv-x="643" 
d="M177 263h-79v319h-2l-71 -36l-15 59l97 48h70v-390zM147 -8h-60l345 666h59zM372 0v42l44 54c50 63 100 120 100 173c0 42 -23 59 -54 59c-26 0 -50 -13 -65 -25l-18 58c19 17 57 34 104 34c86 0 118 -55 118 -110c0 -73 -57 -136 -105 -188l-23 -27v-3h133v-67h-234z
" />
    <glyph glyph-name="threequarters" unicode="&#xbe;" horiz-adv-x="643" 
d="M56 578l-13 55c20 13 54 25 91 25c76 0 110 -46 110 -93c0 -42 -24 -73 -64 -90v-2c39 -8 75 -45 75 -95c0 -68 -54 -120 -144 -120c-35 0 -64 8 -84 20l14 59c15 -9 39 -18 68 -18c36 0 64 23 64 60c0 43 -33 66 -80 66h-10v53h7c31 0 76 15 76 54c0 29 -20 45 -49 45
c-25 0 -43 -8 -61 -19zM189 -8h-60l345 666h59zM571 0h-72v97h-147v49l142 246h77v-236h44v-59h-44v-97zM499 156v84c0 28 2 52 4 69h-2c-11 -22 -18 -38 -30 -60l-50 -91v-2h78z" />
    <glyph glyph-name="questiondown" unicode="&#xbf;" horiz-adv-x="323" 
d="M184 495h1c36 0 63 -28 63 -71c0 -40 -24 -69 -63 -69c-38 0 -65 29 -65 69c0 43 28 71 64 71zM136 287h91l2 -16c9 -60 -9 -117 -48 -179c-30 -50 -50 -83 -50 -129s29 -71 72 -71c23 0 47 7 65 18l19 -82c-19 -13 -63 -28 -109 -28c-118 0 -156 78 -156 147
c0 71 41 127 75 180c29 47 43 85 39 141v19z" />
    <glyph glyph-name="Agrave" unicode="&#xc0;" horiz-adv-x="448" 
d="M288 176h-134l-36 -176h-104l150 674h125l139 -674h-104zM166 259h111l-28 155c-8 44 -17 106 -25 153h-3c-7 -47 -17 -111 -25 -153zM85 821h114l88 -111h-79z" />
    <glyph glyph-name="Aacute" unicode="&#xc1;" horiz-adv-x="448" 
d="M288 176h-134l-36 -176h-104l150 674h125l139 -674h-104zM166 259h111l-28 155c-8 44 -17 106 -25 153h-3c-7 -47 -17 -111 -25 -153zM259 821h114l-123 -111h-79z" />
    <glyph glyph-name="Acircumflex" unicode="&#xc2;" horiz-adv-x="448" 
d="M288 176h-134l-36 -176h-104l150 674h125l139 -674h-104zM166 259h111l-28 155c-8 44 -17 106 -25 153h-3c-7 -47 -17 -111 -25 -153zM183 814h86l86 -104h-84l-44 53h-2l-45 -53h-81z" />
    <glyph glyph-name="Atilde" unicode="&#xc3;" horiz-adv-x="448" 
d="M288 176h-134l-36 -176h-104l150 674h125l139 -674h-104zM166 259h111l-28 155c-8 44 -17 106 -25 153h-3c-7 -47 -17 -111 -25 -153zM168 718h-51c-2 66 23 106 63 106c21 0 36 -9 50 -17c14 -9 26 -18 38 -18c15 0 22 9 25 37h50c2 -71 -20 -103 -66 -103
c-21 0 -38 8 -51 16c-14 9 -24 16 -36 16s-20 -12 -22 -37z" />
    <glyph glyph-name="Adieresis" unicode="&#xc4;" horiz-adv-x="448" 
d="M288 176h-134l-36 -176h-104l150 674h125l139 -674h-104zM166 259h111l-28 155c-8 44 -17 106 -25 153h-3c-7 -47 -17 -111 -25 -153zM142 715h-1c-27 0 -50 24 -50 56s23 56 51 56c30 0 52 -24 52 -56s-22 -56 -52 -56zM317 715h-1c-29 0 -52 24 -52 56s24 56 53 56
s51 -24 51 -56s-22 -56 -51 -56z" />
    <glyph glyph-name="Aring" unicode="&#xc5;" horiz-adv-x="448" 
d="M288 176h-134l-36 -176h-104l150 674h125l139 -674h-104zM166 259h111l-28 155c-8 44 -17 106 -25 153h-3c-7 -47 -17 -111 -25 -153zM226 878h1c67 0 99 -42 99 -90s-35 -90 -100 -90c-67 0 -100 42 -100 88c0 47 34 92 100 92zM225 836h-1c-27 0 -40 -26 -40 -50
c0 -21 13 -45 41 -45c29 0 42 22 42 47c0 24 -13 48 -42 48z" />
    <glyph glyph-name="AE" unicode="&#xc6;" horiz-adv-x="578" 
d="M104 0h-105l204 674h339v-93h-181l11 -193h166v-89h-158l12 -206h171l-1 -93h-264l-12 201h-129zM178 285h99l-8 184c-2 41 -5 87 -7 131h-4c-12 -52 -28 -113 -38 -152z" />
    <glyph glyph-name="Ccedilla" unicode="&#xc7;" horiz-adv-x="399" 
d="M356 101l13 -90c-19 -9 -52 -16 -86 -17l-21 -40c34 -6 66 -33 66 -72c0 -61 -51 -84 -102 -84c-26 0 -53 8 -71 18l17 50c16 -9 34 -14 52 -14c16 0 34 6 34 27c0 23 -28 36 -69 40l37 79c-127 23 -198 137 -198 330c0 259 137 352 257 352c44 0 74 -9 88 -17l-20 -90
c-16 7 -32 13 -64 13c-73 0 -148 -67 -148 -251c0 -181 68 -246 149 -246c24 0 50 5 66 12z" />
    <glyph glyph-name="Egrave" unicode="&#xc8;" horiz-adv-x="376" 
d="M326 396v-89h-160v-214h182v-93h-289v674h277v-93h-170v-185h160zM60 821h114l88 -111h-79z" />
    <glyph glyph-name="Eacute" unicode="&#xc9;" horiz-adv-x="376" 
d="M326 396v-89h-160v-214h182v-93h-289v674h277v-93h-170v-185h160zM238 821h114l-123 -111h-79z" />
    <glyph glyph-name="Ecircumflex" unicode="&#xca;" horiz-adv-x="376" 
d="M326 396v-89h-160v-214h182v-93h-289v674h277v-93h-170v-185h160zM156 814h86l86 -104h-84l-44 53h-2l-45 -53h-81z" />
    <glyph glyph-name="Edieresis" unicode="&#xcb;" horiz-adv-x="376" 
d="M326 396v-89h-160v-214h182v-93h-289v674h277v-93h-170v-185h160zM112 719h-1c-27 0 -50 24 -50 56s23 56 51 56c30 0 52 -24 52 -56s-22 -56 -52 -56zM287 719h-1c-29 0 -52 24 -52 56s24 56 53 56s51 -24 51 -56s-22 -56 -51 -56z" />
    <glyph glyph-name="Igrave" unicode="&#xcc;" horiz-adv-x="226" 
d="M59 674h107v-674h-107v674zM-35 821h114l88 -111h-79z" />
    <glyph glyph-name="Iacute" unicode="&#xcd;" horiz-adv-x="226" 
d="M59 674h107v-674h-107v674zM142 821h114l-123 -111h-79z" />
    <glyph glyph-name="Icircumflex" unicode="&#xce;" horiz-adv-x="226" 
d="M59 674h107v-674h-107v674zM69 814h86l86 -104h-84l-44 53h-2l-45 -53h-81z" />
    <glyph glyph-name="Idieresis" unicode="&#xcf;" horiz-adv-x="226" 
d="M59 674h107v-674h-107v674zM25 719h-1c-27 0 -50 24 -50 56s23 56 51 56c30 0 52 -24 52 -56s-22 -56 -52 -56zM200 719h-1c-29 0 -52 24 -52 56s24 56 53 56s51 -24 51 -56s-22 -56 -51 -56z" />
    <glyph glyph-name="Eth" unicode="&#xd0;" horiz-adv-x="475" 
d="M0 312v76h64v276c31 8 74 13 120 13c79 0 134 -19 174 -56c55 -49 89 -137 89 -273c0 -145 -36 -236 -88 -286c-44 -46 -110 -68 -196 -68c-37 0 -75 3 -99 7v311h-64zM257 388v-76h-87v-228c9 -2 20 -2 27 -2c73 0 140 62 140 268c0 153 -43 241 -136 241
c-12 0 -21 -1 -31 -3v-200h87z" />
    <glyph glyph-name="Ntilde" unicode="&#xd1;" horiz-adv-x="493" 
d="M154 0h-95v674h99l113 -288c23 -61 57 -148 78 -213h2c-5 86 -11 190 -11 311v190h94v-674h-99l-114 287c-24 62 -54 143 -73 214h-2c4 -78 8 -173 8 -313v-188zM188 718h-51c-2 66 23 106 63 106c21 0 36 -9 50 -17c14 -9 26 -18 38 -18c15 0 22 9 25 37h50
c2 -71 -20 -103 -66 -103c-21 0 -38 8 -51 16c-14 9 -24 16 -36 16s-20 -12 -22 -37z" />
    <glyph glyph-name="Ograve" unicode="&#xd2;" horiz-adv-x="465" 
d="M239 682c142 0 198 -155 198 -336c0 -254 -89 -354 -208 -354c-134 0 -201 143 -201 346c0 202 76 344 211 344zM234 589c-67 0 -95 -111 -95 -252c0 -147 28 -252 96 -252c69 0 91 121 91 256c0 122 -20 248 -92 248zM88 821h114l88 -111h-79z" />
    <glyph glyph-name="Oacute" unicode="&#xd3;" horiz-adv-x="465" 
d="M239 682c142 0 198 -155 198 -336c0 -254 -89 -354 -208 -354c-134 0 -201 143 -201 346c0 202 76 344 211 344zM234 589c-67 0 -95 -111 -95 -252c0 -147 28 -252 96 -252c69 0 91 121 91 256c0 122 -20 248 -92 248zM268 821h114l-123 -111h-79z" />
    <glyph glyph-name="Ocircumflex" unicode="&#xd4;" horiz-adv-x="465" 
d="M239 682c142 0 198 -155 198 -336c0 -254 -89 -354 -208 -354c-134 0 -201 143 -201 346c0 202 76 344 211 344zM234 589c-67 0 -95 -111 -95 -252c0 -147 28 -252 96 -252c69 0 91 121 91 256c0 122 -20 248 -92 248zM189 814h86l86 -104h-84l-44 53h-2l-45 -53h-81z
" />
    <glyph glyph-name="Otilde" unicode="&#xd5;" horiz-adv-x="465" 
d="M239 682c142 0 198 -155 198 -336c0 -254 -89 -354 -208 -354c-134 0 -201 143 -201 346c0 202 76 344 211 344zM234 589c-67 0 -95 -111 -95 -252c0 -147 28 -252 96 -252c69 0 91 121 91 256c0 122 -20 248 -92 248zM170 715h-51c-2 66 23 106 63 106
c21 0 36 -9 50 -17c14 -9 26 -18 38 -18c15 0 22 9 25 37h50c2 -71 -20 -103 -66 -103c-21 0 -38 8 -51 16c-14 9 -24 16 -36 16s-20 -12 -22 -37z" />
    <glyph glyph-name="Odieresis" unicode="&#xd6;" horiz-adv-x="465" 
d="M239 682c142 0 198 -155 198 -336c0 -254 -89 -354 -208 -354c-134 0 -201 143 -201 346c0 202 76 344 211 344zM234 589c-67 0 -95 -111 -95 -252c0 -147 28 -252 96 -252c69 0 91 121 91 256c0 122 -20 248 -92 248zM144 719h-1c-27 0 -50 24 -50 56s23 56 51 56
c30 0 52 -24 52 -56s-22 -56 -52 -56zM319 719h-1c-29 0 -52 24 -52 56s24 56 53 56s51 -24 51 -56s-22 -56 -51 -56z" />
    <glyph glyph-name="multiply" unicode="&#xd7;" horiz-adv-x="596" 
d="M40 475l47 51l211 -214l210 214l48 -51l-209 -212l208 -211l-49 -52l-208 213l-209 -213l-49 52l208 211z" />
    <glyph glyph-name="Oslash" unicode="&#xd8;" horiz-adv-x="465" 
d="M97 -45l-55 31l42 95c-39 62 -56 153 -56 257c0 200 76 344 206 344c36 0 69 -10 99 -33l30 70l59 -25l-41 -93c41 -65 56 -160 56 -255c0 -253 -88 -354 -204 -354c-37 0 -73 11 -102 37zM146 206l145 348c-14 21 -34 35 -57 35c-68 0 -101 -106 -101 -250
c0 -40 1 -87 11 -133h2zM319 472l-148 -346c14 -28 38 -41 63 -41c69 0 98 109 98 256c0 40 -1 86 -11 130z" />
    <glyph glyph-name="Ugrave" unicode="&#xd9;" horiz-adv-x="481" 
d="M56 674h107v-444c0 -109 34 -144 77 -144c46 0 77 34 77 144v444h107v-426c0 -174 -68 -256 -185 -256c-123 0 -183 83 -183 251v431zM95 821h114l88 -111h-79z" />
    <glyph glyph-name="Uacute" unicode="&#xda;" horiz-adv-x="481" 
d="M56 674h107v-444c0 -109 34 -144 77 -144c46 0 77 34 77 144v444h107v-426c0 -174 -68 -256 -185 -256c-123 0 -183 83 -183 251v431zM269 821h114l-123 -111h-79z" />
    <glyph glyph-name="Ucircumflex" unicode="&#xdb;" horiz-adv-x="481" 
d="M56 674h107v-444c0 -109 34 -144 77 -144c46 0 77 34 77 144v444h107v-426c0 -174 -68 -256 -185 -256c-123 0 -183 83 -183 251v431zM199 814h86l86 -104h-84l-44 53h-2l-45 -53h-81z" />
    <glyph glyph-name="Udieresis" unicode="&#xdc;" horiz-adv-x="481" 
d="M56 674h107v-444c0 -109 34 -144 77 -144c46 0 77 34 77 144v444h107v-426c0 -174 -68 -256 -185 -256c-123 0 -183 83 -183 251v431zM152 719h-1c-27 0 -50 24 -50 56s23 56 51 56c30 0 52 -24 52 -56s-22 -56 -52 -56zM327 719h-1c-29 0 -52 24 -52 56s24 56 53 56
s51 -24 51 -56s-22 -56 -51 -56z" />
    <glyph glyph-name="Yacute" unicode="&#xdd;" horiz-adv-x="398" 
d="M251 0h-107v270l-148 404h114l52 -164c14 -45 29 -97 42 -148h2c10 51 24 101 39 151l48 161h111l-153 -400v-274zM240 821h114l-123 -111h-79z" />
    <glyph glyph-name="Thorn" unicode="&#xde;" horiz-adv-x="428" 
d="M59 0v674h105v-124c12 2 27 3 45 3c55 0 103 -12 141 -47c39 -36 54 -88 54 -143c0 -154 -106 -214 -203 -214c-14 0 -28 1 -37 3v-152h-105zM164 463v-222c8 -3 19 -4 31 -4c66 0 105 47 105 118c0 62 -25 111 -99 111c-15 0 -27 -1 -37 -3z" />
    <glyph glyph-name="germandbls" unicode="&#xdf;" horiz-adv-x="464" 
d="M156 0h-107v440c0 107 23 168 65 208c35 34 82 52 136 52c100 0 165 -65 165 -164c0 -29 -10 -62 -24 -79c-34 -16 -57 -43 -57 -74c0 -30 16 -51 41 -80c45 -50 65 -92 65 -153c0 -99 -74 -158 -165 -158c-33 0 -63 6 -82 14l14 82c18 -9 40 -12 63 -12
c45 0 69 30 69 65c0 37 -19 63 -47 96c-34 40 -59 74 -59 129c0 51 31 96 73 117c7 16 8 34 8 48c0 59 -37 83 -72 83c-49 0 -86 -42 -86 -170v-444z" />
    <glyph glyph-name="agrave" unicode="&#xe0;" horiz-adv-x="396" 
d="M68 686h99l72 -138h-68zM346 305v-194c0 -38 1 -79 6 -111h-96l-6 50h-2c-25 -38 -61 -58 -103 -58c-70 0 -123 59 -123 144c0 125 106 178 216 179v13c0 50 -20 86 -73 86c-35 0 -64 -10 -91 -27l-20 73c24 15 75 35 134 35c126 0 158 -86 158 -190zM241 153v91
c-42 -1 -117 -12 -117 -97c0 -55 29 -75 53 -75c26 0 52 18 61 56c2 7 3 16 3 25z" />
    <glyph glyph-name="aacute" unicode="&#xe1;" horiz-adv-x="396" 
d="M224 686h99l-103 -138h-68zM346 305v-194c0 -38 1 -79 6 -111h-96l-6 50h-2c-25 -38 -61 -58 -103 -58c-70 0 -123 59 -123 144c0 125 106 178 216 179v13c0 50 -20 86 -73 86c-35 0 -64 -10 -91 -27l-20 73c24 15 75 35 134 35c126 0 158 -86 158 -190zM241 153v91
c-42 -1 -117 -12 -117 -97c0 -55 29 -75 53 -75c26 0 52 18 61 56c2 7 3 16 3 25z" />
    <glyph glyph-name="acircumflex" unicode="&#xe2;" horiz-adv-x="396" 
d="M160 686h73l83 -138h-75l-43 83h-2l-43 -83h-76zM346 305v-194c0 -38 1 -79 6 -111h-96l-6 50h-2c-25 -38 -61 -58 -103 -58c-70 0 -123 59 -123 144c0 125 106 178 216 179v13c0 50 -20 86 -73 86c-35 0 -64 -10 -91 -27l-20 73c24 15 75 35 134 35
c126 0 158 -86 158 -190zM241 153v91c-42 -1 -117 -12 -117 -97c0 -55 29 -75 53 -75c26 0 52 18 61 56c2 7 3 16 3 25z" />
    <glyph glyph-name="atilde" unicode="&#xe3;" horiz-adv-x="396" 
d="M134 559h-52c0 59 22 107 67 107c22 0 38 -10 54 -18c13 -8 24 -16 38 -16c13 0 22 6 23 36h50c0 -68 -24 -102 -67 -102c-19 0 -37 9 -51 16c-15 8 -25 17 -38 17c-14 0 -23 -14 -24 -40zM346 305v-194c0 -38 1 -79 6 -111h-96l-6 50h-2c-25 -38 -61 -58 -103 -58
c-70 0 -123 59 -123 144c0 125 106 178 216 179v13c0 50 -20 86 -73 86c-35 0 -64 -10 -91 -27l-20 73c24 15 75 35 134 35c126 0 158 -86 158 -190zM241 153v91c-42 -1 -117 -12 -117 -97c0 -55 29 -75 53 -75c26 0 52 18 61 56c2 7 3 16 3 25z" />
    <glyph glyph-name="adieresis" unicode="&#xe4;" horiz-adv-x="396" 
d="M114 563h-1c-28 0 -52 23 -52 55s24 55 53 55c30 0 52 -22 52 -55c0 -32 -22 -55 -52 -55zM282 563h-1c-29 0 -52 23 -52 55s24 55 53 55s52 -22 52 -55c0 -32 -22 -55 -52 -55zM346 305v-194c0 -38 1 -79 6 -111h-96l-6 50h-2c-25 -38 -61 -58 -103 -58
c-70 0 -123 59 -123 144c0 125 106 178 216 179v13c0 50 -20 86 -73 86c-35 0 -64 -10 -91 -27l-20 73c24 15 75 35 134 35c126 0 158 -86 158 -190zM241 153v91c-42 -1 -117 -12 -117 -97c0 -55 29 -75 53 -75c26 0 52 18 61 56c2 7 3 16 3 25z" />
    <glyph glyph-name="aring" unicode="&#xe5;" horiz-adv-x="396" 
d="M199 536c-63 0 -99 39 -99 87c0 50 34 92 100 92c62 0 96 -39 96 -90c0 -50 -37 -89 -97 -89zM198 576c32 0 44 25 44 49s-11 50 -45 50c-30 0 -42 -28 -42 -52c0 -20 13 -47 43 -47zM346 305v-194c0 -38 1 -79 6 -111h-96l-6 50h-2c-25 -38 -61 -58 -103 -58
c-70 0 -123 59 -123 144c0 125 106 178 216 179v13c0 50 -20 86 -73 86c-35 0 -64 -10 -91 -27l-20 73c24 15 75 35 134 35c126 0 158 -86 158 -190zM241 153v91c-42 -1 -117 -12 -117 -97c0 -55 29 -75 53 -75c26 0 52 18 61 56c2 7 3 16 3 25z" />
    <glyph glyph-name="ae" unicode="&#xe6;" horiz-adv-x="600" 
d="M570 226h-229c0 -117 50 -153 110 -153c35 0 64 9 86 21l16 -75c-39 -21 -82 -27 -122 -27c-62 0 -121 30 -145 88h-2c-28 -56 -73 -88 -134 -88c-74 0 -128 60 -128 148c0 118 105 169 215 170v20c0 47 -25 84 -78 84c-31 0 -64 -12 -85 -26l-21 72c32 20 80 35 127 35
c54 0 101 -27 119 -82h2c26 54 73 82 126 82c94 0 145 -95 145 -223c0 -17 -1 -31 -2 -46zM239 157v83c-43 0 -120 -11 -120 -95c0 -51 29 -72 56 -72s52 20 60 57c3 8 4 18 4 27zM342 297h131c2 73 -23 121 -60 121c-48 0 -70 -66 -71 -121z" />
    <glyph glyph-name="ccedilla" unicode="&#xe7;" horiz-adv-x="313" 
d="M295 94l11 -84c-15 -8 -45 -15 -78 -16l-21 -41c35 -5 67 -33 67 -72c0 -60 -51 -83 -102 -83c-26 0 -53 7 -71 18l17 50c16 -9 34 -15 51 -15c18 0 34 7 34 28c0 23 -26 36 -68 40l37 81c-87 22 -142 103 -142 240c0 145 81 254 210 254c29 0 57 -7 70 -14l-16 -85
c-11 4 -28 11 -52 11c-69 0 -105 -75 -105 -164c0 -100 40 -160 105 -160c20 0 38 4 53 12z" />
    <glyph glyph-name="egrave" unicode="&#xe8;" horiz-adv-x="394" 
d="M84 686h99l72 -138h-68zM363 215h-229c1 -109 52 -139 109 -139c35 0 65 8 87 18l15 -77c-30 -14 -77 -23 -122 -23c-125 0 -193 91 -193 242c0 161 78 259 182 259c102 0 154 -93 154 -223c0 -28 -2 -44 -3 -57zM135 291h132c1 78 -25 124 -63 124
c-46 0 -67 -67 -69 -124z" />
    <glyph glyph-name="eacute" unicode="&#xe9;" horiz-adv-x="394" 
d="M241 686h99l-103 -138h-68zM363 215h-229c1 -109 52 -139 109 -139c35 0 65 8 87 18l15 -77c-30 -14 -77 -23 -122 -23c-125 0 -193 91 -193 242c0 161 78 259 182 259c102 0 154 -93 154 -223c0 -28 -2 -44 -3 -57zM135 291h132c1 78 -25 124 -63 124
c-46 0 -67 -67 -69 -124z" />
    <glyph glyph-name="ecircumflex" unicode="&#xea;" horiz-adv-x="394" 
d="M174 686h73l83 -138h-75l-43 83h-2l-43 -83h-76zM363 215h-229c1 -109 52 -139 109 -139c35 0 65 8 87 18l15 -77c-30 -14 -77 -23 -122 -23c-125 0 -193 91 -193 242c0 161 78 259 182 259c102 0 154 -93 154 -223c0 -28 -2 -44 -3 -57zM135 291h132
c1 78 -25 124 -63 124c-46 0 -67 -67 -69 -124z" />
    <glyph glyph-name="edieresis" unicode="&#xeb;" horiz-adv-x="394" 
d="M130 563h-1c-28 0 -52 23 -52 55s24 55 53 55c30 0 52 -22 52 -55c0 -32 -22 -55 -52 -55zM298 563h-1c-29 0 -52 23 -52 55s24 55 53 55s52 -22 52 -55c0 -32 -22 -55 -52 -55zM363 215h-229c1 -109 52 -139 109 -139c35 0 65 8 87 18l15 -77c-30 -14 -77 -23 -122 -23
c-125 0 -193 91 -193 242c0 161 78 259 182 259c102 0 154 -93 154 -223c0 -28 -2 -44 -3 -57zM135 291h132c1 78 -25 124 -63 124c-46 0 -67 -67 -69 -124z" />
    <glyph glyph-name="igrave" unicode="&#xec;" horiz-adv-x="205" 
d="M-26 686h99l72 -138h-68zM156 0h-107v487h107v-487z" />
    <glyph glyph-name="iacute" unicode="&#xed;" horiz-adv-x="205" 
d="M132 686h99l-103 -138h-68zM156 0h-107v487h107v-487z" />
    <glyph glyph-name="icircumflex" unicode="&#xee;" horiz-adv-x="205" 
d="M67 686h73l83 -138h-75l-43 83h-2l-43 -83h-76zM156 0h-107v487h107v-487z" />
    <glyph glyph-name="idieresis" unicode="&#xef;" horiz-adv-x="205" 
d="M19 563h-1c-28 0 -52 23 -52 55s24 55 53 55c30 0 52 -22 52 -55c0 -32 -22 -55 -52 -55zM187 563h-1c-29 0 -52 23 -52 55s24 55 53 55s52 -22 52 -55c0 -32 -22 -55 -52 -55zM156 0h-107v487h107v-487z" />
    <glyph glyph-name="eth" unicode="&#xf0;" horiz-adv-x="409" 
d="M205 74h1c55 0 66 92 66 165c0 49 -1 95 -12 129c-8 26 -23 46 -54 46c-59 0 -69 -108 -69 -170c0 -82 15 -170 68 -170zM82 505l-24 39l82 46c-18 19 -42 40 -66 61l62 55c27 -21 57 -47 85 -74l91 50l25 -41l-82 -44c34 -38 61 -82 82 -125c29 -60 41 -132 41 -218
c1 -205 -100 -262 -176 -262c-104 0 -172 87 -172 250c0 159 75 233 149 242c19 2 37 1 54 -10l2 3c-14 29 -36 58 -57 80z" />
    <glyph glyph-name="ntilde" unicode="&#xf1;" horiz-adv-x="434" 
d="M156 559h-52c0 59 22 107 67 107c22 0 38 -10 54 -18c13 -8 24 -16 38 -16c13 0 22 6 23 36h50c0 -68 -24 -102 -67 -102c-19 0 -37 9 -51 16c-15 8 -25 17 -38 17c-14 0 -23 -14 -24 -40zM49 0v350c0 55 -2 94 -4 137h93l5 -57h2c23 39 64 65 115 65
c82 0 125 -63 125 -176v-319h-107v309c0 48 -10 96 -57 96c-26 0 -50 -20 -60 -60c-3 -10 -5 -26 -5 -44v-301h-107z" />
    <glyph glyph-name="ograve" unicode="&#xf2;" horiz-adv-x="410" 
d="M80 686h99l72 -138h-68zM208 495c102 0 171 -90 171 -250c0 -197 -101 -253 -175 -253c-103 0 -174 86 -174 250c0 176 87 253 178 253zM206 412c-58 0 -69 -97 -69 -168c0 -82 14 -170 71 -170c53 0 65 97 65 170c0 71 -12 168 -67 168z" />
    <glyph glyph-name="oacute" unicode="&#xf3;" horiz-adv-x="410" 
d="M237 686h99l-103 -138h-68zM208 495c102 0 171 -90 171 -250c0 -197 -101 -253 -175 -253c-103 0 -174 86 -174 250c0 176 87 253 178 253zM206 412c-58 0 -69 -97 -69 -168c0 -82 14 -170 71 -170c53 0 65 97 65 170c0 71 -12 168 -67 168z" />
    <glyph glyph-name="ocircumflex" unicode="&#xf4;" horiz-adv-x="410" 
d="M169 686h73l83 -138h-75l-43 83h-2l-43 -83h-76zM208 495c102 0 171 -90 171 -250c0 -197 -101 -253 -175 -253c-103 0 -174 86 -174 250c0 176 87 253 178 253zM206 412c-58 0 -69 -97 -69 -168c0 -82 14 -170 71 -170c53 0 65 97 65 170c0 71 -12 168 -67 168z" />
    <glyph glyph-name="otilde" unicode="&#xf5;" horiz-adv-x="410" 
d="M141 559h-52c0 59 22 107 67 107c22 0 38 -10 54 -18c13 -8 24 -16 38 -16c13 0 22 6 23 36h50c0 -68 -24 -102 -67 -102c-19 0 -37 9 -51 16c-15 8 -25 17 -38 17c-14 0 -23 -14 -24 -40zM208 495c102 0 171 -90 171 -250c0 -197 -101 -253 -175 -253
c-103 0 -174 86 -174 250c0 176 87 253 178 253zM206 412c-58 0 -69 -97 -69 -168c0 -82 14 -170 71 -170c53 0 65 97 65 170c0 71 -12 168 -67 168z" />
    <glyph glyph-name="odieresis" unicode="&#xf6;" horiz-adv-x="410" 
d="M121 563h-1c-28 0 -52 23 -52 55s24 55 53 55c30 0 52 -22 52 -55c0 -32 -22 -55 -52 -55zM289 563h-1c-29 0 -52 23 -52 55s24 55 53 55s52 -22 52 -55c0 -32 -22 -55 -52 -55zM208 495c102 0 171 -90 171 -250c0 -197 -101 -253 -175 -253c-103 0 -174 86 -174 250
c0 176 87 253 178 253zM206 412c-58 0 -69 -97 -69 -168c0 -82 14 -170 71 -170c53 0 65 97 65 170c0 71 -12 168 -67 168z" />
    <glyph glyph-name="divide" unicode="&#xf7;" horiz-adv-x="596" 
d="M298 386h-1c-31 0 -51 24 -51 54c0 32 21 55 53 55s52 -23 52 -55c0 -30 -19 -54 -53 -54zM556 232h-516v70h516v-70zM298 39h-1c-31 0 -51 23 -51 54s21 55 53 55s52 -24 52 -55s-19 -54 -53 -54z" />
    <glyph glyph-name="oslash" unicode="&#xf8;" horiz-adv-x="410" 
d="M206 495h1c30 0 58 -9 84 -27l29 55l51 -27l-37 -70c29 -42 45 -103 45 -181c0 -197 -101 -253 -173 -253c-32 0 -62 9 -86 26l-30 -56l-48 32l35 65c-30 42 -47 104 -47 183c0 176 87 253 176 253zM142 159l108 225c-8 18 -22 28 -45 28c-65 0 -74 -107 -74 -168
c0 -24 1 -53 8 -83zM269 321l-106 -219c8 -17 22 -28 43 -28c58 0 73 90 73 161c0 25 -1 55 -7 86h-3z" />
    <glyph glyph-name="ugrave" unicode="&#xf9;" horiz-adv-x="428" 
d="M91 686h99l72 -138h-68zM377 487v-346c0 -52 2 -100 4 -141h-92l-7 51h-2c-19 -29 -57 -59 -109 -59c-89 0 -124 67 -124 194v301h106v-288c0 -69 13 -118 57 -118c32 0 49 29 54 48c4 11 6 26 6 42v316h107z" />
    <glyph glyph-name="uacute" unicode="&#xfa;" horiz-adv-x="428" 
d="M248 686h99l-103 -138h-68zM377 487v-346c0 -52 2 -100 4 -141h-92l-7 51h-2c-19 -29 -57 -59 -109 -59c-89 0 -124 67 -124 194v301h106v-288c0 -69 13 -118 57 -118c32 0 49 29 54 48c4 11 6 26 6 42v316h107z" />
    <glyph glyph-name="ucircumflex" unicode="&#xfb;" horiz-adv-x="428" 
d="M178 686h73l83 -138h-75l-43 83h-2l-43 -83h-76zM377 487v-346c0 -52 2 -100 4 -141h-92l-7 51h-2c-19 -29 -57 -59 -109 -59c-89 0 -124 67 -124 194v301h106v-288c0 -69 13 -118 57 -118c32 0 49 29 54 48c4 11 6 26 6 42v316h107z" />
    <glyph glyph-name="udieresis" unicode="&#xfc;" horiz-adv-x="428" 
d="M133 563h-1c-28 0 -52 23 -52 55s24 55 53 55c30 0 52 -22 52 -55c0 -32 -22 -55 -52 -55zM301 563h-1c-29 0 -52 23 -52 55s24 55 53 55s52 -22 52 -55c0 -32 -22 -55 -52 -55zM377 487v-346c0 -52 2 -100 4 -141h-92l-7 51h-2c-19 -29 -57 -59 -109 -59
c-89 0 -124 67 -124 194v301h106v-288c0 -69 13 -118 57 -118c32 0 49 29 54 48c4 11 6 26 6 42v316h107z" />
    <glyph glyph-name="yacute" unicode="&#xfd;" horiz-adv-x="370" 
d="M218 686h99l-103 -138h-68zM8 487h114l56 -265c7 -33 11 -62 16 -90h2c4 26 10 58 16 88l48 267h105l-91 -348c-26 -105 -59 -210 -114 -277c-38 -47 -81 -69 -100 -76l-34 92c22 10 45 27 66 50c19 20 33 46 42 68c4 10 6 16 6 23c0 6 -1 12 -3 18z" />
    <glyph glyph-name="thorn" unicode="&#xfe;" horiz-adv-x="425" 
d="M49 668h105v-241h2c22 46 56 68 99 68c90 0 139 -105 139 -251c0 -175 -76 -252 -147 -252c-49 0 -77 28 -90 55h-2v-239h-106v860zM155 307v-129c0 -17 2 -32 7 -42c11 -46 36 -56 53 -56c54 0 73 76 73 163c0 95 -23 161 -71 161c-27 0 -51 -29 -56 -61
c-4 -11 -6 -22 -6 -36z" />
    <glyph glyph-name="ydieresis" unicode="&#xff;" horiz-adv-x="370" 
d="M105 563h-1c-28 0 -52 23 -52 55s24 55 53 55c30 0 52 -22 52 -55c0 -32 -22 -55 -52 -55zM273 563h-1c-29 0 -52 23 -52 55s24 55 53 55s52 -22 52 -55c0 -32 -22 -55 -52 -55zM8 487h114l56 -265c7 -33 11 -62 16 -90h2c4 26 10 58 16 88l48 267h105l-91 -348
c-26 -105 -59 -210 -114 -277c-38 -47 -81 -69 -100 -76l-34 92c22 10 45 27 66 50c19 20 33 46 42 68c4 10 6 16 6 23c0 6 -1 12 -3 18z" />
    <glyph glyph-name="Amacron" unicode="&#x100;" horiz-adv-x="448" 
d="M288 176h-134l-36 -176h-104l150 674h125l139 -674h-104zM166 259h111l-28 155c-8 44 -17 106 -25 153h-3c-7 -47 -17 -111 -25 -153zM112 803h225v-67h-225v67z" />
    <glyph glyph-name="amacron" unicode="&#x101;" horiz-adv-x="396" 
d="M96 645h205v-64h-205v64zM346 305v-194c0 -38 1 -79 6 -111h-96l-6 50h-2c-25 -38 -61 -58 -103 -58c-70 0 -123 59 -123 144c0 125 106 178 216 179v13c0 50 -20 86 -73 86c-35 0 -64 -10 -91 -27l-20 73c24 15 75 35 134 35c126 0 158 -86 158 -190zM241 153v91
c-42 -1 -117 -12 -117 -97c0 -55 29 -75 53 -75c26 0 52 18 61 56c2 7 3 16 3 25z" />
    <glyph glyph-name="Abreve" unicode="&#x102;" horiz-adv-x="448" 
d="M288 176h-134l-36 -176h-104l150 674h125l139 -674h-104zM166 259h111l-28 155c-8 44 -17 106 -25 153h-3c-7 -47 -17 -111 -25 -153zM110 817h59c3 -26 23 -43 55 -43s52 15 56 43h59c0 -64 -40 -107 -114 -107c-75 0 -115 41 -115 107z" />
    <glyph glyph-name="abreve" unicode="&#x103;" horiz-adv-x="396" 
d="M85 675h55c3 -36 26 -57 57 -57c38 0 59 25 59 57h55c2 -70 -44 -121 -115 -121c-70 0 -113 53 -111 121zM346 305v-194c0 -38 1 -79 6 -111h-96l-6 50h-2c-25 -38 -61 -58 -103 -58c-70 0 -123 59 -123 144c0 125 106 178 216 179v13c0 50 -20 86 -73 86
c-35 0 -64 -10 -91 -27l-20 73c24 15 75 35 134 35c126 0 158 -86 158 -190zM241 153v91c-42 -1 -117 -12 -117 -97c0 -55 29 -75 53 -75c26 0 52 18 61 56c2 7 3 16 3 25z" />
    <glyph glyph-name="Aogonek" unicode="&#x104;" horiz-adv-x="448" 
d="M289 674l139 -674h-36c-16 -22 -35 -58 -35 -87c0 -27 20 -44 41 -44c17 0 29 3 40 8l14 -56c-25 -18 -56 -23 -81 -23c-59 0 -91 35 -91 90c0 49 29 94 43 115l-35 173h-134l-36 -176h-104l150 674h125zM166 259h111l-28 155c-8 44 -17 106 -25 153h-3
c-7 -47 -17 -112 -25 -153z" />
    <glyph glyph-name="aogonek" unicode="&#x105;" horiz-adv-x="396" 
d="M346 305v-194c0 -47 1 -81 8 -111h-29c-15 -23 -32 -58 -32 -90c0 -27 19 -44 41 -44c18 0 31 3 40 7l14 -56c-27 -18 -57 -23 -81 -23c-59 0 -91 35 -91 90c0 49 28 94 40 116l-6 50h-2c-25 -38 -61 -58 -103 -58c-70 0 -123 59 -123 144c0 125 106 178 216 179v13
c0 50 -20 86 -73 86c-35 0 -64 -10 -91 -27l-20 73c24 15 75 35 134 35c126 0 158 -86 158 -190zM241 153v91c-42 -1 -117 -12 -117 -97c0 -55 29 -75 53 -75c26 0 52 18 61 56c2 7 3 16 3 25z" />
    <glyph glyph-name="Cacute" unicode="&#x106;" horiz-adv-x="385" 
d="M356 101l13 -90c-20 -10 -55 -17 -99 -17c-154 0 -242 126 -242 334c0 259 137 352 257 352c44 0 74 -9 88 -17l-20 -90c-16 7 -32 13 -64 13c-73 0 -148 -67 -148 -251c0 -181 68 -246 149 -246c25 0 50 5 66 12zM282 821h114l-123 -111h-79z" />
    <glyph glyph-name="cacute" unicode="&#x107;" horiz-adv-x="313" 
d="M232 686h99l-103 -138h-68zM294 93l11 -83c-15 -8 -46 -16 -82 -16c-116 0 -193 86 -193 246c0 145 81 254 210 254c29 0 57 -7 70 -14l-16 -85c-11 4 -28 11 -52 11c-69 0 -105 -75 -105 -164c0 -100 40 -160 105 -160c20 0 37 3 52 11z" />
    <glyph glyph-name="Ccircumflex" unicode="&#x108;" horiz-adv-x="385" 
d="M356 101l13 -90c-20 -10 -55 -17 -99 -17c-154 0 -242 126 -242 334c0 259 137 352 257 352c44 0 74 -9 88 -17l-20 -90c-16 7 -32 13 -64 13c-73 0 -148 -67 -148 -251c0 -181 68 -246 149 -246c25 0 50 5 66 12zM200 814h86l86 -104h-84l-44 53h-2l-45 -53h-81z" />
    <glyph glyph-name="ccircumflex" unicode="&#x109;" horiz-adv-x="313" 
d="M163 686h73l83 -138h-75l-43 83h-2l-43 -83h-76zM294 93l11 -83c-15 -8 -46 -16 -82 -16c-116 0 -193 86 -193 246c0 145 81 254 210 254c29 0 57 -7 70 -14l-16 -85c-11 4 -28 11 -52 11c-69 0 -105 -75 -105 -164c0 -100 40 -160 105 -160c20 0 37 3 52 11z" />
    <glyph glyph-name="Cdotaccent" unicode="&#x10a;" horiz-adv-x="385" 
d="M356 101l13 -90c-20 -10 -55 -17 -99 -17c-154 0 -242 126 -242 334c0 259 137 352 257 352c44 0 74 -9 88 -17l-20 -90c-16 7 -32 13 -64 13c-73 0 -148 -67 -148 -251c0 -181 68 -246 149 -246c25 0 50 5 66 12zM249 716h-1c-29 0 -54 26 -54 56s25 55 55 55
s54 -25 54 -55s-24 -56 -54 -56z" />
    <glyph glyph-name="cdotaccent" unicode="&#x10b;" horiz-adv-x="313" 
d="M198 563h-1c-29 0 -52 23 -52 55s24 55 53 55s52 -22 52 -55c0 -32 -22 -55 -52 -55zM294 93l11 -83c-15 -8 -46 -16 -82 -16c-116 0 -193 86 -193 246c0 145 81 254 210 254c29 0 57 -7 70 -14l-16 -85c-11 4 -28 11 -52 11c-69 0 -105 -75 -105 -164
c0 -100 40 -160 105 -160c20 0 37 3 52 11z" />
    <glyph glyph-name="Ccaron" unicode="&#x10c;" horiz-adv-x="385" 
d="M356 101l13 -90c-20 -10 -55 -17 -99 -17c-154 0 -242 126 -242 334c0 259 137 352 257 352c44 0 74 -9 88 -17l-20 -90c-16 7 -32 13 -64 13c-73 0 -148 -67 -148 -251c0 -181 68 -246 149 -246c25 0 50 5 66 12zM296 710h-86l-85 104h83l44 -55h2l45 55h81z" />
    <glyph glyph-name="ccaron" unicode="&#x10d;" horiz-adv-x="313" 
d="M234 548h-74l-82 138h75l43 -83h2l43 83h76zM294 93l11 -83c-15 -8 -46 -16 -82 -16c-116 0 -193 86 -193 246c0 145 81 254 210 254c29 0 57 -7 70 -14l-16 -85c-11 4 -28 11 -52 11c-69 0 -105 -75 -105 -164c0 -100 40 -160 105 -160c20 0 37 3 52 11z" />
    <glyph glyph-name="Dcaron" unicode="&#x10e;" horiz-adv-x="470" 
d="M59 2v662c31 8 74 13 120 13c78 0 134 -19 174 -56c55 -49 89 -137 89 -272c0 -145 -36 -235 -88 -285c-45 -46 -110 -69 -197 -69c-37 0 -74 4 -98 7zM165 588v-503c9 -2 19 -2 26 -2c73 0 141 62 141 267c0 153 -44 241 -136 241c-11 0 -22 -1 -31 -3zM250 710h-86
l-85 104h83l44 -55h2l45 55h81z" />
    <glyph glyph-name="dcaron" unicode="&#x10f;" horiz-adv-x="435" 
d="M270 692h106v-560c0 -40 2 -95 4 -132h-92l-6 58h-3c-17 -35 -54 -66 -101 -66c-95 0 -148 103 -148 250c0 171 74 253 153 253c40 0 69 -19 85 -53h2v250zM270 172v129c0 9 0 20 -2 30c-4 39 -26 73 -58 73c-54 0 -73 -76 -73 -163c0 -98 26 -161 71 -161
c20 0 45 11 58 60c3 9 4 20 4 32zM461 498l-43 30c13 18 30 52 30 88c0 30 -15 54 -30 68l71 12c17 -12 33 -38 33 -73c0 -65 -44 -108 -61 -125z" />
    <glyph glyph-name="Dcroat" unicode="&#x110;" horiz-adv-x="475" 
d="M0 312v76h64v276c31 8 74 13 120 13c79 0 134 -19 174 -56c55 -49 89 -137 89 -273c0 -145 -36 -236 -88 -286c-44 -46 -110 -68 -196 -68c-37 0 -75 3 -99 7v311h-64zM257 388v-76h-87v-228c9 -2 20 -2 27 -2c73 0 140 62 140 268c0 153 -43 241 -136 241
c-12 0 -21 -1 -31 -3v-200h87z" />
    <glyph glyph-name="dcroat" unicode="&#x111;" horiz-adv-x="425" 
d="M435 537h-59v-405c0 -40 2 -95 4 -132h-92l-6 58h-3c-17 -35 -54 -66 -101 -66c-95 0 -148 103 -148 250c0 171 74 253 153 253c40 0 69 -19 85 -53h2v95h-130v69h130v86h106v-86h59v-69zM270 172v129c0 9 0 20 -2 30c-4 39 -26 73 -58 73c-54 0 -73 -76 -73 -163
c0 -98 26 -161 71 -161c20 0 45 11 58 60c3 9 4 20 4 32z" />
    <glyph glyph-name="Emacron" unicode="&#x112;" horiz-adv-x="376" 
d="M326 396v-89h-160v-214h182v-93h-289v674h277v-93h-170v-185h160zM85 803h225v-67h-225v67z" />
    <glyph glyph-name="emacron" unicode="&#x113;" horiz-adv-x="394" 
d="M98 645h205v-64h-205v64zM363 215h-229c1 -109 52 -139 109 -139c35 0 65 8 87 18l15 -77c-30 -14 -77 -23 -122 -23c-125 0 -193 91 -193 242c0 161 78 259 182 259c102 0 154 -93 154 -223c0 -28 -2 -44 -3 -57zM135 291h132c1 78 -25 124 -63 124
c-46 0 -67 -67 -69 -124z" />
    <glyph glyph-name="Ebreve" unicode="&#x114;" horiz-adv-x="376" 
d="M326 396v-89h-160v-214h182v-93h-289v674h277v-93h-170v-185h160zM85 819h59c3 -26 23 -43 55 -43s52 15 56 43h59c0 -64 -40 -107 -114 -107c-75 0 -115 41 -115 107z" />
    <glyph glyph-name="ebreve" unicode="&#x115;" horiz-adv-x="394" 
d="M91 675h55c3 -36 26 -57 57 -57c38 0 59 25 59 57h55c2 -70 -44 -121 -115 -121c-70 0 -113 53 -111 121zM363 215h-229c1 -109 52 -139 109 -139c35 0 65 8 87 18l15 -77c-30 -14 -77 -23 -122 -23c-125 0 -193 91 -193 242c0 161 78 259 182 259
c102 0 154 -93 154 -223c0 -28 -2 -44 -3 -57zM135 291h132c1 78 -25 124 -63 124c-46 0 -67 -67 -69 -124z" />
    <glyph glyph-name="Edotaccent" unicode="&#x116;" horiz-adv-x="376" 
d="M326 396v-89h-160v-214h182v-93h-289v674h277v-93h-170v-185h160zM199 720h-1c-29 0 -54 26 -54 56s25 55 55 55s54 -25 54 -55s-24 -56 -54 -56z" />
    <glyph glyph-name="edotaccent" unicode="&#x117;" horiz-adv-x="394" 
d="M206 563h-1c-29 0 -52 23 -52 55s24 55 53 55s52 -22 52 -55c0 -32 -22 -55 -52 -55zM363 215h-229c1 -109 52 -139 109 -139c35 0 65 8 87 18l15 -77c-30 -14 -77 -23 -122 -23c-125 0 -193 91 -193 242c0 161 78 259 182 259c102 0 154 -93 154 -223
c0 -28 -2 -44 -3 -57zM135 291h132c1 78 -25 124 -63 124c-46 0 -67 -67 -69 -124z" />
    <glyph glyph-name="Eogonek" unicode="&#x118;" horiz-adv-x="376" 
d="M344 -125l13 -55c-26 -18 -59 -24 -86 -24c-54 0 -86 33 -86 82c0 48 36 93 73 122h-199v674h277v-93h-170v-185h160v-89h-160v-214h182v-93c-5 0 -9 -1 -14 -2c-41 -29 -70 -63 -70 -94c0 -25 18 -36 38 -36c15 0 30 2 42 7z" />
    <glyph glyph-name="eogonek" unicode="&#x119;" horiz-adv-x="394" 
d="M305 -119l19 -54c-28 -23 -61 -29 -86 -29c-58 0 -88 33 -88 79c0 47 37 91 71 116v1h-4c-121 3 -187 93 -187 242c0 161 78 259 182 259c102 0 154 -93 154 -223c0 -28 -2 -45 -3 -57h-229c1 -109 52 -139 109 -139c35 0 65 8 87 18l15 -77c-12 -5 -26 -10 -33 -12
c-49 -28 -85 -70 -85 -103c0 -24 16 -34 32 -34s32 5 46 13zM135 291h132c1 78 -25 124 -63 124c-46 0 -67 -67 -69 -124z" />
    <glyph glyph-name="Ecaron" unicode="&#x11a;" horiz-adv-x="376" 
d="M326 396v-89h-160v-214h182v-93h-289v674h277v-93h-170v-185h160zM242 710h-86l-85 104h83l44 -55h2l45 55h81z" />
    <glyph glyph-name="ecaron" unicode="&#x11b;" horiz-adv-x="394" 
d="M239 548h-74l-82 138h75l43 -83h2l43 83h76zM363 215h-229c1 -109 52 -139 109 -139c35 0 65 8 87 18l15 -77c-30 -14 -77 -23 -122 -23c-125 0 -193 91 -193 242c0 161 78 259 182 259c102 0 154 -93 154 -223c0 -28 -2 -44 -3 -57zM135 291h132c1 78 -25 124 -63 124
c-46 0 -67 -67 -69 -124z" />
    <glyph glyph-name="Gcircumflex" unicode="&#x11c;" horiz-adv-x="456" 
d="M414 366v-348c-29 -12 -85 -24 -131 -24c-69 0 -126 19 -171 66c-53 55 -85 151 -84 271c2 253 140 349 272 349c47 0 83 -9 104 -20l-21 -92c-18 10 -43 16 -77 16c-87 0 -167 -64 -167 -254c0 -183 70 -245 140 -245c18 0 30 2 36 5v189h-72v87h171zM219 814h86
l86 -104h-84l-44 53h-2l-45 -53h-81z" />
    <glyph glyph-name="gcircumflex" unicode="&#x11d;" horiz-adv-x="425" 
d="M178 686h73l83 -138h-75l-43 83h-2l-43 -83h-76zM377 334v-276c0 -115 -18 -168 -54 -205c-33 -34 -82 -53 -145 -53c-44 0 -85 9 -116 23l22 83c22 -11 53 -21 92 -21c64 0 95 41 95 132v38h-2c-17 -34 -52 -53 -90 -53c-99 0 -148 110 -148 238c0 170 77 255 159 255
c44 0 73 -27 90 -60h2l6 52h94c-3 -40 -5 -88 -5 -153zM271 178v136c0 12 -2 25 -5 35c-7 27 -22 55 -54 55c-51 0 -75 -68 -75 -161c0 -105 32 -156 73 -156c20 0 43 10 55 51c5 13 6 27 6 40z" />
    <glyph glyph-name="Gbreve" unicode="&#x11e;" horiz-adv-x="456" 
d="M414 366v-348c-29 -12 -85 -24 -131 -24c-69 0 -126 19 -171 66c-53 55 -85 151 -84 271c2 253 140 349 272 349c47 0 83 -9 104 -20l-21 -92c-18 10 -43 16 -77 16c-87 0 -167 -64 -167 -254c0 -183 70 -245 140 -245c18 0 30 2 36 5v189h-72v87h171zM151 817h59
c3 -26 23 -43 55 -43s52 15 56 43h59c0 -64 -40 -107 -114 -107c-75 0 -115 41 -115 107z" />
    <glyph glyph-name="gbreve" unicode="&#x11f;" horiz-adv-x="425" 
d="M105 675h55c3 -36 26 -57 57 -57c38 0 59 25 59 57h55c2 -70 -44 -121 -115 -121c-70 0 -113 53 -111 121zM377 334v-276c0 -115 -18 -168 -54 -205c-33 -34 -82 -53 -145 -53c-44 0 -85 9 -116 23l22 83c22 -11 53 -21 92 -21c64 0 95 41 95 132v38h-2
c-17 -34 -52 -53 -90 -53c-99 0 -148 110 -148 238c0 170 77 255 159 255c44 0 73 -27 90 -60h2l6 52h94c-3 -40 -5 -88 -5 -153zM271 178v136c0 12 -2 25 -5 35c-7 27 -22 55 -54 55c-51 0 -75 -68 -75 -161c0 -105 32 -156 73 -156c20 0 43 10 55 51c5 13 6 27 6 40z" />
    <glyph glyph-name="Gdotaccent" unicode="&#x120;" horiz-adv-x="456" 
d="M414 366v-348c-29 -12 -85 -24 -131 -24c-69 0 -126 19 -171 66c-53 55 -85 151 -84 271c2 253 140 349 272 349c47 0 83 -9 104 -20l-21 -92c-18 10 -43 16 -77 16c-87 0 -167 -64 -167 -254c0 -183 70 -245 140 -245c18 0 30 2 36 5v189h-72v87h171zM265 716h-1
c-29 0 -54 26 -54 56s25 55 55 55s54 -25 54 -55s-24 -56 -54 -56z" />
    <glyph glyph-name="gdotaccent" unicode="&#x121;" horiz-adv-x="425" 
d="M217 563h-1c-29 0 -52 23 -52 55s24 55 53 55s52 -22 52 -55c0 -32 -22 -55 -52 -55zM377 334v-276c0 -115 -18 -168 -54 -205c-33 -34 -82 -53 -145 -53c-44 0 -85 9 -116 23l22 83c22 -11 53 -21 92 -21c64 0 95 41 95 132v38h-2c-17 -34 -52 -53 -90 -53
c-99 0 -148 110 -148 238c0 170 77 255 159 255c44 0 73 -27 90 -60h2l6 52h94c-3 -40 -5 -88 -5 -153zM271 178v136c0 12 -2 25 -5 35c-7 27 -22 55 -54 55c-51 0 -75 -68 -75 -161c0 -105 32 -156 73 -156c20 0 43 10 55 51c5 13 6 27 6 40z" />
    <glyph glyph-name="Gcommaaccent" unicode="&#x122;" horiz-adv-x="456" 
d="M414 366v-348c-29 -12 -85 -24 -131 -24c-69 0 -126 19 -171 66c-53 55 -85 151 -84 271c2 253 140 349 272 349c47 0 83 -9 104 -20l-21 -92c-18 10 -43 16 -77 16c-87 0 -167 -64 -167 -254c0 -183 70 -245 140 -245c18 0 30 2 36 5v189h-72v87h171zM206 -220l-19 49
c27 8 61 26 61 56c0 25 -18 48 -33 61l80 13c17 -12 36 -37 36 -72c0 -67 -59 -99 -125 -107z" />
    <glyph glyph-name="gcommaaccent" unicode="&#x123;" horiz-adv-x="425" 
d="M377 334v-276c0 -115 -18 -168 -54 -205c-33 -34 -82 -53 -145 -53c-44 0 -85 9 -116 23l22 83c22 -11 53 -21 92 -21c64 0 95 41 95 132v38h-2c-17 -34 -52 -53 -90 -53c-99 0 -148 110 -148 238c0 170 77 255 159 255c44 0 73 -27 90 -60h2l6 52h94
c-3 -40 -5 -88 -5 -153zM271 178v136c0 12 -2 25 -5 35c-7 27 -22 55 -54 55c-51 0 -75 -68 -75 -161c0 -105 32 -156 73 -156c20 0 43 10 55 51c5 13 6 27 6 40zM280 713l19 -44c-36 -8 -67 -26 -67 -60c0 -27 18 -49 36 -62l-77 -12c-17 13 -36 40 -36 71
c0 69 59 99 125 107z" />
    <glyph glyph-name="Hcircumflex" unicode="&#x124;" horiz-adv-x="492" 
d="M59 674h107v-279h160v279h107v-674h-107v297h-160v-297h-107v674zM203 814h86l86 -104h-84l-44 53h-2l-45 -53h-81z" />
    <glyph glyph-name="hcircumflex" unicode="&#x125;" horiz-adv-x="434" 
d="M49 0v692h107v-257h2c11 17 26 32 42 42c18 11 39 18 65 18c77 0 120 -64 120 -187v-308h-107v304c0 53 -11 101 -56 101c-28 0 -51 -19 -62 -60c-2 -9 -4 -25 -4 -37v-308h-107zM61 827h86l86 -104h-84l-44 53h-2l-45 -53h-81z" />
    <glyph glyph-name="Hbar" unicode="&#x126;" horiz-adv-x="492" 
d="M478 476h-45v-476h-107v283h-160v-283h-107v476h-45v73h45v125h107v-125h160v125h107v-125h45v-73zM326 382v94h-160v-94h160z" />
    <glyph glyph-name="hbar" unicode="&#x127;" horiz-adv-x="434" 
d="M385 0h-107v304c0 53 -11 101 -56 101c-28 0 -51 -19 -62 -60c-2 -9 -4 -25 -4 -37v-308h-107v537h-60v69h60v86h107v-86h133v-69h-133v-102h2c11 17 26 32 42 42c18 11 39 18 65 18c77 0 120 -64 120 -187v-308z" />
    <glyph glyph-name="Itilde" unicode="&#x128;" horiz-adv-x="226" 
d="M59 674h107v-674h-107v674zM51 718h-51c-2 66 23 106 63 106c21 0 36 -9 50 -17c14 -9 26 -18 38 -18c15 0 22 9 25 37h50c2 -71 -20 -103 -66 -103c-21 0 -38 8 -51 16c-14 9 -24 16 -36 16s-20 -12 -22 -37z" />
    <glyph glyph-name="itilde" unicode="&#x129;" horiz-adv-x="205" 
d="M39 559h-52c0 59 22 107 67 107c22 0 38 -10 54 -18c13 -8 24 -16 38 -16c13 0 22 6 23 36h50c0 -68 -24 -102 -67 -102c-19 0 -37 9 -51 16c-15 8 -25 17 -38 17c-14 0 -23 -14 -24 -40zM156 0h-107v487h107v-487z" />
    <glyph glyph-name="Imacron" unicode="&#x12a;" horiz-adv-x="226" 
d="M59 674h107v-674h-107v674zM1 803h225v-67h-225v67z" />
    <glyph glyph-name="imacron" unicode="&#x12b;" horiz-adv-x="205" 
d="M1 645h205v-64h-205v64zM156 0h-107v487h107v-487z" />
    <glyph glyph-name="Ibreve" unicode="&#x12c;" horiz-adv-x="226" 
d="M59 674h107v-674h-107v674zM-2 821h59c3 -26 23 -43 55 -43s52 15 56 43h59c0 -64 -40 -107 -114 -107c-75 0 -115 41 -115 107z" />
    <glyph glyph-name="ibreve" unicode="&#x12d;" horiz-adv-x="205" 
d="M-10 675h55c3 -36 26 -57 57 -57c38 0 59 25 59 57h55c2 -70 -44 -121 -115 -121c-70 0 -113 53 -111 121zM156 0h-107v487h107v-487z" />
    <glyph glyph-name="Iogonek" unicode="&#x12e;" horiz-adv-x="226" 
d="M166 674v-674h-38c-15 -23 -32 -58 -32 -89c0 -30 19 -45 40 -45c19 0 31 3 41 7l14 -56c-27 -18 -57 -23 -81 -23c-59 0 -92 35 -92 88c0 51 29 96 41 118v674h107z" />
    <glyph glyph-name="iogonek" unicode="&#x12f;" horiz-adv-x="205" 
d="M101 553h-1c-31 0 -56 25 -55 61c-1 38 25 62 57 62c33 0 57 -24 57 -62c1 -36 -24 -61 -58 -61zM156 487v-487h-38c-15 -23 -32 -58 -32 -90c0 -27 19 -44 41 -44c18 0 31 3 40 7l14 -56c-27 -18 -57 -23 -81 -23c-59 0 -91 35 -91 90c0 49 28 94 40 116v487h107z" />
    <glyph glyph-name="Idotaccent" unicode="&#x130;" horiz-adv-x="226" 
d="M59 674h107v-674h-107v674zM114 720h-1c-29 0 -54 26 -54 56s25 55 55 55s54 -25 54 -55s-24 -56 -54 -56z" />
    <glyph glyph-name="dotlessi" unicode="&#x131;" horiz-adv-x="205" 
d="M156 0h-107v487h107v-487z" />
    <glyph glyph-name="IJ" unicode="&#x132;" horiz-adv-x="508" 
d="M59 674h107v-674h-107v674zM350 200v474h107v-470c0 -175 -80 -212 -175 -212c-24 0 -46 3 -59 8l9 90c11 -3 24 -4 40 -4c45 0 78 18 78 114z" />
    <glyph glyph-name="ij" unicode="&#x133;" horiz-adv-x="414" 
d="M156 0h-107v487h107v-487zM102 676c33 0 57 -24 57 -62c1 -36 -24 -61 -59 -61c-31 0 -56 25 -55 61c-1 38 25 62 57 62zM181 -200l-10 85c23 4 48 10 64 31c18 23 23 58 23 141v430h107v-454c0 -105 -19 -155 -58 -190c-33 -28 -87 -42 -126 -43zM312 676
c32 0 57 -24 57 -62c0 -36 -25 -61 -59 -61c-32 0 -57 25 -56 61c-1 38 26 62 58 62z" />
    <glyph glyph-name="Jcircumflex" unicode="&#x134;" horiz-adv-x="282" 
d="M124 200v474h107v-470c0 -175 -80 -212 -175 -212c-24 0 -46 3 -59 8l9 90c11 -3 24 -4 40 -4c45 0 78 18 78 114zM131 814h86l86 -104h-84l-44 53h-2l-45 -53h-81z" />
    <glyph glyph-name="jcircumflex" unicode="&#x135;" horiz-adv-x="208" 
d="M-24 -200l-10 85c23 4 48 10 64 31c18 23 23 58 23 141v430h107v-454c0 -105 -19 -155 -58 -190c-33 -28 -87 -42 -126 -43zM68 682h73l83 -138h-75l-43 83h-2l-43 -83h-76z" />
    <glyph glyph-name="Kcommaaccent" unicode="&#x136;" horiz-adv-x="434" 
d="M59 0v674h106v-311h3c13 28 24 57 37 85l106 226h117l-157 -291l161 -383h-117l-116 300l-34 -60v-240h-106zM167 -216l-19 49c27 8 61 26 61 56c0 25 -18 48 -33 61l80 13c17 -12 36 -37 36 -72c0 -67 -59 -99 -125 -107z" />
    <glyph glyph-name="kcommaaccent" unicode="&#x137;" horiz-adv-x="386" 
d="M155 692v-424h2c9 24 17 43 25 62l78 157h116l-123 -204l131 -283h-119l-85 213l-25 -43v-170h-106v692h106zM137 -220l-19 49c27 8 61 26 61 56c0 25 -18 48 -33 61l80 13c17 -12 36 -37 36 -72c0 -67 -59 -99 -125 -107z" />
    <glyph glyph-name="kgreenlandic" unicode="&#x138;" horiz-adv-x="386" 
d="M155 487v-219h2c9 24 17 43 25 62l78 157h116l-123 -204l131 -283h-119l-85 213l-25 -43v-170h-106v487h106z" />
    <glyph glyph-name="Lacute" unicode="&#x139;" horiz-adv-x="364" 
d="M59 0v674h107v-584h180v-90h-287zM158 821h114l-123 -111h-79z" />
    <glyph glyph-name="lacute" unicode="&#x13a;" horiz-adv-x="210" 
d="M49 0v692h107v-692h-107zM138 834h114l-123 -111h-79z" />
    <glyph glyph-name="Lcommaaccent" unicode="&#x13b;" horiz-adv-x="364" 
d="M59 0v674h107v-584h180v-90h-287zM127 -220l-19 49c27 8 61 26 61 56c0 25 -18 48 -33 61l80 13c17 -12 36 -37 36 -72c0 -67 -59 -99 -125 -107z" />
    <glyph glyph-name="lcommaaccent" unicode="&#x13c;" horiz-adv-x="210" 
d="M49 0v692h107v-692h-107zM46 -220l-19 49c27 8 61 26 61 56c0 25 -18 48 -33 61l80 13c17 -12 36 -37 36 -72c0 -67 -59 -99 -125 -107z" />
    <glyph glyph-name="Lcaron" unicode="&#x13d;" horiz-adv-x="364" 
d="M59 0v674h107v-584h180v-90h-287zM220 496l-19 49c27 8 61 26 61 56c0 25 -18 48 -33 61l80 13c17 -12 36 -37 36 -72c0 -67 -59 -99 -125 -107z" />
    <glyph glyph-name="lcaron" unicode="&#x13e;" horiz-adv-x="215" 
d="M49 0v692h107v-692h-107zM238 498l-42 30c13 18 30 52 30 88c0 30 -15 54 -30 68l71 12c17 -12 33 -38 33 -73c0 -65 -44 -108 -62 -125z" />
    <glyph glyph-name="Ldot" unicode="&#x13f;" horiz-adv-x="364" 
d="M59 0v674h107v-584h180v-90h-287zM271 307h-1c-29 0 -54 26 -54 56s25 55 55 55s54 -25 54 -55s-24 -56 -54 -56z" />
    <glyph glyph-name="ldot" unicode="&#x140;" horiz-adv-x="282" 
d="M49 0v692h107v-692h-107zM246 352h-1c-27 0 -49 23 -49 54s23 54 50 54s48 -22 48 -54c0 -31 -20 -54 -48 -54z" />
    <glyph glyph-name="Lslash" unicode="&#x141;" horiz-adv-x="368" 
d="M350 0h-287v244l-63 -55v92l63 56v337h107v-259l99 85v-93l-99 -85v-232h180v-90z" />
    <glyph glyph-name="lslash" unicode="&#x142;" horiz-adv-x="214" 
d="M160 0h-106v285l-58 -55v91l58 55v316h106v-247l60 56v-91l-60 -56v-354z" />
    <glyph glyph-name="Nacute" unicode="&#x143;" horiz-adv-x="493" 
d="M154 0h-95v674h99l113 -288c23 -61 57 -148 78 -213h2c-5 86 -11 190 -11 311v190h94v-674h-99l-114 287c-24 62 -54 143 -73 214h-2c4 -78 8 -173 8 -313v-188zM289 821h114l-123 -111h-79z" />
    <glyph glyph-name="nacute" unicode="&#x144;" horiz-adv-x="434" 
d="M250 686h99l-103 -138h-68zM49 0v350c0 55 -2 94 -4 137h93l5 -57h2c23 39 64 65 115 65c82 0 125 -63 125 -176v-319h-107v309c0 48 -10 96 -57 96c-26 0 -50 -20 -60 -60c-3 -10 -5 -26 -5 -44v-301h-107z" />
    <glyph glyph-name="Ncommaaccent" unicode="&#x145;" horiz-adv-x="493" 
d="M154 0h-95v674h99l113 -288c23 -61 57 -148 78 -213h2c-5 86 -11 190 -11 311v190h94v-674h-99l-114 287c-24 62 -54 143 -73 214h-2c4 -78 8 -173 8 -313v-188zM186 -214l-19 49c27 8 61 26 61 56c0 25 -18 48 -33 61l80 13c17 -12 36 -37 36 -72
c0 -67 -59 -99 -125 -107z" />
    <glyph glyph-name="ncommaaccent" unicode="&#x146;" horiz-adv-x="434" 
d="M49 0v350c0 55 -2 94 -4 137h93l5 -57h2c23 39 64 65 115 65c82 0 125 -63 125 -176v-319h-107v309c0 48 -10 96 -57 96c-26 0 -50 -20 -60 -60c-3 -10 -5 -26 -5 -44v-301h-107zM162 -217l-19 49c27 8 61 26 61 56c0 25 -18 48 -33 61l80 13c17 -12 36 -37 36 -72
c0 -67 -59 -99 -125 -107z" />
    <glyph glyph-name="Ncaron" unicode="&#x147;" horiz-adv-x="493" 
d="M154 0h-95v674h99l113 -288c23 -61 57 -148 78 -213h2c-5 86 -11 190 -11 311v190h94v-674h-99l-114 287c-24 62 -54 143 -73 214h-2c4 -78 8 -173 8 -313v-188zM290 710h-86l-85 104h83l44 -55h2l45 55h81z" />
    <glyph glyph-name="ncaron" unicode="&#x148;" horiz-adv-x="434" 
d="M254 548h-74l-82 138h75l43 -83h2l43 83h76zM49 0v350c0 55 -2 94 -4 137h93l5 -57h2c23 39 64 65 115 65c82 0 125 -63 125 -176v-319h-107v309c0 48 -10 96 -57 96c-26 0 -50 -20 -60 -60c-3 -10 -5 -26 -5 -44v-301h-107z" />
    <glyph glyph-name="napostrophe" unicode="&#x149;" horiz-adv-x="434" 
d="M49 0v350c0 55 -2 94 -4 137h93l5 -57h2c23 39 64 65 115 65c82 0 125 -63 125 -176v-319h-107v309c0 48 -10 96 -57 96c-26 0 -50 -20 -60 -60c-3 -10 -5 -26 -5 -44v-301h-107zM53 523l-48 27c13 17 30 47 30 80c0 27 -15 49 -30 60l76 11c17 -10 34 -34 34 -65
c0 -58 -45 -97 -62 -113z" />
    <glyph glyph-name="Eng" unicode="&#x14a;" horiz-adv-x="493" 
d="M154 0h-95v674h99l113 -288c23 -61 57 -148 78 -213h2c-5 86 -11 190 -11 311v190h94v-647c0 -120 -43 -200 -155 -222l-26 81c55 16 84 49 85 103l-117 298c-24 62 -54 143 -73 214h-2c4 -78 8 -173 8 -313v-188z" />
    <glyph glyph-name="eng" unicode="&#x14b;" horiz-adv-x="434" 
d="M49 0v350c0 55 -2 94 -4 137h93l5 -57h2c23 39 64 65 115 65c82 0 125 -63 125 -176v-285c0 -144 -70 -201 -157 -216l-23 83c45 11 73 38 73 121v287c0 48 -10 96 -57 96c-26 0 -50 -20 -60 -60c-3 -10 -5 -26 -5 -44v-301h-107z" />
    <glyph glyph-name="Omacron" unicode="&#x14c;" horiz-adv-x="465" 
d="M239 682c142 0 198 -155 198 -336c0 -254 -89 -354 -208 -354c-134 0 -201 143 -201 346c0 202 76 344 211 344zM234 589c-67 0 -95 -111 -95 -252c0 -147 28 -252 96 -252c69 0 91 121 91 256c0 122 -20 248 -92 248zM121 803h225v-67h-225v67z" />
    <glyph glyph-name="omacron" unicode="&#x14d;" horiz-adv-x="410" 
d="M103 645h205v-64h-205v64zM208 495c102 0 171 -90 171 -250c0 -197 -101 -253 -175 -253c-103 0 -174 86 -174 250c0 176 87 253 178 253zM206 412c-58 0 -69 -97 -69 -168c0 -82 14 -170 71 -170c53 0 65 97 65 170c0 71 -12 168 -67 168z" />
    <glyph glyph-name="Obreve" unicode="&#x14e;" horiz-adv-x="465" 
d="M239 682c142 0 198 -155 198 -336c0 -254 -89 -354 -208 -354c-134 0 -201 143 -201 346c0 202 76 344 211 344zM234 589c-67 0 -95 -111 -95 -252c0 -147 28 -252 96 -252c69 0 91 121 91 256c0 122 -20 248 -92 248zM117 821h59c3 -26 23 -43 55 -43s52 15 56 43h59
c0 -64 -40 -107 -114 -107c-75 0 -115 41 -115 107z" />
    <glyph glyph-name="obreve" unicode="&#x14f;" horiz-adv-x="410" 
d="M91 675h55c3 -36 26 -57 57 -57c38 0 59 25 59 57h55c2 -70 -44 -121 -115 -121c-70 0 -113 53 -111 121zM208 495c102 0 171 -90 171 -250c0 -197 -101 -253 -175 -253c-103 0 -174 86 -174 250c0 176 87 253 178 253zM206 412c-58 0 -69 -97 -69 -168
c0 -82 14 -170 71 -170c53 0 65 97 65 170c0 71 -12 168 -67 168z" />
    <glyph glyph-name="Ohungarumlaut" unicode="&#x150;" horiz-adv-x="465" 
d="M239 682c142 0 198 -155 198 -336c0 -254 -89 -354 -208 -354c-134 0 -201 143 -201 346c0 202 76 344 211 344zM234 589c-67 0 -95 -111 -95 -252c0 -147 28 -252 96 -252c69 0 91 121 91 256c0 122 -20 248 -92 248zM197 821h96l-96 -105h-64zM335 821h96l-96 -105h-64
z" />
    <glyph glyph-name="ohungarumlaut" unicode="&#x151;" horiz-adv-x="410" 
d="M181 686h84l-102 -138h-57zM313 686h83l-102 -138h-56zM208 495c102 0 171 -90 171 -250c0 -197 -101 -253 -175 -253c-103 0 -174 86 -174 250c0 176 87 253 178 253zM206 412c-58 0 -69 -97 -69 -168c0 -82 14 -170 71 -170c53 0 65 97 65 170c0 71 -12 168 -67 168z
" />
    <glyph glyph-name="OE" unicode="&#x152;" horiz-adv-x="632" 
d="M604 93v-93h-256c-13 -1 -27 -2 -39 -4c-13 -2 -27 -4 -39 -4c-189 0 -242 169 -242 344c0 208 90 346 249 346c15 0 28 -2 41 -4s25 -3 36 -4h238v-93h-170v-185h160v-89h-160v-214h182zM315 93v485c-11 7 -25 11 -48 11c-61 0 -129 -67 -128 -250
c-1 -187 61 -254 133 -254c16 0 34 3 43 8z" />
    <glyph glyph-name="oe" unicode="&#x153;" horiz-adv-x="640" 
d="M610 218h-229c4 -112 51 -144 108 -144c36 0 65 9 89 18l16 -73c-37 -22 -82 -27 -122 -27c-59 0 -115 27 -142 91h-2c-25 -64 -80 -91 -129 -91c-97 0 -169 87 -169 250c0 174 87 253 177 253c51 0 102 -27 125 -90h2c29 58 74 90 132 90c96 0 147 -96 147 -223
c0 -25 -1 -43 -3 -54zM208 412h-1c-60 0 -70 -102 -70 -169c0 -81 14 -169 72 -169c60 0 70 91 70 171c0 73 -12 167 -71 167zM383 290h130c2 77 -22 124 -58 124c-48 0 -71 -65 -72 -124z" />
    <glyph glyph-name="Racute" unicode="&#x154;" horiz-adv-x="443" 
d="M59 0v664c37 9 84 13 129 13c69 0 127 -12 167 -49c37 -36 51 -81 51 -137c0 -78 -38 -139 -106 -170v-2c47 -17 72 -62 85 -142c15 -82 31 -154 42 -177h-111c-9 19 -23 85 -35 164c-13 87 -38 116 -91 116h-25v-280h-106zM165 589v-227h28c64 0 104 50 104 119
c0 66 -26 111 -96 112c-13 0 -27 -1 -36 -4zM248 821h114l-123 -111h-79z" />
    <glyph glyph-name="racute" unicode="&#x155;" horiz-adv-x="273" 
d="M177 686h99l-103 -138h-68zM49 0v350c0 45 -3 95 -4 137h93l6 -74h3c19 50 59 82 99 82c10 0 16 -1 22 -2v-107c-6 2 -13 2 -22 2c-37 0 -75 -31 -86 -84c-3 -12 -4 -28 -4 -47v-257h-107z" />
    <glyph glyph-name="Rcommaaccent" unicode="&#x156;" horiz-adv-x="443" 
d="M59 0v664c37 9 84 13 129 13c69 0 127 -12 167 -49c37 -36 51 -81 51 -137c0 -78 -38 -139 -106 -170v-2c47 -17 72 -62 85 -142c15 -82 31 -154 42 -177h-111c-9 19 -23 85 -35 164c-13 87 -38 116 -91 116h-25v-280h-106zM165 589v-227h28c64 0 104 50 104 119
c0 66 -26 111 -96 112c-13 0 -27 -1 -36 -4zM165 -216l-19 49c27 8 61 26 61 56c0 25 -18 48 -33 61l80 13c17 -12 36 -37 36 -72c0 -67 -59 -99 -125 -107z" />
    <glyph glyph-name="rcommaaccent" unicode="&#x157;" horiz-adv-x="273" 
d="M49 0v350c0 45 -3 95 -4 137h93l6 -74h3c19 50 59 82 99 82c10 0 16 -1 22 -2v-107c-6 2 -13 2 -22 2c-37 0 -75 -31 -86 -84c-3 -12 -4 -28 -4 -47v-257h-107zM63 -220l-19 49c27 8 61 26 61 56c0 25 -18 48 -33 61l80 13c17 -12 36 -37 36 -72c0 -67 -59 -99 -125 -107
z" />
    <glyph glyph-name="Rcaron" unicode="&#x158;" horiz-adv-x="443" 
d="M59 0v664c37 9 84 13 129 13c69 0 127 -12 167 -49c37 -36 51 -81 51 -137c0 -78 -38 -139 -106 -170v-2c47 -17 72 -62 85 -142c15 -82 31 -154 42 -177h-111c-9 19 -23 85 -35 164c-13 87 -38 116 -91 116h-25v-280h-106zM165 589v-227h28c64 0 104 50 104 119
c0 66 -26 111 -96 112c-13 0 -27 -1 -36 -4zM260 710h-86l-85 104h83l44 -55h2l45 55h81z" />
    <glyph glyph-name="rcaron" unicode="&#x159;" horiz-adv-x="273" 
d="M184 548h-74l-82 138h75l43 -83h2l43 83h76zM49 0v350c0 45 -3 95 -4 137h93l6 -74h3c19 50 59 82 99 82c10 0 16 -1 22 -2v-107c-6 2 -13 2 -22 2c-37 0 -75 -31 -86 -84c-3 -12 -4 -28 -4 -47v-257h-107z" />
    <glyph glyph-name="Sacute" unicode="&#x15a;" horiz-adv-x="379" 
d="M26 22l18 92c25 -15 69 -27 104 -27c66 0 102 39 102 94c0 54 -33 85 -88 123c-75 48 -127 115 -127 188c0 105 71 188 197 188c43 0 83 -13 101 -24l-20 -92c-18 12 -47 23 -83 23c-61 0 -90 -41 -90 -82c0 -52 27 -76 96 -120c85 -56 119 -121 119 -193
c0 -121 -86 -198 -207 -198c-51 0 -101 14 -122 28zM227 821h114l-123 -111h-79z" />
    <glyph glyph-name="sacute" unicode="&#x15b;" horiz-adv-x="308" 
d="M187 686h99l-103 -138h-68zM20 22l21 79c18 -12 52 -26 84 -26c38 0 61 21 61 56c0 30 -14 50 -59 79c-72 43 -99 90 -99 139c0 84 62 146 149 146c40 0 70 -11 94 -24l-22 -79c-19 12 -41 21 -67 21c-37 0 -55 -24 -55 -51c0 -26 12 -41 59 -71c65 -39 99 -87 99 -147
c0 -99 -69 -150 -161 -150c-38 0 -82 11 -104 28z" />
    <glyph glyph-name="Scircumflex" unicode="&#x15c;" horiz-adv-x="379" 
d="M26 22l18 92c25 -15 69 -27 104 -27c66 0 102 39 102 94c0 54 -33 85 -88 123c-75 48 -127 115 -127 188c0 105 71 188 197 188c43 0 83 -13 101 -24l-20 -92c-18 12 -47 23 -83 23c-61 0 -90 -41 -90 -82c0 -52 27 -76 96 -120c85 -56 119 -121 119 -193
c0 -121 -86 -198 -207 -198c-51 0 -101 14 -122 28zM154 814h86l86 -104h-84l-44 53h-2l-45 -53h-81z" />
    <glyph glyph-name="scircumflex" unicode="&#x15d;" horiz-adv-x="308" 
d="M118 686h73l83 -138h-75l-43 83h-2l-43 -83h-76zM20 22l21 79c18 -12 52 -26 84 -26c38 0 61 21 61 56c0 30 -14 50 -59 79c-72 43 -99 90 -99 139c0 84 62 146 149 146c40 0 70 -11 94 -24l-22 -79c-19 12 -41 21 -67 21c-37 0 -55 -24 -55 -51c0 -26 12 -41 59 -71
c65 -39 99 -87 99 -147c0 -99 -69 -150 -161 -150c-38 0 -82 11 -104 28z" />
    <glyph glyph-name="Scedilla" unicode="&#x15e;" horiz-adv-x="379" 
d="M26 22l18 92c25 -15 69 -27 104 -27c66 0 102 39 102 94c0 54 -33 85 -88 123c-75 48 -127 115 -127 188c0 105 71 188 197 188c43 0 83 -13 101 -24l-20 -92c-18 12 -47 23 -83 23c-61 0 -90 -41 -90 -82c0 -52 27 -76 96 -120c85 -56 119 -121 119 -193
c0 -96 -55 -165 -138 -189l-25 -50c34 -5 66 -33 66 -72c0 -60 -51 -83 -102 -83c-26 0 -53 7 -71 18l17 50c16 -9 34 -15 52 -15c16 0 34 7 34 28c0 23 -28 36 -69 40l34 75h-5c-51 0 -101 14 -122 28z" />
    <glyph glyph-name="scedilla" unicode="&#x15f;" horiz-adv-x="308" 
d="M20 22l21 79c18 -12 52 -26 84 -26c38 0 61 21 61 56c0 30 -14 50 -59 79c-72 43 -99 90 -99 139c0 84 62 146 149 146c40 0 70 -11 94 -24l-22 -79c-19 12 -41 21 -67 21c-37 0 -55 -24 -55 -51c0 -26 12 -41 59 -71c65 -39 99 -87 99 -147c0 -77 -42 -124 -103 -142
l-24 -49c34 -5 66 -33 66 -72c0 -60 -51 -83 -102 -83c-26 0 -53 7 -71 18l17 50c16 -9 34 -15 52 -15c17 0 34 7 34 27c0 23 -27 37 -69 41l34 75h-3c-25 0 -67 8 -96 28z" />
    <glyph glyph-name="Scaron" unicode="&#x160;" horiz-adv-x="379" 
d="M26 22l18 92c25 -15 69 -27 104 -27c66 0 102 39 102 94c0 54 -33 85 -88 123c-75 48 -127 115 -127 188c0 105 71 188 197 188c43 0 83 -13 101 -24l-20 -92c-18 12 -47 23 -83 23c-61 0 -90 -41 -90 -82c0 -52 27 -76 96 -120c85 -56 119 -121 119 -193
c0 -121 -86 -198 -207 -198c-51 0 -101 14 -122 28zM247 710h-86l-85 104h83l44 -55h2l45 55h81z" />
    <glyph glyph-name="scaron" unicode="&#x161;" horiz-adv-x="308" 
d="M192 548h-74l-82 138h75l43 -83h2l43 83h76zM20 22l21 79c18 -12 52 -26 84 -26c38 0 61 21 61 56c0 30 -14 50 -59 79c-72 43 -99 90 -99 139c0 84 62 146 149 146c40 0 70 -11 94 -24l-22 -79c-19 12 -41 21 -67 21c-37 0 -55 -24 -55 -51c0 -26 12 -41 59 -71
c65 -39 99 -87 99 -147c0 -99 -69 -150 -161 -150c-38 0 -82 11 -104 28z" />
    <glyph glyph-name="Tcommaaccent" unicode="&#x162;" horiz-adv-x="376" 
d="M134 0v576h-121v98h350v-98h-122v-576h-107zM127 -220l-19 49c27 8 61 26 61 56c0 25 -18 48 -33 61l80 13c17 -12 36 -37 36 -72c0 -67 -59 -99 -125 -107z" />
    <glyph glyph-name="tcommaaccent" unicode="&#x163;" horiz-adv-x="286" 
d="M70 571l107 37v-121h94v-78h-94v-252c0 -60 23 -75 50 -75c12 0 22 1 33 3l2 -83c-16 -5 -40 -8 -70 -8c-34 0 -65 9 -86 30c-24 24 -36 60 -36 132v253h-58v78h58v84zM92 -220l-19 49c27 8 61 26 61 56c0 25 -18 48 -33 61l80 13c17 -12 36 -37 36 -72
c0 -67 -59 -99 -125 -107z" />
    <glyph glyph-name="Tcaron" unicode="&#x164;" horiz-adv-x="376" 
d="M134 0v576h-121v98h350v-98h-122v-576h-107zM231 710h-86l-85 104h83l44 -55h2l45 55h81z" />
    <glyph glyph-name="tcaron" unicode="&#x165;" horiz-adv-x="296" 
d="M70 571l107 37v-121h94v-78h-94v-252c0 -60 23 -75 50 -75c12 0 22 1 33 3l2 -83c-16 -5 -40 -8 -70 -8c-34 0 -65 9 -86 30c-24 24 -36 60 -36 132v253h-58v78h58v84zM293 540l-47 27c14 17 29 49 29 82c0 27 -12 50 -25 62l75 11c15 -11 34 -32 34 -67
c0 -59 -47 -99 -66 -115z" />
    <glyph glyph-name="Tbar" unicode="&#x166;" horiz-adv-x="376" 
d="M363 576h-122v-190h82v-75h-82v-311h-107v311h-82v75h82v190h-121v98h350v-98z" />
    <glyph glyph-name="tbar" unicode="&#x167;" horiz-adv-x="286" 
d="M271 409h-94v-91h74v-69h-74v-92c0 -60 23 -75 50 -75c12 0 22 1 33 3l2 -83c-16 -5 -40 -8 -70 -8c-34 0 -65 9 -86 30c-24 24 -36 60 -36 132v93h-56v69h56v91h-58v78h58v84l107 37v-121h94v-78z" />
    <glyph glyph-name="Utilde" unicode="&#x168;" horiz-adv-x="481" 
d="M56 674h107v-444c0 -109 34 -144 77 -144c46 0 77 34 77 144v444h107v-426c0 -174 -68 -256 -185 -256c-123 0 -183 83 -183 251v431zM178 718h-51c-2 66 23 106 63 106c21 0 36 -9 50 -17c14 -9 26 -18 38 -18c15 0 22 9 25 37h50c2 -71 -20 -103 -66 -103
c-21 0 -38 8 -51 16c-14 9 -24 16 -36 16s-20 -12 -22 -37z" />
    <glyph glyph-name="utilde" unicode="&#x169;" horiz-adv-x="428" 
d="M150 559h-52c0 59 22 107 67 107c22 0 38 -10 54 -18c13 -8 24 -16 38 -16c13 0 22 6 23 36h50c0 -68 -24 -102 -67 -102c-19 0 -37 9 -51 16c-15 8 -25 17 -38 17c-14 0 -23 -14 -24 -40zM377 487v-346c0 -52 2 -100 4 -141h-92l-7 51h-2c-19 -29 -57 -59 -109 -59
c-89 0 -124 67 -124 194v301h106v-288c0 -69 13 -118 57 -118c32 0 49 29 54 48c4 11 6 26 6 42v316h107z" />
    <glyph glyph-name="Umacron" unicode="&#x16a;" horiz-adv-x="481" 
d="M56 674h107v-444c0 -109 34 -144 77 -144c46 0 77 34 77 144v444h107v-426c0 -174 -68 -256 -185 -256c-123 0 -183 83 -183 251v431zM127 803h225v-67h-225v67z" />
    <glyph glyph-name="umacron" unicode="&#x16b;" horiz-adv-x="428" 
d="M111 645h205v-64h-205v64zM377 487v-346c0 -52 2 -100 4 -141h-92l-7 51h-2c-19 -29 -57 -59 -109 -59c-89 0 -124 67 -124 194v301h106v-288c0 -69 13 -118 57 -118c32 0 49 29 54 48c4 11 6 26 6 42v316h107z" />
    <glyph glyph-name="Ubreve" unicode="&#x16c;" horiz-adv-x="481" 
d="M56 674h107v-444c0 -109 34 -144 77 -144c46 0 77 34 77 144v444h107v-426c0 -174 -68 -256 -185 -256c-123 0 -183 83 -183 251v431zM125 815h59c3 -26 23 -43 55 -43s52 15 56 43h59c0 -64 -40 -107 -114 -107c-75 0 -115 41 -115 107z" />
    <glyph glyph-name="ubreve" unicode="&#x16d;" horiz-adv-x="428" 
d="M101 675h55c3 -36 26 -57 57 -57c38 0 59 25 59 57h55c2 -70 -44 -121 -115 -121c-70 0 -113 53 -111 121zM377 487v-346c0 -52 2 -100 4 -141h-92l-7 51h-2c-19 -29 -57 -59 -109 -59c-89 0 -124 67 -124 194v301h106v-288c0 -69 13 -118 57 -118c32 0 49 29 54 48
c4 11 6 26 6 42v316h107z" />
    <glyph glyph-name="Uring" unicode="&#x16e;" horiz-adv-x="481" 
d="M56 674h107v-444c0 -109 34 -144 77 -144c46 0 77 34 77 144v444h107v-426c0 -174 -68 -256 -185 -256c-123 0 -183 83 -183 251v431zM240 871h1c67 0 99 -42 99 -90s-35 -90 -100 -90c-67 0 -100 42 -100 88c0 47 34 92 100 92zM239 829h-1c-27 0 -40 -26 -40 -50
c0 -21 13 -45 41 -45c29 0 42 22 42 47c0 24 -13 48 -42 48z" />
    <glyph glyph-name="uring" unicode="&#x16f;" horiz-adv-x="428" 
d="M215 536c-63 0 -99 39 -99 87c0 50 34 92 100 92c62 0 96 -39 96 -90c0 -50 -37 -89 -97 -89zM214 576c32 0 44 25 44 49s-11 50 -45 50c-30 0 -42 -28 -42 -52c0 -20 13 -47 43 -47zM377 487v-346c0 -52 2 -100 4 -141h-92l-7 51h-2c-19 -29 -57 -59 -109 -59
c-89 0 -124 67 -124 194v301h106v-288c0 -69 13 -118 57 -118c32 0 49 29 54 48c4 11 6 26 6 42v316h107z" />
    <glyph glyph-name="Uhungarumlaut" unicode="&#x170;" horiz-adv-x="481" 
d="M56 674h107v-444c0 -109 34 -144 77 -144c46 0 77 34 77 144v444h107v-426c0 -174 -68 -256 -185 -256c-123 0 -183 83 -183 251v431zM194 821h96l-96 -105h-64zM332 821h96l-96 -105h-64z" />
    <glyph glyph-name="uhungarumlaut" unicode="&#x171;" horiz-adv-x="428" 
d="M190 686h84l-102 -138h-57zM322 686h83l-102 -138h-56zM377 487v-346c0 -52 2 -100 4 -141h-92l-7 51h-2c-19 -29 -57 -59 -109 -59c-89 0 -124 67 -124 194v301h106v-288c0 -69 13 -118 57 -118c32 0 49 29 54 48c4 11 6 26 6 42v316h107z" />
    <glyph glyph-name="Uogonek" unicode="&#x172;" horiz-adv-x="481" 
d="M340 -117l13 -56c-25 -17 -56 -25 -80 -25c-59 0 -92 34 -92 82c0 43 27 83 48 110c-3 0 -6 -1 -10 0c-106 8 -163 88 -163 249v431h107v-444c0 -109 34 -144 77 -144c46 0 77 34 77 144v444h107v-426c0 -129 -38 -212 -111 -239c-31 -27 -55 -67 -55 -97
c0 -28 18 -39 38 -39c17 0 31 3 44 10z" />
    <glyph glyph-name="uogonek" unicode="&#x173;" horiz-adv-x="428" 
d="M377 487v-346c0 -52 2 -102 6 -141h-26c-15 -23 -32 -58 -32 -90c0 -27 19 -44 41 -44c18 0 31 3 40 7l14 -56c-27 -18 -56 -23 -81 -23c-59 0 -91 35 -91 90c0 49 28 94 41 116l-7 51h-2c-19 -29 -57 -59 -109 -59c-89 0 -124 67 -124 194v301h106v-288
c0 -69 13 -118 57 -118c32 0 49 29 54 48c4 11 6 26 6 42v316h107z" />
    <glyph glyph-name="Wcircumflex" unicode="&#x174;" horiz-adv-x="668" 
d="M242 0h-104l-122 674h111l44 -294c11 -80 19 -157 28 -240h3c9 85 24 158 39 241l54 293h88l52 -289c14 -78 27 -153 36 -245h2c10 93 20 165 30 243l44 291h104l-124 -674h-109l-51 269c-12 67 -23 143 -31 221h-2c-11 -79 -23 -153 -37 -223zM295 814h86l86 -104h-84
l-44 53h-2l-45 -53h-81z" />
    <glyph glyph-name="wcircumflex" unicode="&#x175;" horiz-adv-x="594" 
d="M261 686h73l83 -138h-75l-43 83h-2l-43 -83h-76zM8 487h114l35 -223c8 -52 16 -103 21 -151h4c7 48 18 103 28 149l49 225h82l47 -219c11 -55 21 -104 28 -155h3c4 49 12 99 21 153l37 221h106l-124 -487h-90l-45 199c-11 47 -19 94 -26 150h-2c-7 -57 -17 -105 -28 -151
l-49 -198h-91z" />
    <glyph glyph-name="Ycircumflex" unicode="&#x176;" horiz-adv-x="398" 
d="M251 0h-107v270l-148 404h114l52 -164c14 -45 29 -97 42 -148h2c10 51 24 101 39 151l48 161h111l-153 -400v-274zM157 814h86l86 -104h-84l-44 53h-2l-45 -53h-81z" />
    <glyph glyph-name="ycircumflex" unicode="&#x177;" horiz-adv-x="370" 
d="M151 686h73l83 -138h-75l-43 83h-2l-43 -83h-76zM8 487h114l56 -265c7 -33 11 -62 16 -90h2c4 26 10 58 16 88l48 267h105l-91 -348c-26 -105 -59 -210 -114 -277c-38 -47 -81 -69 -100 -76l-34 92c22 10 45 27 66 50c19 20 33 46 42 68c4 10 6 16 6 23c0 6 -1 12 -3 18z
" />
    <glyph glyph-name="Ydieresis" unicode="&#x178;" horiz-adv-x="398" 
d="M251 0h-107v270l-148 404h114l52 -164c14 -45 29 -97 42 -148h2c10 51 24 101 39 151l48 161h111l-153 -400v-274zM117 715h-1c-27 0 -50 24 -50 56s23 56 51 56c30 0 52 -24 52 -56s-22 -56 -52 -56zM292 715h-1c-29 0 -52 24 -52 56s24 56 53 56s51 -24 51 -56
s-22 -56 -51 -56z" />
    <glyph glyph-name="Zacute" unicode="&#x179;" horiz-adv-x="374" 
d="M15 0v63l221 516v2h-202v93h322v-77l-214 -501v-3h213v-93h-340zM228 821h114l-123 -111h-79z" />
    <glyph glyph-name="zacute" unicode="&#x17a;" horiz-adv-x="334" 
d="M203 686h99l-103 -138h-68zM17 0v66l135 255c15 26 33 55 43 76v2h-161v88h278v-72l-133 -248c-15 -27 -32 -56 -43 -77v-2h178v-88h-297z" />
    <glyph glyph-name="Zdotaccent" unicode="&#x17b;" horiz-adv-x="374" 
d="M15 0v63l221 516v2h-202v93h322v-77l-214 -501v-3h213v-93h-340zM200 717h-1c-29 0 -54 26 -54 56s25 55 55 55s54 -25 54 -55s-24 -56 -54 -56z" />
    <glyph glyph-name="zdotaccent" unicode="&#x17c;" horiz-adv-x="334" 
d="M170 563h-1c-29 0 -52 23 -52 55s24 55 53 55s52 -22 52 -55c0 -32 -22 -55 -52 -55zM17 0v66l135 255c15 26 33 55 43 76v2h-161v88h278v-72l-133 -248c-15 -27 -32 -56 -43 -77v-2h178v-88h-297z" />
    <glyph glyph-name="Zcaron" unicode="&#x17d;" horiz-adv-x="374" 
d="M15 0v63l221 516v2h-202v93h322v-77l-214 -501v-3h213v-93h-340zM240 710h-86l-85 104h83l44 -55h2l45 55h81z" />
    <glyph glyph-name="zcaron" unicode="&#x17e;" horiz-adv-x="334" 
d="M213 548h-74l-82 138h75l43 -83h2l43 83h76zM17 0v66l135 255c15 26 33 55 43 76v2h-161v88h278v-72l-133 -248c-15 -27 -32 -56 -43 -77v-2h178v-88h-297z" />
    <glyph glyph-name="florin" unicode="&#x192;" horiz-adv-x="408" 
d="M77 321v83h76l5 50c12 109 62 204 176 204c23 0 45 -5 60 -12l-15 -79c-13 4 -26 6 -40 6c-50 0 -71 -51 -78 -115l-7 -54h91v-83h-97l-23 -204c-12 -112 -46 -197 -160 -197c-27 0 -52 7 -68 16l17 77c12 -5 29 -9 41 -9c35 0 60 28 71 122l21 195h-70z" />
    <glyph glyph-name="Ohorn" unicode="&#x1a0;" horiz-adv-x="465" 
d="M235 85c69 0 91 121 91 256c0 122 -20 248 -92 248c-71 0 -96 -125 -95 -250c-1 -133 24 -254 96 -254zM372 726l78 12c10 -19 18 -46 18 -76c0 -49 -24 -85 -74 -90c24 -48 43 -119 43 -226c0 -254 -89 -354 -208 -354c-134 0 -201 143 -201 346c0 202 76 344 211 344
c24 0 52 -6 76 -18c29 -15 42 -28 54 -28c16 0 22 10 22 28c0 23 -10 44 -19 62z" />
    <glyph glyph-name="ohorn" unicode="&#x1a1;" horiz-adv-x="410" 
d="M206 412c-58 0 -69 -97 -69 -168c0 -82 14 -170 71 -170c53 0 65 97 65 170c0 71 -12 168 -67 168zM324 552l77 11c10 -19 19 -45 19 -77c0 -48 -26 -78 -72 -84c18 -35 31 -91 31 -157c0 -197 -101 -253 -175 -253c-103 0 -174 86 -174 250c0 176 87 253 178 253
c22 0 43 -6 60 -13c15 -5 32 -17 50 -17c14 0 24 9 24 29c0 21 -8 41 -18 58z" />
    <glyph glyph-name="Uhorn" unicode="&#x1af;" horiz-adv-x="504" 
d="M416 761l77 11c11 -22 17 -47 17 -76c0 -48 -23 -80 -75 -85l-11 -1v-362c0 -174 -68 -256 -185 -256c-123 0 -183 83 -183 251v431h107v-444c0 -109 34 -144 77 -144c46 0 77 34 77 144v444h80c25 0 35 6 35 28c0 21 -7 42 -16 59z" />
    <glyph glyph-name="uhorn" unicode="&#x1b0;" horiz-adv-x="428" 
d="M359 575l78 11c11 -21 18 -47 18 -75c0 -45 -25 -75 -73 -80l-5 -1v-289c0 -52 2 -100 4 -141h-92l-7 51h-2c-19 -29 -57 -59 -109 -59c-89 0 -124 67 -124 194v301h106v-288c0 -69 13 -118 57 -118c32 0 49 29 54 48c4 11 6 26 6 42v316h73c25 0 33 8 33 30
c0 19 -7 42 -17 58z" />
    <glyph glyph-name="uni01FA" unicode="&#x1fa;" horiz-adv-x="448" 
d="M231 689c-65 0 -93 37 -93 76s32 79 94 79c63 0 90 -37 90 -78c0 -39 -29 -77 -91 -77zM230 728c28 0 40 18 40 39c0 18 -12 38 -41 38c-27 0 -38 -21 -38 -39s12 -38 39 -38zM287 948h118l-142 -87h-81zM288 176h-134l-36 -176h-104l150 674h125l139 -674h-104zM166 259
h111l-28 155c-8 44 -17 106 -25 153h-3c-7 -47 -17 -111 -25 -153z" />
    <glyph glyph-name="uni01FB" unicode="&#x1fb;" horiz-adv-x="396" 
d="M242 817h100l-117 -98h-70zM346 305v-194c0 -38 1 -79 6 -111h-96l-6 50h-2c-25 -38 -61 -58 -103 -58c-70 0 -123 59 -123 144c0 125 106 178 216 179v13c0 50 -20 86 -73 86c-35 0 -64 -10 -91 -27l-20 73c24 15 75 35 134 35c126 0 158 -86 158 -190zM241 153v91
c-42 -1 -117 -12 -117 -97c0 -55 29 -75 53 -75c26 0 52 18 61 56c2 7 3 16 3 25zM201 519c-63 0 -99 39 -99 87c0 50 34 92 100 92c62 0 96 -39 96 -90c0 -50 -37 -89 -97 -89zM200 559c32 0 44 25 44 49s-11 50 -45 50c-30 0 -42 -28 -42 -52c0 -20 13 -47 43 -47z" />
    <glyph glyph-name="AEacute" unicode="&#x1fc;" horiz-adv-x="578" 
d="M104 0h-105l204 674h339v-93h-181l11 -193h166v-89h-158l12 -206h171l-1 -93h-264l-12 201h-129zM178 285h99l-8 184c-2 41 -5 87 -7 131h-4c-12 -52 -28 -113 -38 -152zM376 821h114l-123 -111h-79z" />
    <glyph glyph-name="aeacute" unicode="&#x1fd;" horiz-adv-x="600" 
d="M337 686h99l-103 -138h-68zM570 226h-229c0 -117 50 -153 110 -153c35 0 64 9 86 21l16 -75c-39 -21 -82 -27 -122 -27c-62 0 -121 30 -145 88h-2c-28 -56 -73 -88 -134 -88c-74 0 -128 60 -128 148c0 118 105 169 215 170v20c0 47 -25 84 -78 84c-31 0 -64 -12 -85 -26
l-21 72c32 20 80 35 127 35c54 0 101 -27 119 -82h2c26 54 73 82 126 82c94 0 145 -95 145 -223c0 -17 -1 -31 -2 -46zM239 157v83c-43 0 -120 -11 -120 -95c0 -51 29 -72 56 -72s52 20 60 57c3 8 4 18 4 27zM342 297h131c2 73 -23 121 -60 121c-48 0 -70 -66 -71 -121z" />
    <glyph glyph-name="Oslashacute" unicode="&#x1fe;" horiz-adv-x="465" 
d="M97 -45l-55 31l42 95c-39 62 -56 153 -56 257c0 200 76 344 206 344c36 0 69 -10 99 -33l30 70l59 -25l-41 -93c41 -65 56 -160 56 -255c0 -253 -88 -354 -204 -354c-37 0 -73 11 -102 37zM146 206l145 348c-14 21 -34 35 -57 35c-68 0 -101 -106 -101 -250
c0 -40 1 -87 11 -133h2zM319 472l-148 -346c14 -28 38 -41 63 -41c69 0 98 109 98 256c0 40 -1 86 -11 130zM271 821h114l-123 -111h-79z" />
    <glyph glyph-name="oslashacute" unicode="&#x1ff;" horiz-adv-x="410" 
d="M234 686h99l-103 -138h-68zM206 495h1c30 0 58 -9 84 -27l29 55l51 -27l-37 -70c29 -42 45 -103 45 -181c0 -197 -101 -253 -173 -253c-32 0 -62 9 -86 26l-30 -56l-48 32l35 65c-30 42 -47 104 -47 183c0 176 87 253 176 253zM142 159l108 225c-8 18 -22 28 -45 28
c-65 0 -74 -107 -74 -168c0 -24 1 -53 8 -83zM269 321l-106 -219c8 -17 22 -28 43 -28c58 0 73 90 73 161c0 25 -1 55 -7 86h-3z" />
    <glyph glyph-name="Scommaaccent" unicode="&#x218;" horiz-adv-x="379" 
d="M26 22l18 92c25 -15 69 -27 104 -27c66 0 102 39 102 94c0 54 -33 85 -88 123c-75 48 -127 115 -127 188c0 105 71 188 197 188c43 0 83 -13 101 -24l-20 -92c-18 12 -47 23 -83 23c-61 0 -90 -41 -90 -82c0 -52 27 -76 96 -120c85 -56 119 -121 119 -193
c0 -121 -86 -198 -207 -198c-51 0 -101 14 -122 28zM122 -220l-19 49c27 8 61 26 61 56c0 25 -18 48 -33 61l80 13c17 -12 36 -37 36 -72c0 -67 -59 -99 -125 -107z" />
    <glyph glyph-name="scommaaccent" unicode="&#x219;" horiz-adv-x="308" 
d="M20 22l21 79c18 -12 52 -26 84 -26c38 0 61 21 61 56c0 30 -14 50 -59 79c-72 43 -99 90 -99 139c0 84 62 146 149 146c40 0 70 -11 94 -24l-22 -79c-19 12 -41 21 -67 21c-37 0 -55 -24 -55 -51c0 -26 12 -41 59 -71c65 -39 99 -87 99 -147c0 -99 -69 -150 -161 -150
c-38 0 -82 11 -104 28zM90 -220l-19 49c27 8 61 26 61 56c0 25 -18 48 -33 61l80 13c17 -12 36 -37 36 -72c0 -67 -59 -99 -125 -107z" />
    <glyph glyph-name="uni021A" unicode="&#x21a;" horiz-adv-x="376" 
d="M134 0v576h-121v98h350v-98h-122v-576h-107zM127 -220l-19 49c27 8 61 26 61 56c0 25 -18 48 -33 61l80 13c17 -12 36 -37 36 -72c0 -67 -59 -99 -125 -107z" />
    <glyph glyph-name="uni021B" unicode="&#x21b;" horiz-adv-x="286" 
d="M70 571l107 37v-121h94v-78h-94v-252c0 -60 23 -75 50 -75c12 0 22 1 33 3l2 -83c-16 -5 -40 -8 -70 -8c-34 0 -65 9 -86 30c-24 24 -36 60 -36 132v253h-58v78h58v84zM92 -220l-19 49c27 8 61 26 61 56c0 25 -18 48 -33 61l80 13c17 -12 36 -37 36 -72
c0 -67 -59 -99 -125 -107z" />
    <glyph glyph-name="uni021C" unicode="&#x21c;" horiz-adv-x="367" 
d="M34 -115l-14 85c99 17 211 90 211 208c0 55 -31 113 -99 113c-20 0 -45 -4 -67 -12l-16 78c71 13 151 79 151 162c0 44 -32 75 -76 75c-32 0 -63 -11 -82 -20l-19 77c24 15 76 31 125 31c92 0 153 -69 153 -147c0 -83 -46 -143 -98 -172v-3c72 -14 137 -75 137 -177
c0 -178 -177 -289 -306 -298z" />
    <glyph glyph-name="uni021D" unicode="&#x21d;" horiz-adv-x="339" 
d="M24 -200l-9 87c80 5 198 53 198 164c0 41 -23 89 -94 89c-20 0 -40 -4 -62 -11l-14 78c70 18 140 52 140 123c0 49 -30 77 -71 77c-32 0 -55 -11 -75 -20l-20 76c24 15 68 32 117 32c91 0 148 -61 148 -140c0 -70 -38 -119 -89 -145v-2c70 -14 126 -63 126 -151
c0 -160 -165 -253 -295 -257z" />
    <glyph glyph-name="uni0232" unicode="&#x232;" horiz-adv-x="398" 
d="M251 0h-107v270l-148 404h114l52 -164c14 -45 29 -97 42 -148h2c10 51 24 101 39 151l48 161h111l-153 -400v-274zM87 803h225v-67h-225v67z" />
    <glyph glyph-name="uni0233" unicode="&#x233;" horiz-adv-x="370" 
d="M83 645h205v-64h-205v64zM8 487h114l56 -265c7 -33 11 -62 16 -90h2c4 26 10 58 16 88l48 267h105l-91 -348c-26 -105 -59 -210 -114 -277c-38 -47 -81 -69 -100 -76l-34 92c22 10 45 27 66 50c19 20 33 46 42 68c4 10 6 16 6 23c0 6 -1 12 -3 18z" />
    <glyph glyph-name="circumflex" unicode="&#x2c6;" 
d="M114 686h73l83 -138h-75l-43 83h-2l-43 -83h-76z" />
    <glyph glyph-name="caron" unicode="&#x2c7;" 
d="M187 548h-74l-82 138h75l43 -83h2l43 83h76z" />
    <glyph glyph-name="uni02C9" unicode="&#x2c9;" 
d="M48 645h205v-64h-205v64z" />
    <glyph glyph-name="breve" unicode="&#x2d8;" 
d="M37 675h55c3 -36 26 -57 57 -57c38 0 59 25 59 57h55c2 -70 -44 -121 -115 -121c-70 0 -113 53 -111 121z" />
    <glyph glyph-name="dotaccent" unicode="&#x2d9;" 
d="M151 563h-1c-29 0 -52 23 -52 55s24 55 53 55s52 -22 52 -55c0 -32 -22 -55 -52 -55z" />
    <glyph glyph-name="ring" unicode="&#x2da;" 
d="M117 536c-63 0 -99 39 -99 87c0 50 34 92 100 92c62 0 96 -39 96 -90c0 -50 -37 -89 -97 -89zM116 576c32 0 44 25 44 49s-11 50 -45 50c-30 0 -42 -28 -42 -52c0 -20 13 -47 43 -47z" />
    <glyph glyph-name="ogonek" unicode="&#x2db;" 
d="M107 5h69c-16 -25 -35 -63 -35 -92c0 -27 20 -44 41 -44c17 0 29 3 40 8l14 -56c-25 -18 -56 -23 -81 -23c-59 0 -91 35 -91 89c0 50 29 98 43 118z" />
    <glyph glyph-name="tilde" unicode="&#x2dc;" 
d="M86 559h-52c0 59 22 107 67 107c22 0 38 -10 54 -18c13 -8 24 -16 38 -16c13 0 22 6 23 36h50c0 -68 -24 -102 -67 -102c-19 0 -37 9 -51 16c-15 8 -25 17 -38 17c-14 0 -23 -14 -24 -40z" />
    <glyph glyph-name="hungarumlaut" unicode="&#x2dd;" 
d="M117 686h84l-102 -138h-57zM249 686h83l-102 -138h-56z" />
    <glyph glyph-name="uni037E" unicode="&#x37e;" horiz-adv-x="227" 
d="M96 -118l-67 -7c19 71 43 176 47 251l110 4c-21 -80 -59 -188 -90 -248zM123 307h-1c-37 0 -66 32 -66 75c0 44 30 77 68 77s67 -30 67 -77c0 -43 -26 -75 -68 -75z" />
    <glyph glyph-name="tonos" unicode="&#x384;" horiz-adv-x="309" 
d="M115 686h88l-59 -137h-61z" />
    <glyph glyph-name="dieresistonos" unicode="&#x385;" horiz-adv-x="394" 
d="M163 703h85l-39 -155h-57zM77 565h-1c-26 0 -49 21 -49 50s24 51 50 51c25 0 47 -21 47 -51c0 -29 -21 -50 -47 -50zM308 565h-1c-24 0 -47 21 -47 50s23 51 48 51c27 0 49 -21 49 -51c0 -29 -21 -50 -49 -50z" />
    <glyph glyph-name="Alphatonos" unicode="&#x386;" horiz-adv-x="465" 
d="M305 176h-134l-36 -176h-104l150 674h125l139 -674h-104zM183 259h111l-28 155c-8 44 -17 106 -25 153h-3c-7 -47 -17 -111 -25 -153zM27 674h85l-32 -158h-55z" />
    <glyph glyph-name="anoteleia" unicode="&#x387;" horiz-adv-x="227" 
d="M113 237h-1c-38 0 -69 32 -69 80s33 82 71 82c40 0 71 -32 71 -82c0 -48 -29 -80 -72 -80z" />
    <glyph glyph-name="Epsilontonos" unicode="&#x388;" horiz-adv-x="445" 
d="M395 396v-89h-161v-214h182v-93h-289v674h277v-93h-170v-185h161zM3 674h85l-32 -158h-55z" />
    <glyph glyph-name="Etatonos" unicode="&#x389;" horiz-adv-x="561" 
d="M128 674h107v-279h160v279h107v-674h-107v297h-160v-297h-107v674zM3 674h85l-32 -158h-55z" />
    <glyph glyph-name="Iotatonos" unicode="&#x38a;" horiz-adv-x="293" 
d="M127 674h107v-674h-107v674zM3 674h85l-32 -158h-55z" />
    <glyph glyph-name="Omicrontonos" unicode="&#x38c;" horiz-adv-x="518" 
d="M283 -8h-1c-134 0 -201 143 -201 346c0 202 76 344 211 344c141 0 198 -155 198 -336c0 -254 -89 -354 -207 -354zM286 85h1c70 0 92 121 92 256c0 122 -21 248 -93 248c-71 0 -95 -125 -94 -250c-1 -133 23 -254 94 -254zM3 674h85l-32 -158h-55z" />
    <glyph glyph-name="Upsilontonos" unicode="&#x38e;" horiz-adv-x="554" 
d="M112 587l21 93c14 -1 59 -15 92 -45c57 -51 98 -147 107 -267h5c11 113 56 199 102 250c34 38 83 60 93 62l22 -96c-76 -33 -141 -155 -163 -304c-6 -41 -10 -78 -10 -118v-162h-106v162c0 43 -3 76 -6 116c-18 160 -72 279 -157 309zM3 674h85l-32 -158h-55z" />
    <glyph glyph-name="Omegatonos" unicode="&#x38f;" horiz-adv-x="549" 
d="M424 92v-4h96v-88h-197v68c41 50 76 161 75 290c0 112 -27 231 -100 231s-104 -115 -104 -231c0 -119 38 -243 76 -290v-68h-197v88h96v4c-45 66 -86 167 -86 284c0 180 87 306 220 306c141 0 206 -140 206 -298c0 -122 -40 -229 -85 -292zM3 674h85l-32 -158h-55z" />
    <glyph glyph-name="iotadieresistonos" unicode="&#x390;" horiz-adv-x="213" 
d="M157 487v-364c0 -40 11 -51 38 -50l-8 -77c-11 -3 -27 -4 -40 -4c-47 0 -97 16 -97 122v373h107zM85 694h82l-39 -149h-54zM2 561h-1c-26 0 -49 22 -49 50c0 29 24 50 50 50c24 0 46 -20 46 -50c0 -28 -21 -50 -46 -50zM226 561h-1c-24 0 -47 22 -47 50c0 29 23 50 48 50
s47 -20 47 -50c0 -28 -21 -50 -47 -50z" />
    <glyph glyph-name="Alpha" unicode="&#x391;" horiz-adv-x="448" 
d="M288 176h-134l-36 -176h-104l150 674h125l139 -674h-104zM166 259h111l-28 155c-8 44 -17 106 -25 153h-3c-7 -47 -17 -111 -25 -153z" />
    <glyph glyph-name="Beta" unicode="&#x392;" horiz-adv-x="453" 
d="M59 2v662c36 9 82 13 133 13c62 0 119 -10 160 -47c33 -29 48 -72 48 -120c0 -63 -34 -120 -100 -148v-3c78 -22 122 -85 122 -166c0 -55 -18 -100 -49 -133c-39 -43 -105 -65 -202 -65c-49 0 -86 3 -112 7zM165 592v-199h32c54 0 98 44 98 105c0 56 -26 98 -92 98
c-16 0 -29 -1 -38 -4zM165 313v-232c9 -2 20 -3 34 -3c65 0 113 39 113 116c0 79 -55 118 -116 119h-31z" />
    <glyph glyph-name="Gamma" unicode="&#x393;" horiz-adv-x="347" 
d="M59 674h279v-90h-172v-584h-107v674z" />
    <glyph glyph-name="uni0394" unicode="&#x394;" horiz-adv-x="454" 
d="M17 0v56l149 618h125l142 -616v-58h-416zM123 94h203l-65 286c-12 56 -27 140 -34 187h-3c-7 -47 -22 -126 -35 -182z" />
    <glyph glyph-name="Epsilon" unicode="&#x395;" horiz-adv-x="376" 
d="M326 396v-89h-160v-214h182v-93h-289v674h277v-93h-170v-185h160z" />
    <glyph glyph-name="Zeta" unicode="&#x396;" horiz-adv-x="374" 
d="M15 0v63l221 516v2h-202v93h322v-77l-214 -501v-3h213v-93h-340z" />
    <glyph glyph-name="Eta" unicode="&#x397;" horiz-adv-x="492" 
d="M59 674h107v-279h160v279h107v-674h-107v297h-160v-297h-107v674z" />
    <glyph glyph-name="Theta" unicode="&#x398;" horiz-adv-x="471" 
d="M233 -8h-1c-135 0 -204 143 -204 346c0 202 78 344 214 344c143 0 201 -155 201 -336c0 -254 -91 -354 -210 -354zM236 84h1c72 0 96 121 96 257c0 124 -22 249 -97 249c-73 0 -99 -124 -99 -251c0 -134 26 -255 99 -255zM171 393h129v-98h-129v98z" />
    <glyph glyph-name="Iota" unicode="&#x399;" horiz-adv-x="226" 
d="M59 674h107v-674h-107v674z" />
    <glyph glyph-name="Kappa" unicode="&#x39a;" horiz-adv-x="434" 
d="M59 0v674h106v-311h3c13 28 24 57 37 85l106 226h117l-157 -291l161 -383h-117l-116 300l-34 -60v-240h-106z" />
    <glyph glyph-name="Lambda" unicode="&#x39b;" horiz-adv-x="445" 
d="M431 0h-111l-69 357c-10 63 -21 127 -30 193h-3c-8 -67 -17 -131 -28 -195l-67 -355h-110l151 674h118z" />
    <glyph glyph-name="Mu" unicode="&#x39c;" horiz-adv-x="620" 
d="M482 0l-13 260c-4 76 -8 168 -7 242h-3c-13 -74 -31 -155 -47 -220l-70 -274h-73l-66 267c-18 68 -36 152 -48 227h-3c-1 -76 -5 -165 -9 -245l-12 -257h-93l45 674h113l65 -273c21 -87 38 -158 51 -234h2c12 76 27 146 47 234l63 273h115l40 -674h-97z" />
    <glyph glyph-name="Nu" unicode="&#x39d;" horiz-adv-x="493" 
d="M154 0h-95v674h99l113 -288c23 -61 57 -148 78 -213h2c-5 86 -11 190 -11 311v190h94v-674h-99l-114 287c-24 62 -54 143 -73 214h-2c4 -78 8 -173 8 -313v-188z" />
    <glyph glyph-name="Xi" unicode="&#x39e;" horiz-adv-x="393" 
d="M37 674h318v-93h-318v93zM54 392h281v-91h-281v91zM31 93h330v-93h-330v93z" />
    <glyph glyph-name="Omicron" unicode="&#x39f;" horiz-adv-x="465" 
d="M230 -8h-1c-134 0 -201 143 -201 346c0 202 76 344 211 344c142 0 198 -155 198 -336c0 -254 -89 -354 -207 -354zM234 85h1c69 0 91 121 91 256c0 122 -20 248 -92 248c-71 0 -96 -125 -95 -250c-1 -133 24 -254 95 -254z" />
    <glyph glyph-name="Pi" unicode="&#x3a0;" horiz-adv-x="485" 
d="M425 674v-674h-106v576h-153v-576h-107v674h366z" />
    <glyph glyph-name="Rho" unicode="&#x3a1;" horiz-adv-x="431" 
d="M59 0v664c35 8 78 13 126 13c71 0 128 -13 168 -51c36 -34 54 -86 54 -144c0 -68 -19 -115 -50 -151c-40 -47 -105 -69 -162 -69h-30v-262h-106zM165 585v-235c8 -2 16 -2 26 -2c70 0 109 48 109 126c0 63 -26 116 -98 116c-14 0 -28 -2 -37 -5z" />
    <glyph glyph-name="Sigma" unicode="&#x3a3;" horiz-adv-x="414" 
d="M138 96v-3h248v-93h-370v67l157 271l-151 268v68h346v-92h-217v-4l130 -234z" />
    <glyph glyph-name="Tau" unicode="&#x3a4;" horiz-adv-x="376" 
d="M134 0v576h-121v98h350v-98h-122v-576h-107z" />
    <glyph glyph-name="Upsilon" unicode="&#x3a5;" horiz-adv-x="445" 
d="M3 587l21 93c14 -1 59 -15 93 -45c56 -51 97 -147 106 -267h5c12 113 56 199 103 250c34 38 82 60 92 62l22 -96c-75 -33 -140 -155 -163 -304c-5 -41 -9 -78 -9 -118v-162h-107v162c0 43 -2 76 -6 116c-18 160 -71 279 -157 309z" />
    <glyph glyph-name="Phi" unicode="&#x3a6;" horiz-adv-x="548" 
d="M321 34v-52h-96v52c-105 18 -200 109 -200 305c0 193 103 288 201 305v48h96v-48c113 -17 201 -123 201 -300c0 -194 -92 -293 -202 -310zM226 114v449c-46 -12 -94 -86 -94 -227c0 -128 45 -206 94 -222zM321 563v-449c53 14 95 91 95 227c0 143 -52 213 -95 222z" />
    <glyph glyph-name="Chi" unicode="&#x3a7;" horiz-adv-x="400" 
d="M396 0h-111l-50 141c-14 38 -26 75 -39 119h-3c-12 -44 -24 -84 -35 -121l-47 -139h-106l131 344l-126 330h111l49 -139c11 -33 22 -67 34 -108h2l32 110l44 137h107l-128 -332z" />
    <glyph glyph-name="Psi" unicode="&#x3a8;" horiz-adv-x="548" 
d="M510 674v-176c0 -188 -71 -276 -189 -294v-204h-95v204c-119 18 -189 90 -189 262v208h98v-205c0 -120 28 -172 92 -182v387h93v-387c64 8 92 73 92 212v175h98z" />
    <glyph glyph-name="uni03A9" unicode="&#x3a9;" horiz-adv-x="505" 
d="M380 92v-4h95v-88h-196v68c41 50 76 161 75 290c0 112 -27 231 -101 231c-72 0 -103 -115 -103 -231c0 -119 38 -243 76 -290v-68h-197v88h95v4c-45 66 -85 167 -85 284c0 180 87 306 220 306c141 0 206 -140 206 -298c0 -122 -40 -229 -85 -292z" />
    <glyph glyph-name="Iotadieresis" unicode="&#x3aa;" horiz-adv-x="226" 
d="M31 710h-1c-29 0 -52 23 -52 54c0 32 24 54 53 54c28 0 50 -22 50 -54c0 -31 -21 -54 -50 -54zM196 710h-1c-28 0 -51 23 -51 54c0 32 23 54 52 54s50 -22 50 -54c0 -31 -21 -54 -50 -54zM59 674h107v-674h-107v674z" />
    <glyph glyph-name="Upsilondieresis" unicode="&#x3ab;" horiz-adv-x="445" 
d="M146 694h-1c-28 0 -51 23 -51 54c0 32 24 54 52 54c29 0 51 -22 51 -54c0 -31 -21 -54 -51 -54zM312 694h-1c-29 0 -51 23 -51 54c0 32 23 54 52 54c28 0 50 -22 50 -54c0 -31 -21 -54 -50 -54zM3 587l21 93c14 -1 59 -15 93 -45c56 -51 97 -147 106 -267h5
c12 113 56 199 103 250c34 38 82 60 92 62l22 -96c-75 -33 -140 -155 -163 -304c-5 -41 -9 -78 -9 -118v-162h-107v162c0 43 -2 76 -6 116c-18 160 -71 279 -157 309z" />
    <glyph glyph-name="alphatonos" unicode="&#x3ac;" horiz-adv-x="425" 
d="M214 681h88l-58 -137h-61zM300 487h80c-4 -32 -12 -210 -11 -361c0 -38 9 -54 35 -54l-10 -77c-9 -2 -19 -3 -26 -3c-40 0 -69 19 -77 76h-4c-15 -37 -51 -76 -105 -76c-97 0 -152 102 -152 237c0 174 85 266 164 266c40 0 73 -20 90 -68h4c4 22 8 43 12 60zM137 238v-1
c0 -88 26 -157 66 -157c27 0 51 31 59 85c4 27 5 51 5 79c0 31 -1 49 -2 71c-4 55 -27 92 -56 92c-45 0 -72 -80 -72 -169z" />
    <glyph glyph-name="epsilontonos" unicode="&#x3ad;" horiz-adv-x="349" 
d="M189 681h88l-58 -137h-62zM130 258v5c-46 12 -78 50 -78 102c0 66 55 130 168 130c40 0 78 -9 98 -24l-18 -74c-17 9 -42 15 -73 15c-47 0 -73 -26 -73 -58c0 -45 53 -60 105 -60h15v-74h-19c-61 -1 -115 -21 -115 -74c0 -45 39 -70 85 -70c41 0 81 13 93 21l12 -78
c-32 -18 -81 -27 -129 -27c-89 0 -171 42 -171 146c0 64 52 110 100 120z" />
    <glyph glyph-name="etatonos" unicode="&#x3ae;" horiz-adv-x="434" 
d="M214 681h88l-59 -137h-61zM143 430h2c23 39 64 65 115 65c82 0 125 -63 125 -176v-346c0 -66 4 -133 8 -165h-98c-11 24 -17 76 -17 160v341c0 48 -10 96 -57 96c-26 0 -50 -20 -60 -60c-3 -10 -5 -26 -5 -44v-301h-107v350c0 55 -5 111 -13 137h93c6 -13 12 -36 14 -57z
" />
    <glyph glyph-name="iotatonos" unicode="&#x3af;" horiz-adv-x="213" 
d="M99 684h94l-59 -138h-67zM156 487v-364c0 -40 12 -51 38 -50l-7 -77c-12 -3 -27 -4 -40 -4c-47 0 -98 16 -98 122v373h107z" />
    <glyph glyph-name="upsilondieresistonos" unicode="&#x3b0;" horiz-adv-x="407" 
d="M246 487h100c14 -39 28 -108 28 -184c0 -159 -36 -311 -179 -311c-90 0 -150 58 -150 164v180c0 61 -1 119 -7 151h103c8 -14 10 -52 10 -100v-227c0 -51 23 -78 52 -78c53 0 67 87 67 199c0 90 -11 172 -24 206zM171 691h82l-38 -149h-55zM86 559h-1
c-26 0 -49 21 -49 50s24 49 50 49c24 0 46 -20 46 -49s-21 -50 -46 -50zM314 559h-1c-24 0 -47 21 -47 50s23 49 48 49c26 0 48 -20 48 -49s-22 -50 -48 -50z" />
    <glyph glyph-name="alpha" unicode="&#x3b1;" horiz-adv-x="424" 
d="M300 487h80c-4 -32 -12 -210 -11 -361c0 -38 9 -54 35 -54l-10 -77c-9 -2 -19 -3 -26 -3c-40 0 -69 19 -77 76h-4c-15 -37 -51 -76 -105 -76c-97 0 -152 102 -152 237c0 174 85 266 164 266c40 0 73 -20 90 -68h4c4 22 8 43 12 60zM137 238v-1c0 -88 26 -157 66 -157
c27 0 51 31 59 85c4 27 5 51 5 79c0 31 -1 49 -2 71c-4 55 -27 92 -56 92c-45 0 -72 -80 -72 -169z" />
    <glyph glyph-name="beta" unicode="&#x3b2;" horiz-adv-x="432" 
d="M155 27h-2v-54c0 -66 4 -133 11 -165h-98c-11 24 -18 76 -18 159v474c0 118 16 171 55 213c29 31 66 46 113 46c101 0 151 -82 151 -175c0 -78 -38 -127 -76 -148v-5c54 -17 110 -75 110 -182c0 -120 -67 -198 -157 -198c-35 0 -68 12 -89 35zM153 467v-347
c19 -31 44 -40 67 -40c46 0 76 49 76 117c0 71 -38 119 -87 126c-6 2 -12 2 -16 2v79c4 0 8 1 13 2c35 10 62 48 62 114c0 40 -16 92 -55 92c-42 0 -60 -51 -60 -145z" />
    <glyph glyph-name="gamma" unicode="&#x3b3;" horiz-adv-x="373" 
d="M229 -192h-104c3 152 0 227 -23 329c-35 151 -80 277 -110 350h113c25 -67 66 -208 86 -358h3c28 86 59 212 58 312v46h96c2 -9 3 -21 3 -37c0 -110 -43 -263 -119 -418c-4 -7 -6 -12 -6 -20c2 -65 3 -134 3 -204z" />
    <glyph glyph-name="delta" unicode="&#x3b4;" horiz-adv-x="417" 
d="M362 660l-25 -70c-18 11 -52 29 -89 29c-30 0 -44 -16 -44 -33c0 -18 18 -42 44 -74l57 -71c43 -53 81 -122 81 -207c0 -163 -89 -242 -180 -242c-103 0 -176 91 -176 233c0 119 69 200 128 237v4l-13 17c-17 23 -49 67 -49 107c0 54 46 110 139 110
c61 0 104 -20 127 -40zM233 373l-24 30c-46 -37 -72 -93 -72 -180c0 -98 38 -149 73 -149c48 0 70 68 70 147c0 64 -16 113 -47 152z" />
    <glyph glyph-name="epsilon" unicode="&#x3b5;" horiz-adv-x="349" 
d="M130 259v4c-45 12 -78 51 -78 102c0 66 55 130 168 130c40 0 78 -9 98 -24l-18 -74c-17 9 -42 15 -73 15c-47 0 -73 -26 -73 -58c0 -45 53 -60 105 -60h15v-74h-19c-61 -1 -115 -21 -115 -74c0 -45 39 -70 85 -70c41 0 81 13 93 21l12 -78c-32 -18 -81 -27 -129 -27
c-89 0 -171 42 -171 146c0 64 52 111 100 121z" />
    <glyph glyph-name="zeta" unicode="&#x3b6;" horiz-adv-x="333" 
d="M268 -135l-71 22c19 36 28 73 31 96c-30 7 -60 16 -90 32c-57 30 -108 89 -108 197c0 139 78 290 179 390v4h-38c-33 0 -70 2 -93 9l10 75c27 -2 71 -3 113 -3h120l16 -74c-96 -62 -199 -233 -199 -374c0 -94 33 -135 86 -158c29 -13 66 -21 97 -27c5 -1 8 -6 8 -12
c0 -74 -36 -147 -61 -177z" />
    <glyph glyph-name="eta" unicode="&#x3b7;" horiz-adv-x="434" 
d="M143 430h2c23 39 64 65 115 65c82 0 125 -63 125 -176v-346c0 -66 4 -133 8 -165h-98c-11 24 -17 76 -17 160v341c0 48 -10 96 -57 96c-26 0 -50 -20 -60 -60c-3 -10 -5 -26 -5 -44v-301h-107v350c0 55 -5 111 -13 137h93c6 -13 12 -36 14 -57z" />
    <glyph glyph-name="theta" unicode="&#x3b8;" horiz-adv-x="409" 
d="M204 -8h-1c-98 0 -173 87 -173 360c0 263 94 348 177 348c98 0 171 -95 171 -348c0 -297 -87 -360 -174 -360zM133 397h143c-1 146 -29 223 -72 223c-39 0 -71 -77 -71 -223zM276 312h-143c0 -165 30 -240 72 -240c47 0 71 80 71 240z" />
    <glyph glyph-name="iota" unicode="&#x3b9;" horiz-adv-x="213" 
d="M156 487v-364c0 -40 12 -51 38 -50l-7 -77c-12 -3 -27 -4 -40 -4c-47 0 -98 16 -98 122v373h107z" />
    <glyph glyph-name="kappa" unicode="&#x3ba;" horiz-adv-x="402" 
d="M246 264v-3c44 -18 74 -96 99 -156l46 -105h-117l-42 107c-23 59 -43 105 -68 105h-8v-212h-106v367c0 55 -3 96 -9 120h103c7 -12 12 -36 12 -83v-129h3c39 61 95 169 119 212h114v-4z" />
    <glyph glyph-name="lambda" unicode="&#x3bb;" horiz-adv-x="365" 
d="M253 0l-51 233c-6 27 -11 56 -20 105h-4c-5 -35 -10 -67 -18 -104l-49 -234h-106l123 453c2 8 3 14 3 20c0 7 -3 18 -6 27c-22 75 -54 100 -84 100c-3 0 -7 0 -12 -1l9 88c7 2 20 3 29 3c100 0 137 -99 167 -215l126 -475h-107z" />
    <glyph glyph-name="uni03BC" unicode="&#x3bc;" horiz-adv-x="429" 
d="M293 49h-3c-11 -23 -42 -51 -79 -51c-24 0 -45 7 -60 29v-54c0 -66 4 -133 10 -165h-98c-8 24 -14 82 -14 171v508h107v-314c0 -56 14 -94 54 -94c35 0 51 29 57 48c4 11 6 28 6 44v316h106v-362c0 -38 7 -54 33 -53l-10 -76c-8 -3 -20 -4 -34 -4c-38 0 -62 18 -75 57z
" />
    <glyph glyph-name="nu" unicode="&#x3bd;" horiz-adv-x="363" 
d="M2 487h109l46 -243c7 -38 14 -81 21 -129h4c24 82 62 239 62 339c0 9 1 23 0 33h96c2 -11 3 -23 3 -35c0 -118 -68 -309 -129 -452h-97z" />
    <glyph glyph-name="xi" unicode="&#x3be;" horiz-adv-x="350" 
d="M299 417v-81h-16c-84 -2 -144 -47 -144 -129c0 -71 45 -107 96 -126c27 -10 54 -18 98 -28c9 -1 13 -5 13 -12c0 -69 -38 -145 -61 -175l-74 21c20 37 29 74 32 97c-107 25 -213 74 -213 212c0 96 59 160 130 185v6c-56 24 -92 78 -92 141c0 99 71 172 182 172
c38 0 67 -8 88 -19l-14 -78c-14 6 -34 13 -63 13c-63 0 -87 -52 -87 -91c0 -70 52 -102 109 -107c5 0 11 -1 16 -1z" />
    <glyph glyph-name="omicron" unicode="&#x3bf;" horiz-adv-x="410" 
d="M205 -8h-1c-103 0 -174 86 -174 250c0 176 87 253 178 253c102 0 171 -90 171 -250c0 -197 -101 -253 -174 -253zM207 74h1c53 0 65 97 65 170c0 71 -12 168 -67 168c-58 0 -69 -97 -69 -168c0 -82 14 -170 70 -170z" />
    <glyph glyph-name="pi" unicode="&#x3c0;" horiz-adv-x="439" 
d="M419 400h-47v-284c0 -55 4 -91 11 -116h-101c-10 19 -16 63 -16 116v284h-82c-2 -109 -17 -293 -50 -400h-100c31 112 47 286 47 400c-29 0 -48 -2 -60 -4l-14 65c16 14 64 26 138 26h282z" />
    <glyph glyph-name="rho" unicode="&#x3c1;" horiz-adv-x="422" 
d="M154 36h-2v-63c0 -66 4 -133 8 -165h-99c-9 24 -15 76 -15 159v268c0 122 29 180 65 214c30 31 70 46 107 46c118 0 173 -105 173 -250c0 -176 -77 -253 -158 -253c-37 0 -65 21 -79 44zM152 255v-86c0 -14 2 -27 6 -38c11 -41 35 -51 52 -51c54 0 75 80 75 165
c0 93 -23 158 -69 158c-35 0 -64 -38 -64 -148z" />
    <glyph glyph-name="uni03C2" unicode="&#x3c2;" horiz-adv-x="332" 
d="M320 481l-17 -84c-15 5 -31 7 -46 7c-79 0 -119 -81 -119 -168c0 -71 20 -125 87 -154c23 -10 48 -18 86 -28c4 -2 6 -5 6 -10c0 -76 -35 -149 -59 -179l-73 21c20 36 29 74 32 96c-25 8 -51 17 -72 28c-60 30 -115 102 -115 219c0 142 85 266 225 266c27 0 51 -5 65 -14
z" />
    <glyph glyph-name="sigma" unicode="&#x3c3;" horiz-adv-x="413" 
d="M316 421l-1 -3c41 -37 61 -112 61 -173c0 -195 -101 -253 -173 -253c-103 0 -173 86 -173 250c0 176 87 253 181 253h41h55h96l-4 -80c-18 -1 -48 1 -83 6zM206 74h1c52 0 63 97 63 170c0 71 -14 168 -65 168c-57 0 -68 -97 -68 -168c0 -82 14 -170 69 -170z" />
    <glyph glyph-name="tau" unicode="&#x3c4;" horiz-adv-x="334" 
d="M270 76l-3 -78c-11 -4 -25 -6 -47 -6c-87 0 -111 65 -111 149v259h-36c-29 0 -47 -4 -60 -7l-15 68c9 9 43 26 108 26h222l-10 -87h-102v-254c0 -54 18 -71 38 -71c6 0 12 0 16 1z" />
    <glyph glyph-name="upsilon" unicode="&#x3c5;" horiz-adv-x="407" 
d="M246 487h100c14 -39 28 -108 28 -184c0 -159 -36 -311 -179 -311c-90 0 -150 58 -150 164v180c0 61 -1 119 -7 151h103c8 -14 10 -52 10 -100v-227c0 -51 23 -78 52 -78c53 0 67 87 67 199c0 90 -11 172 -24 206z" />
    <glyph glyph-name="phi" unicode="&#x3c6;" horiz-adv-x="538" 
d="M148 491l55 -49c-38 -43 -67 -106 -67 -192c0 -89 31 -158 85 -178v272c0 110 58 147 114 147c87 0 173 -88 173 -238c0 -166 -103 -245 -189 -258v-187h-98v187c-75 11 -191 72 -191 250c0 144 82 223 118 246zM318 368v-297c57 12 86 89 86 180c0 102 -38 160 -61 160
c-15 0 -25 -11 -25 -43z" />
    <glyph glyph-name="chi" unicode="&#x3c7;" horiz-adv-x="369" 
d="M8 487h107l77 -240h4c8 35 14 62 25 96l43 144h100l-123 -331l119 -342l-98 -22l-86 266h-3c-8 -33 -18 -74 -29 -113l-47 -153l-94 21l124 345z" />
    <glyph glyph-name="psi" unicode="&#x3c8;" horiz-adv-x="535" 
d="M221 -192v184c-82 12 -178 51 -178 231v140c0 49 0 94 -5 124h93c6 -14 9 -52 9 -100v-153c0 -119 35 -157 82 -165v520h96v-520c61 5 86 105 86 231c0 87 -12 161 -21 187h90c15 -35 29 -102 29 -176c0 -172 -42 -305 -182 -319v-184h-99z" />
    <glyph glyph-name="omega" unicode="&#x3c9;" horiz-adv-x="562" 
d="M330 345l-3 -189c0 -33 14 -75 42 -75c31 0 57 55 57 168c0 98 -27 184 -65 235v3h97c35 -36 73 -129 73 -240c0 -160 -63 -255 -153 -255c-49 0 -80 32 -95 69h-3c-16 -37 -51 -69 -102 -69c-77 0 -148 78 -148 245c0 122 42 214 76 250h94v-3
c-37 -50 -66 -133 -66 -241c0 -112 25 -162 55 -162s43 44 42 76l-1 188h100z" />
    <glyph glyph-name="iotadieresis" unicode="&#x3ca;" horiz-adv-x="213" 
d="M21 557h-1c-29 0 -53 23 -53 56s24 56 54 56s52 -23 52 -56s-22 -56 -52 -56zM186 557h-1c-29 0 -53 23 -53 56s24 56 54 56s52 -23 52 -56s-21 -56 -52 -56zM157 487v-364c0 -40 11 -51 38 -50l-8 -77c-11 -3 -27 -4 -40 -4c-47 0 -97 16 -97 122v373h107z" />
    <glyph glyph-name="upsilondieresis" unicode="&#x3cb;" horiz-adv-x="407" 
d="M115 557h-1c-29 0 -53 23 -53 56s24 56 54 56s52 -23 52 -56s-22 -56 -52 -56zM280 557h-1c-29 0 -53 23 -53 56s24 56 54 56s53 -23 53 -56s-22 -56 -53 -56zM246 487h100c14 -39 28 -108 28 -184c0 -159 -36 -311 -179 -311c-90 0 -150 58 -150 164v180
c0 61 -1 119 -7 151h103c8 -14 10 -52 10 -100v-227c0 -51 23 -78 52 -78c53 0 67 87 67 199c0 90 -11 172 -24 206z" />
    <glyph glyph-name="omicrontonos" unicode="&#x3cc;" horiz-adv-x="410" 
d="M203 681h88l-59 -137h-61zM205 -8h-1c-103 0 -174 86 -174 250c0 176 87 253 178 253c102 0 171 -90 171 -250c0 -197 -101 -253 -174 -253zM207 74h1c53 0 65 97 65 170c0 71 -12 168 -67 168c-58 0 -69 -97 -69 -168c0 -82 14 -170 70 -170z" />
    <glyph glyph-name="upsilontonos" unicode="&#x3cd;" horiz-adv-x="407" 
d="M196 684h94l-59 -138h-67zM246 487h100c14 -39 28 -108 28 -184c0 -159 -36 -311 -179 -311c-90 0 -150 58 -150 164v180c0 61 -1 119 -7 151h103c8 -14 10 -52 10 -100v-227c0 -51 23 -78 52 -78c53 0 67 87 67 199c0 90 -11 172 -24 206z" />
    <glyph glyph-name="omegatonos" unicode="&#x3ce;" horiz-adv-x="562" 
d="M280 681h89l-59 -137h-61zM330 345l-2 -189c0 -33 13 -75 42 -75c31 0 56 55 56 168c0 98 -26 184 -64 235v3h96c36 -36 74 -129 74 -240c0 -160 -64 -255 -153 -255c-49 0 -80 32 -96 69h-3c-16 -37 -51 -69 -101 -69c-77 0 -148 78 -148 245c0 122 42 214 76 250h94v-3
c-38 -50 -67 -133 -67 -241c0 -112 26 -162 56 -162s42 44 42 76l-2 188h100z" />
    <glyph glyph-name="afii10023" unicode="&#x401;" horiz-adv-x="376" 
d="M326 396v-89h-160v-214h182v-93h-289v674h277v-93h-170v-185h160zM112 719h-1c-27 0 -50 24 -50 56s23 56 51 56c30 0 52 -24 52 -56s-22 -56 -52 -56zM287 719h-1c-29 0 -52 24 -52 56s24 56 53 56s51 -24 51 -56s-22 -56 -51 -56z" />
    <glyph glyph-name="afii10051" unicode="&#x402;" horiz-adv-x="515" 
d="M13 674h388v-98h-162v-158h2c19 11 48 20 78 20c63 0 112 -38 139 -98c27 -59 31 -113 31 -176c0 -75 -16 -151 -56 -206c-39 -54 -88 -83 -127 -92l-24 92c27 10 48 28 67 55c18 29 30 80 30 154c0 60 -7 99 -23 132c-14 29 -40 47 -70 47c-17 0 -33 -5 -47 -14v-332
h-107v576h-119v98z" />
    <glyph glyph-name="afii10052" unicode="&#x403;" horiz-adv-x="362" 
d="M59 674h290v-93h-183v-581h-107v674zM226 821h114l-123 -111h-79z" />
    <glyph glyph-name="afii10053" unicode="&#x404;" horiz-adv-x="395" 
d="M372 658l-20 -92c-14 10 -41 20 -68 20c-110 0 -144 -121 -147 -200h193v-93h-191c5 -88 37 -204 143 -204c28 0 63 8 82 17l15 -88c-20 -11 -58 -25 -108 -25c-155 0 -243 139 -243 341c0 158 63 347 249 347c50 0 75 -13 95 -23z" />
    <glyph glyph-name="afii10054" unicode="&#x405;" horiz-adv-x="379" 
d="M26 22l18 92c25 -15 69 -27 104 -27c66 0 102 39 102 94c0 54 -33 85 -88 123c-75 48 -127 115 -127 188c0 105 71 188 197 188c43 0 83 -13 101 -24l-20 -92c-18 12 -47 23 -83 23c-61 0 -90 -41 -90 -82c0 -52 27 -76 96 -120c85 -56 119 -121 119 -193
c0 -121 -86 -198 -207 -198c-51 0 -101 14 -122 28z" />
    <glyph glyph-name="afii10055" unicode="&#x406;" horiz-adv-x="226" 
d="M59 674h107v-674h-107v674z" />
    <glyph glyph-name="afii10056" unicode="&#x407;" horiz-adv-x="226" 
d="M59 674h107v-674h-107v674zM25 719h-1c-27 0 -50 24 -50 56s23 56 51 56c30 0 52 -24 52 -56s-22 -56 -52 -56zM200 719h-1c-29 0 -52 24 -52 56s24 56 53 56s51 -24 51 -56s-22 -56 -51 -56z" />
    <glyph glyph-name="afii10057" unicode="&#x408;" horiz-adv-x="282" 
d="M124 200v474h107v-470c0 -175 -80 -212 -175 -212c-24 0 -46 3 -59 8l9 90c11 -3 24 -4 40 -4c45 0 78 18 78 114z" />
    <glyph glyph-name="afii10058" unicode="&#x409;" horiz-adv-x="677" 
d="M81 674h312v-259c14 2 34 3 52 3c124 0 206 -80 206 -203c0 -63 -19 -113 -52 -149c-43 -46 -111 -71 -200 -71c-50 0 -86 3 -112 7v579h-107v-202c0 -163 -10 -302 -91 -362c-21 -17 -50 -26 -74 -26l-23 89c14 4 30 13 41 24c38 37 48 118 48 266v304zM393 329v-245
c11 -2 22 -3 34 -3c74 0 114 57 114 129c0 71 -43 122 -114 122c-11 0 -22 -1 -34 -3z" />
    <glyph glyph-name="afii10059" unicode="&#x40a;" horiz-adv-x="701" 
d="M59 674h107v-270h144v270h106v-261c16 2 34 3 52 3c124 0 207 -78 207 -201c0 -63 -19 -113 -53 -149c-43 -46 -110 -71 -200 -71c-49 0 -86 3 -112 7v308h-144v-310h-107v674zM417 326v-242c11 -2 21 -3 33 -3c75 0 114 57 114 128c0 73 -44 120 -114 120
c-11 0 -22 -1 -33 -3z" />
    <glyph glyph-name="afii10060" unicode="&#x40b;" horiz-adv-x="532" 
d="M13 674h373v-98h-151v-171h3c26 21 64 38 106 38c48 0 83 -19 104 -51c23 -34 33 -82 33 -137v-255h-106v252c0 35 -4 61 -19 79c-11 14 -29 22 -51 22c-28 0 -54 -13 -70 -26v-327h-107v576h-115v98z" />
    <glyph glyph-name="afii10061" unicode="&#x40c;" horiz-adv-x="425" 
d="M59 674h105v-299h11l125 299h117l-159 -313c75 -23 100 -89 118 -171c14 -65 25 -130 45 -190h-106c-17 46 -27 107 -39 161c-16 80 -36 136 -102 136h-10v-297h-105v674zM251 816h114l-123 -111h-79z" />
    <glyph glyph-name="afii10062" unicode="&#x40e;" horiz-adv-x="384" 
d="M-4 674h115l70 -266c11 -41 20 -79 26 -112h4c6 32 12 74 19 114l52 264h108l-91 -336c-22 -80 -49 -186 -88 -258c-31 -55 -79 -92 -133 -92c-19 0 -33 2 -45 5l4 87c6 -1 15 -2 27 -2c43 0 76 54 88 94c4 13 4 25 -1 39zM77 806h71c3 -33 15 -57 49 -57
c32 0 48 24 51 57h71c-9 -77 -51 -107 -122 -107c-67 0 -114 30 -120 107z" />
    <glyph glyph-name="afii10145" unicode="&#x40f;" horiz-adv-x="488" 
d="M59 674h107v-581h156v581h107v-674h-136l-6 -149h-87l-5 149h-136v674z" />
    <glyph glyph-name="afii10017" unicode="&#x410;" horiz-adv-x="448" 
d="M288 176h-134l-36 -176h-104l150 674h125l139 -674h-104zM166 259h111l-28 155c-8 44 -17 106 -25 153h-3c-7 -47 -17 -111 -25 -153z" />
    <glyph glyph-name="afii10018" unicode="&#x411;" horiz-adv-x="450" 
d="M59 674h317v-92h-211v-168c18 3 34 4 52 4c58 0 109 -18 145 -51c38 -35 61 -86 61 -152c0 -63 -19 -113 -52 -150c-43 -46 -110 -70 -200 -70c-49 0 -86 3 -112 7v672zM165 329v-245c11 -2 22 -3 34 -3c38 0 67 15 86 39c18 23 28 54 28 88c0 35 -11 65 -30 87
c-20 22 -49 37 -84 37c-11 0 -22 -1 -34 -3z" />
    <glyph glyph-name="afii10019" unicode="&#x412;" horiz-adv-x="453" 
d="M59 2v662c36 9 82 13 133 13c62 0 119 -10 160 -47c33 -29 48 -72 48 -120c0 -63 -34 -120 -100 -148v-3c78 -22 122 -85 122 -166c0 -55 -18 -100 -49 -133c-39 -43 -105 -65 -202 -65c-49 0 -86 3 -112 7zM165 592v-199h32c54 0 98 44 98 105c0 56 -26 98 -92 98
c-16 0 -29 -1 -38 -4zM165 313v-232c9 -2 20 -3 34 -3c65 0 113 39 113 116c0 79 -55 118 -116 119h-31z" />
    <glyph glyph-name="afii10020" unicode="&#x413;" horiz-adv-x="362" 
d="M59 674h290v-93h-183v-581h-107v674z" />
    <glyph glyph-name="afii10021" unicode="&#x414;" horiz-adv-x="509" 
d="M126 674h313v-583l49 -1l-4 -234h-82l-5 144h-295l-5 -144h-82l-5 234l46 1c23 56 39 111 50 168c15 82 20 166 20 253v162zM224 581v-88c0 -85 -5 -169 -18 -246c-8 -53 -23 -107 -40 -154h167v488h-109z" />
    <glyph glyph-name="afii10022" unicode="&#x415;" horiz-adv-x="376" 
d="M326 396v-89h-160v-214h182v-93h-289v674h277v-93h-170v-185h160z" />
    <glyph glyph-name="afii10024" unicode="&#x416;" horiz-adv-x="649" 
d="M10 674h120l134 -298h11v298h98v-298h12l133 298h120l-177 -311c90 -16 121 -104 138 -186c13 -59 24 -120 45 -177h-104c-16 40 -27 107 -38 151c-15 69 -39 146 -118 146h-11v-297h-98v297h-10c-80 0 -103 -77 -120 -146c-10 -44 -21 -111 -38 -151h-102
c20 57 32 118 44 177c18 82 50 170 139 186z" />
    <glyph glyph-name="afii10025" unicode="&#x417;" horiz-adv-x="392" 
d="M46 559l-21 82c29 22 82 41 144 41c118 0 177 -74 177 -165c0 -70 -47 -137 -115 -156v-2c82 -15 136 -78 136 -170c0 -125 -98 -197 -219 -197c-51 0 -102 12 -133 32l19 87c28 -17 65 -29 105 -29c76 0 117 46 117 109c0 82 -64 119 -142 119h-20v82h14
c65 0 128 41 128 107c0 55 -34 91 -94 91c-33 0 -70 -15 -96 -31z" />
    <glyph glyph-name="afii10026" unicode="&#x418;" horiz-adv-x="491" 
d="M59 674h95v-190c0 -121 -5 -224 -11 -310h2c21 65 56 154 79 215l110 285h97v-674h-94v188c0 140 3 233 8 310h-2c-19 -71 -50 -149 -74 -211l-111 -287h-99v674z" />
    <glyph glyph-name="afii10027" unicode="&#x419;" horiz-adv-x="491" 
d="M59 674h95v-190c0 -121 -5 -224 -11 -310h2c21 65 56 154 79 215l110 285h97v-674h-94v188c0 140 3 233 8 310h-2c-19 -71 -50 -149 -74 -211l-111 -287h-99v674zM124 805h71c3 -33 15 -57 49 -57c32 0 48 24 51 57h71c-9 -77 -51 -107 -122 -107c-67 0 -114 30 -120 107
z" />
    <glyph glyph-name="afii10028" unicode="&#x41a;" horiz-adv-x="425" 
d="M59 674h105v-299h11l125 299h117l-159 -313c75 -23 100 -89 118 -171c14 -65 25 -130 45 -190h-106c-17 46 -27 107 -39 161c-16 80 -36 136 -102 136h-10v-297h-105v674z" />
    <glyph glyph-name="afii10029" unicode="&#x41b;" horiz-adv-x="466" 
d="M82 674h324v-674h-107v581h-118v-201c0 -164 -8 -302 -89 -362c-22 -17 -49 -27 -78 -27l-22 90c15 3 30 10 41 20c40 39 49 121 49 268v305z" />
    <glyph glyph-name="afii10030" unicode="&#x41c;" horiz-adv-x="620" 
d="M482 0l-13 260c-4 76 -8 168 -7 242h-3c-13 -74 -31 -155 -47 -220l-70 -274h-73l-66 267c-18 68 -36 152 -48 227h-3c-1 -76 -5 -165 -9 -245l-12 -257h-93l45 674h113l65 -273c21 -87 38 -158 51 -234h2c12 76 27 146 47 234l63 273h115l40 -674h-97z" />
    <glyph glyph-name="afii10031" unicode="&#x41d;" horiz-adv-x="492" 
d="M59 674h107v-279h160v279h107v-674h-107v297h-160v-297h-107v674z" />
    <glyph glyph-name="afii10032" unicode="&#x41e;" horiz-adv-x="465" 
d="M239 682c142 0 198 -155 198 -336c0 -254 -89 -354 -208 -354c-134 0 -201 143 -201 346c0 202 76 344 211 344zM234 589c-67 0 -95 -111 -95 -252c0 -147 28 -252 96 -252c69 0 91 121 91 256c0 122 -20 248 -92 248z" />
    <glyph glyph-name="afii10033" unicode="&#x41f;" horiz-adv-x="488" 
d="M59 674h370v-674h-107v581h-156v-581h-107v674z" />
    <glyph glyph-name="afii10034" unicode="&#x420;" horiz-adv-x="431" 
d="M59 0v664c35 8 78 13 126 13c71 0 128 -13 168 -51c36 -34 54 -86 54 -144c0 -68 -19 -115 -50 -151c-40 -47 -105 -69 -162 -69h-30v-262h-106zM165 585v-235c8 -2 16 -2 26 -2c70 0 109 48 109 126c0 63 -26 116 -98 116c-14 0 -28 -2 -37 -5z" />
    <glyph glyph-name="afii10035" unicode="&#x421;" horiz-adv-x="385" 
d="M356 101l13 -90c-20 -10 -55 -17 -99 -17c-154 0 -242 126 -242 334c0 259 137 352 257 352c44 0 74 -9 88 -17l-20 -90c-16 7 -32 13 -64 13c-73 0 -148 -67 -148 -251c0 -181 68 -246 149 -246c25 0 50 5 66 12z" />
    <glyph glyph-name="afii10036" unicode="&#x422;" horiz-adv-x="376" 
d="M134 0v576h-121v98h350v-98h-122v-576h-107z" />
    <glyph glyph-name="afii10037" unicode="&#x423;" horiz-adv-x="384" 
d="M-4 674h115l70 -266c11 -41 20 -79 26 -112h4c6 32 12 74 19 114l52 264h108l-91 -336c-22 -80 -49 -186 -88 -258c-31 -55 -79 -92 -133 -92c-19 0 -33 2 -45 5l4 87c6 -1 15 -2 27 -2c43 0 76 54 88 94c4 13 4 25 -1 39z" />
    <glyph glyph-name="afii10038" unicode="&#x424;" horiz-adv-x="554" 
d="M230 696h95v-52c113 -14 201 -106 201 -303c0 -216 -94 -293 -202 -307v-56h-95v56c-110 15 -201 90 -201 305c0 204 104 292 202 305v52zM230 112v454c-47 -10 -95 -68 -95 -230c0 -149 46 -213 95 -224zM324 566v-454c54 10 95 69 95 229c0 163 -52 217 -95 225z" />
    <glyph glyph-name="afii10039" unicode="&#x425;" horiz-adv-x="400" 
d="M396 0h-111l-50 141c-14 38 -26 75 -39 119h-3c-12 -44 -24 -84 -35 -121l-46 -139h-107l131 344l-126 330h111l49 -139c11 -33 22 -67 34 -108h2c13 44 23 75 32 110l44 137h107l-128 -332z" />
    <glyph glyph-name="afii10040" unicode="&#x426;" horiz-adv-x="498" 
d="M59 674h107v-581h155v581h107v-583l49 -1l-5 -234h-82l-5 144h-326v674z" />
    <glyph glyph-name="afii10041" unicode="&#x427;" horiz-adv-x="470" 
d="M53 674h106v-228c0 -59 21 -104 81 -104c23 0 48 6 65 17v315h106v-681h-105v282h-4c-31 -14 -63 -23 -98 -23c-103 0 -151 66 -151 179v243z" />
    <glyph glyph-name="afii10042" unicode="&#x428;" horiz-adv-x="680" 
d="M59 674h105v-581h124v581h105v-581h124v581h104v-674h-562v674z" />
    <glyph glyph-name="afii10043" unicode="&#x429;" horiz-adv-x="691" 
d="M59 674h105v-581h124v581h105v-581h124v581h104v-583l49 -1l-4 -234h-82l-5 144h-520v674z" />
    <glyph glyph-name="afii10044" unicode="&#x42a;" horiz-adv-x="544" 
d="M13 674h247v-259c15 2 34 3 52 3c124 0 207 -80 207 -203c0 -63 -19 -113 -53 -150c-42 -46 -110 -70 -199 -70c-50 0 -87 3 -112 7v581h-142v91zM261 329v-245c11 -2 21 -3 33 -3c75 0 114 57 114 127c0 73 -43 124 -113 124c-12 0 -23 -1 -34 -3z" />
    <glyph glyph-name="afii10045" unicode="&#x42b;" horiz-adv-x="638" 
d="M59 674h106v-260c16 3 34 4 49 4c120 0 202 -78 202 -201c0 -65 -19 -114 -52 -150c-43 -47 -110 -72 -199 -72c-44 0 -80 3 -106 7v672zM165 329v-245c11 -2 20 -3 30 -3c69 0 111 56 111 127c0 73 -43 124 -108 124c-11 0 -23 -1 -33 -3zM472 674h107v-674h-107v674z
" />
    <glyph glyph-name="afii10046" unicode="&#x42c;" horiz-adv-x="449" 
d="M59 674h106v-259c12 2 28 3 52 3c126 0 206 -77 206 -203c0 -64 -19 -112 -52 -148c-43 -47 -110 -72 -200 -72c-50 0 -86 3 -112 7v672zM165 329v-245c11 -2 20 -3 31 -3c75 0 117 57 117 128c0 70 -42 123 -114 123c-12 0 -24 -1 -34 -3z" />
    <glyph glyph-name="afii10047" unicode="&#x42d;" horiz-adv-x="398" 
d="M68 296v95h193c-1 80 -34 195 -135 195c-27 0 -54 -6 -76 -16l-25 86c27 13 63 25 112 25c191 0 233 -193 233 -344c0 -191 -86 -344 -247 -344c-48 0 -88 13 -110 24l21 89c21 -10 44 -17 77 -17c113 0 144 121 149 207h-192z" />
    <glyph glyph-name="afii10048" unicode="&#x42e;" horiz-adv-x="645" 
d="M59 674h105v-279h67c14 176 86 287 198 287c132 0 188 -155 188 -336c0 -254 -86 -354 -197 -354c-115 0 -182 117 -190 308h-66v-300h-105v674zM423 85h1c65 0 85 121 85 256c0 122 -19 248 -86 248c-65 0 -88 -125 -88 -250c0 -133 23 -254 88 -254z" />
    <glyph glyph-name="afii10049" unicode="&#x42f;" horiz-adv-x="439" 
d="M121 0h-113c10 21 18 46 25 71c17 69 18 164 66 217c13 14 31 26 50 31v2c-68 20 -116 75 -116 162c0 69 26 118 65 149c39 30 92 45 154 45c44 0 91 -4 128 -13v-664h-106v280h-21c-26 0 -48 -8 -64 -27c-32 -40 -38 -139 -50 -194c-4 -20 -9 -40 -18 -59zM274 363v226
c-9 2 -19 4 -33 4c-69 0 -99 -52 -99 -113c0 -72 45 -118 109 -118c9 0 14 0 23 1z" />
    <glyph glyph-name="afii10065" unicode="&#x430;" horiz-adv-x="396" 
d="M346 305v-194c0 -38 1 -79 6 -111h-96l-6 50h-2c-25 -38 -61 -58 -103 -58c-70 0 -123 59 -123 144c0 125 106 178 216 179v13c0 50 -20 86 -73 86c-35 0 -64 -10 -91 -27l-20 73c24 15 75 35 134 35c126 0 158 -86 158 -190zM241 153v91c-42 -1 -117 -12 -117 -97
c0 -55 29 -75 53 -75c26 0 52 18 61 56c2 7 3 16 3 25z" />
    <glyph glyph-name="afii10066" unicode="&#x431;" horiz-adv-x="423" 
d="M358 700l-7 -91c-20 -9 -51 -14 -81 -20c-68 -12 -98 -38 -118 -76c-16 -31 -24 -69 -28 -105h3c18 42 62 79 115 79c86 0 151 -75 151 -240c0 -155 -63 -257 -177 -257c-148 0 -181 169 -181 300c0 110 13 204 51 271c33 59 84 98 159 113c33 8 89 16 113 26zM287 240v1
c0 63 -13 162 -74 162c-31 0 -51 -24 -61 -52c-12 -31 -14 -68 -14 -93c0 -57 11 -183 76 -183c64 0 73 110 73 165z" />
    <glyph glyph-name="afii10067" unicode="&#x432;" horiz-adv-x="426" 
d="M49 -1v486c37 6 83 10 128 10c83 0 200 -18 200 -122c0 -60 -43 -101 -96 -114v-2c72 -11 116 -57 116 -118c0 -123 -140 -146 -237 -146c-45 0 -87 3 -111 6zM153 419v-132h32c44 0 91 26 91 71c0 46 -37 65 -87 65c-13 0 -25 -2 -36 -4zM152 216v-148c9 -2 23 -3 36 -3
c52 0 103 18 103 74c0 54 -52 77 -107 77h-32z" />
    <glyph glyph-name="afii10068" unicode="&#x433;" horiz-adv-x="312" 
d="M49 487h251v-89h-145v-398h-106v487z" />
    <glyph glyph-name="afii10069" unicode="&#x434;" horiz-adv-x="453" 
d="M104 487h286v-407l44 -2l-5 -210h-81l-5 132h-244l-5 -132h-81l-5 210l37 2c18 29 32 66 40 101c13 53 19 110 19 169v137zM198 403v-54c0 -57 -4 -115 -16 -168c-7 -35 -18 -69 -34 -99h137v321h-87z" />
    <glyph glyph-name="afii10070" unicode="&#x435;" horiz-adv-x="394" 
d="M363 215h-229c1 -109 52 -139 109 -139c35 0 65 8 87 18l15 -77c-30 -14 -77 -23 -122 -23c-125 0 -193 91 -193 242c0 161 78 259 182 259c102 0 154 -93 154 -223c0 -28 -2 -44 -3 -57zM135 291h132c1 78 -25 124 -63 124c-46 0 -67 -67 -69 -124z" />
    <glyph glyph-name="afii10072" unicode="&#x436;" horiz-adv-x="571" 
d="M8 487h113l95 -205h18v205h103v-205h18l95 205h113l-132 -220c51 -14 80 -67 94 -132c9 -43 26 -104 40 -135h-104c-12 24 -22 66 -32 113c-16 67 -44 99 -82 99h-10v-212h-103v212h-10c-49 0 -66 -37 -83 -102c-11 -47 -18 -84 -32 -110h-103c15 33 31 94 41 133
c14 60 41 119 94 134z" />
    <glyph glyph-name="afii10073" unicode="&#x437;" horiz-adv-x="359" 
d="M82 216v72h35c47 0 87 26 87 69c0 39 -28 62 -73 62c-30 0 -61 -11 -86 -24l-18 66c33 21 82 34 135 34c95 0 149 -51 149 -123c0 -59 -41 -97 -99 -112v-1c68 -10 118 -55 118 -121c0 -99 -95 -146 -196 -146c-46 0 -90 10 -124 28l20 72c23 -11 61 -22 94 -22
c64 0 97 34 97 71c0 54 -52 75 -103 75h-36z" />
    <glyph glyph-name="afii10074" unicode="&#x438;" horiz-adv-x="433" 
d="M49 487h97v-133c0 -87 -3 -167 -8 -229h2c19 57 44 118 62 165l77 197h104v-487h-97v131c0 101 4 157 8 227h-2c-17 -56 -33 -102 -53 -152c-14 -36 -55 -138 -87 -206h-103v487z" />
    <glyph glyph-name="afii10075" unicode="&#x439;" horiz-adv-x="433" 
d="M49 487h97v-133c0 -87 -3 -167 -8 -229h2c19 57 44 118 62 165l77 197h104v-487h-97v131c0 101 4 157 8 227h-2c-17 -56 -33 -102 -53 -152c-14 -36 -55 -138 -87 -206h-103v487zM96 673h68c3 -41 21 -64 52 -64c34 0 50 25 53 64h68c-7 -79 -49 -119 -123 -119
c-72 0 -113 40 -118 119z" />
    <glyph glyph-name="afii10076" unicode="&#x43a;" horiz-adv-x="393" 
d="M49 487h105v-202h13l103 202h113l-136 -214c57 -14 85 -73 100 -138c10 -39 26 -100 42 -135h-107c-14 29 -24 70 -36 116c-14 57 -37 93 -84 93h-8v-209h-105v487z" />
    <glyph glyph-name="afii10077" unicode="&#x43b;" horiz-adv-x="413" 
d="M69 487h295v-487h-107v400h-88v-127c0 -134 -11 -231 -91 -268c-19 -9 -40 -14 -60 -14l-18 85c22 5 34 16 42 29c23 30 27 94 27 164v218z" />
    <glyph glyph-name="afii10078" unicode="&#x43c;" horiz-adv-x="568" 
d="M35 0l35 487h130l49 -182c13 -48 23 -87 37 -148h3c14 62 22 100 34 148l47 182h131l32 -487h-99l-8 188c-2 54 -4 107 -6 205h-2c-9 -46 -26 -121 -44 -195l-51 -192h-83l-50 190c-15 60 -32 143 -44 197h-2c-1 -90 -3 -151 -6 -208l-6 -185h-97z" />
    <glyph glyph-name="afii10079" unicode="&#x43d;" horiz-adv-x="433" 
d="M49 487h107v-194h121v194h107v-487h-107v202h-121v-202h-107v487z" />
    <glyph glyph-name="afii10080" unicode="&#x43e;" horiz-adv-x="410" 
d="M208 495c102 0 171 -90 171 -250c0 -197 -101 -253 -175 -253c-103 0 -174 86 -174 250c0 176 87 253 178 253zM206 412c-58 0 -69 -97 -69 -168c0 -82 14 -170 71 -170c53 0 65 97 65 170c0 71 -12 168 -67 168z" />
    <glyph glyph-name="afii10081" unicode="&#x43f;" horiz-adv-x="431" 
d="M49 487h333v-487h-107v399h-119v-399h-107v487z" />
    <glyph glyph-name="afii10082" unicode="&#x440;" horiz-adv-x="425" 
d="M49 -192v526c0 65 -3 112 -4 153h93l6 -59h2c23 45 60 67 102 67c97 0 146 -105 146 -251c0 -176 -75 -252 -154 -252c-43 0 -69 26 -83 51h-2v-235h-106zM155 306v-128c0 -15 2 -30 5 -41c13 -47 38 -57 55 -57c54 0 73 77 73 163c0 96 -23 161 -72 161
c-27 0 -51 -30 -57 -62c-3 -11 -4 -23 -4 -36z" />
    <glyph glyph-name="afii10083" unicode="&#x441;" horiz-adv-x="313" 
d="M294 93l11 -83c-15 -8 -46 -16 -82 -16c-116 0 -193 86 -193 246c0 145 81 254 210 254c29 0 57 -7 70 -14l-16 -85c-11 4 -28 11 -52 11c-69 0 -105 -75 -105 -164c0 -100 40 -160 105 -160c20 0 37 3 52 11z" />
    <glyph glyph-name="afii10084" unicode="&#x442;" horiz-adv-x="346" 
d="M10 487h326v-88h-109v-399h-107v399h-110v88z" />
    <glyph glyph-name="afii10085" unicode="&#x443;" horiz-adv-x="370" 
d="M8 487h114l56 -265c7 -33 11 -62 16 -90h2c4 26 10 58 16 88l48 267h105l-91 -348c-26 -105 -59 -210 -114 -277c-38 -47 -81 -69 -100 -76l-34 92c22 10 45 27 66 50c19 20 33 46 42 68c4 10 6 16 6 23c0 6 -1 12 -3 18z" />
    <glyph glyph-name="afii10086" unicode="&#x444;" horiz-adv-x="521" 
d="M212 677h96l-1 -181c115 -18 183 -105 183 -254s-63 -236 -183 -251l1 -183h-96l1 183c-119 15 -183 101 -183 251c0 147 67 235 183 253zM213 59v369c-70 -23 -86 -112 -86 -184c0 -78 18 -164 86 -185zM307 428v-370c68 23 86 106 86 186c0 71 -16 159 -86 184z" />
    <glyph glyph-name="afii10087" unicode="&#x445;" horiz-adv-x="370" 
d="M10 487h116l36 -95c11 -29 20 -57 28 -83h2l27 83l36 95h108l-113 -240l113 -247h-116l-39 100c-10 25 -18 50 -27 78h-2c-8 -26 -18 -52 -27 -78l-36 -100h-108l112 243z" />
    <glyph glyph-name="afii10088" unicode="&#x446;" horiz-adv-x="443" 
d="M49 487h107v-399h118v399h106v-407l44 -2l-5 -210h-81l-5 132h-284v487z" />
    <glyph glyph-name="afii10089" unicode="&#x447;" horiz-adv-x="423" 
d="M44 487h106v-181c0 -45 14 -76 60 -76c23 0 42 8 57 18v239h107v-490h-106v178h-3c-22 -15 -58 -24 -91 -24c-87 0 -130 54 -130 145v191z" />
    <glyph glyph-name="afii10090" unicode="&#x448;" horiz-adv-x="631" 
d="M49 487h105v-399h109v399h105v-399h109v399h105v-487h-533v487z" />
    <glyph glyph-name="afii10091" unicode="&#x449;" horiz-adv-x="644" 
d="M49 487h105v-399h109v399h105v-399h109v399h105v-407l43 -2l-5 -210h-81l-5 132h-485v487z" />
    <glyph glyph-name="afii10092" unicode="&#x44a;" horiz-adv-x="500" 
d="M12 487h220v-163c19 2 34 3 49 3c101 0 193 -48 193 -159c0 -58 -24 -99 -58 -125c-46 -35 -111 -48 -174 -48c-39 0 -81 4 -115 8v397h-115v87zM232 245v-168c11 -2 20 -2 34 -2c51 0 100 27 100 87c0 61 -50 86 -105 86c-11 0 -20 -1 -29 -3z" />
    <glyph glyph-name="afii10093" unicode="&#x44b;" horiz-adv-x="583" 
d="M49 487h106v-163c12 2 29 3 48 3c95 0 181 -51 181 -159c0 -58 -23 -99 -58 -125c-46 -35 -111 -48 -162 -48c-38 0 -80 4 -115 8v484zM155 245v-168c9 -2 20 -2 30 -2c45 0 91 30 91 87c0 59 -47 86 -92 86c-11 0 -20 -1 -29 -3zM429 487h105v-487h-105v487z" />
    <glyph glyph-name="afii10094" unicode="&#x44c;" horiz-adv-x="424" 
d="M49 487h106v-163c19 2 33 3 48 3c104 0 194 -48 194 -162c0 -55 -24 -96 -59 -122c-46 -35 -111 -48 -174 -48c-38 0 -80 4 -115 8v484zM155 245v-169c11 -1 20 -1 30 -1c55 0 104 27 104 87c0 61 -50 86 -105 86c-11 0 -20 -1 -29 -3z" />
    <glyph glyph-name="afii10095" unicode="&#x44d;" horiz-adv-x="352" 
d="M49 211v73h163c-3 65 -35 129 -108 129c-32 0 -55 -8 -72 -15l-16 74c21 13 64 23 105 23c60 0 110 -25 143 -65c38 -47 58 -113 58 -184c0 -146 -83 -253 -216 -253c-35 0 -76 8 -97 20l16 78c20 -8 42 -14 72 -14c65 0 112 56 116 134h-164z" />
    <glyph glyph-name="afii10096" unicode="&#x44e;" horiz-adv-x="571" 
d="M49 487h105v-194h52c16 141 90 202 167 202c100 0 168 -90 168 -250c0 -197 -99 -253 -170 -253c-91 0 -157 73 -166 216h-51v-208h-105v487zM373 74h1c50 0 62 97 62 170c0 71 -12 168 -64 168c-55 0 -67 -97 -67 -168c0 -82 15 -170 68 -170z" />
    <glyph glyph-name="afii10097" unicode="&#x44f;" horiz-adv-x="411" 
d="M361 482v-482h-102v199h-17c-25 0 -41 -7 -52 -16c-35 -25 -43 -88 -59 -147c-3 -13 -8 -25 -13 -36h-112c9 15 18 32 24 52c13 45 24 110 57 146c13 14 33 27 60 33v2c-60 12 -111 49 -111 120c0 47 20 78 53 103c31 23 90 35 151 35c47 0 92 -3 121 -9zM259 266v153
c-10 3 -19 4 -30 4c-49 0 -86 -24 -86 -76c0 -50 43 -82 92 -82c9 0 18 0 24 1z" />
    <glyph glyph-name="afii10071" unicode="&#x451;" horiz-adv-x="394" 
d="M130 563h-1c-28 0 -52 23 -52 55s24 55 53 55c30 0 52 -22 52 -55c0 -32 -22 -55 -52 -55zM298 563h-1c-29 0 -52 23 -52 55s24 55 53 55s52 -22 52 -55c0 -32 -22 -55 -52 -55zM363 215h-229c1 -109 52 -139 109 -139c35 0 65 8 87 18l15 -77c-30 -14 -77 -23 -122 -23
c-125 0 -193 91 -193 242c0 161 78 259 182 259c102 0 154 -93 154 -223c0 -28 -2 -44 -3 -57zM135 291h132c1 78 -25 124 -63 124c-46 0 -67 -67 -69 -124z" />
    <glyph glyph-name="afii10099" unicode="&#x452;" horiz-adv-x="440" 
d="M7 621h52v71h107v-71h170v-68h-170v-120h2c22 32 58 57 100 57c43 0 80 -22 103 -70c24 -45 35 -115 35 -198c0 -147 -28 -235 -80 -291c-29 -31 -70 -52 -98 -56l-24 88c17 4 40 16 57 41c27 44 39 127 39 213c0 41 -2 94 -17 137c-11 28 -27 46 -53 46
c-20 0 -36 -13 -46 -29c-13 -20 -18 -44 -18 -63v-308h-107v553h-52v68z" />
    <glyph glyph-name="afii10100" unicode="&#x453;" horiz-adv-x="312" 
d="M49 487h251v-89h-145v-398h-106v487zM195 686h99l-103 -138h-68z" />
    <glyph glyph-name="afii10101" unicode="&#x454;" horiz-adv-x="353" 
d="M346 473l-19 -76c-15 8 -37 18 -70 18c-76 0 -113 -67 -117 -131h168v-73h-169c5 -81 49 -137 121 -137c24 0 50 6 69 15l16 -75c-23 -12 -56 -21 -102 -21c-134 0 -213 107 -213 248c0 136 75 254 224 254c38 0 75 -10 92 -22z" />
    <glyph glyph-name="afii10102" unicode="&#x455;" horiz-adv-x="308" 
d="M20 22l21 79c18 -12 52 -26 84 -26c38 0 61 21 61 56c0 30 -14 50 -59 79c-72 43 -99 90 -99 139c0 84 62 146 149 146c40 0 70 -11 94 -24l-22 -79c-19 12 -41 21 -67 21c-37 0 -55 -24 -55 -51c0 -26 12 -41 59 -71c65 -39 99 -87 99 -147c0 -99 -69 -150 -161 -150
c-38 0 -82 11 -104 28z" />
    <glyph glyph-name="afii10103" unicode="&#x456;" horiz-adv-x="205" 
d="M156 0h-107v487h107v-487zM102 676c33 0 57 -24 57 -62c1 -36 -24 -61 -59 -61c-31 0 -56 25 -55 61c-1 38 25 62 57 62z" />
    <glyph glyph-name="afii10104" unicode="&#x457;" horiz-adv-x="205" 
d="M19 563h-1c-28 0 -52 23 -52 55s24 55 53 55c30 0 52 -22 52 -55c0 -32 -22 -55 -52 -55zM187 563h-1c-29 0 -52 23 -52 55s24 55 53 55s52 -22 52 -55c0 -32 -22 -55 -52 -55zM156 0h-107v487h107v-487z" />
    <glyph glyph-name="afii10105" unicode="&#x458;" horiz-adv-x="208" 
d="M-24 -200l-10 85c23 4 48 10 64 31c18 23 23 58 23 141v430h107v-454c0 -105 -19 -155 -58 -190c-33 -28 -87 -42 -126 -43zM107 676c32 0 57 -24 57 -62c0 -36 -25 -61 -59 -61c-32 0 -57 25 -56 61c-1 38 26 62 58 62z" />
    <glyph glyph-name="afii10106" unicode="&#x459;" horiz-adv-x="633" 
d="M69 487h296v-163c19 2 33 3 48 3c102 0 194 -49 194 -161c0 -55 -23 -95 -57 -122c-48 -36 -118 -49 -180 -49c-38 0 -76 4 -110 8v397h-91v-127c0 -135 -11 -231 -91 -268c-18 -9 -40 -14 -60 -14l-18 85c22 5 34 16 42 29c23 27 27 87 27 164v218zM365 245v-168
c11 -2 20 -2 31 -2c54 0 103 27 103 87c0 61 -49 86 -105 86c-11 0 -20 -1 -29 -3z" />
    <glyph glyph-name="afii10107" unicode="&#x45a;" horiz-adv-x="643" 
d="M49 487h107v-180h114v180h105v-166c19 2 34 3 51 3c103 0 191 -51 191 -162c0 -54 -22 -92 -57 -118c-48 -36 -117 -49 -180 -49c-38 0 -76 3 -110 8v218h-114v-221h-107v487zM375 242v-165c11 -2 20 -2 33 -2c55 0 101 26 101 86s-49 84 -105 84c-10 0 -19 -1 -29 -3z
" />
    <glyph glyph-name="afii10108" unicode="&#x45b;" horiz-adv-x="444" 
d="M7 621h52v71h107v-71h170v-68h-170v-122h2c11 17 26 31 42 42c18 11 39 17 65 17c77 0 120 -64 120 -183v-307h-107v299c0 53 -11 101 -56 101c-32 0 -53 -25 -62 -60c-2 -9 -4 -23 -4 -39v-301h-107v553h-52v68z" />
    <glyph glyph-name="afii10109" unicode="&#x45c;" horiz-adv-x="393" 
d="M49 487h105v-202h13l103 202h113l-136 -214c57 -14 85 -73 100 -138c10 -39 26 -100 42 -135h-107c-14 29 -24 70 -36 116c-14 57 -37 93 -84 93h-8v-209h-105v487zM225 686h99l-103 -138h-68z" />
    <glyph glyph-name="afii10110" unicode="&#x45e;" horiz-adv-x="370" 
d="M65 673h68c3 -41 21 -64 52 -64c34 0 50 25 53 64h68c-7 -79 -49 -119 -123 -119c-72 0 -113 40 -118 119zM8 487h114l56 -265c7 -33 11 -62 16 -90h2c4 26 10 58 16 88l48 267h105l-91 -348c-26 -105 -59 -210 -114 -277c-38 -47 -81 -69 -100 -76l-34 92
c22 10 45 27 66 50c19 20 33 46 42 68c4 10 6 16 6 23c0 6 -1 12 -3 18z" />
    <glyph glyph-name="afii10193" unicode="&#x45f;" horiz-adv-x="430" 
d="M49 487h108v-399h117v399h106v-487h-118l-6 -136h-82l-6 136h-119v487z" />
    <glyph glyph-name="afii10050" unicode="&#x490;" horiz-adv-x="356" 
d="M59 674h206l13 117h75l-10 -210h-178v-581h-106v674z" />
    <glyph glyph-name="afii10098" unicode="&#x491;" horiz-adv-x="310" 
d="M49 487h168l11 104h78l-8 -193h-143v-398h-106v487z" />
    <glyph glyph-name="afii10846" unicode="&#x4d9;" horiz-adv-x="328" 
d="M63 393l-15 73c35 19 80 29 124 29c124 0 191 -93 191 -244c0 -159 -75 -257 -180 -257c-102 0 -155 93 -155 223c0 24 1 42 3 54h228c-1 112 -48 141 -106 141c-38 0 -68 -9 -90 -19zM259 195h-132c-1 -75 26 -121 64 -121c46 0 66 67 68 121z" />
    <glyph glyph-name="Wgrave" unicode="&#x1e80;" horiz-adv-x="668" 
d="M242 0h-104l-122 674h111l44 -294c11 -80 19 -157 28 -240h3c9 85 24 158 39 241l54 293h88l52 -289c14 -78 27 -153 36 -245h2c10 93 20 165 30 243l44 291h104l-124 -674h-109l-51 269c-12 67 -23 143 -31 221h-2c-11 -79 -23 -153 -37 -223zM191 821h114l88 -111h-79z
" />
    <glyph glyph-name="wgrave" unicode="&#x1e81;" horiz-adv-x="594" 
d="M177 686h99l72 -138h-68zM8 487h114l35 -223c8 -52 16 -103 21 -151h4c7 48 18 103 28 149l49 225h82l47 -219c11 -55 21 -104 28 -155h3c4 49 12 99 21 153l37 221h106l-124 -487h-90l-45 199c-11 47 -19 94 -26 150h-2c-7 -57 -17 -105 -28 -151l-49 -198h-91z" />
    <glyph glyph-name="Wacute" unicode="&#x1e82;" horiz-adv-x="668" 
d="M242 0h-104l-122 674h111l44 -294c11 -80 19 -157 28 -240h3c9 85 24 158 39 241l54 293h88l52 -289c14 -78 27 -153 36 -245h2c10 93 20 165 30 243l44 291h104l-124 -674h-109l-51 269c-12 67 -23 143 -31 221h-2c-11 -79 -23 -153 -37 -223zM373 821h114l-123 -111
h-79z" />
    <glyph glyph-name="wacute" unicode="&#x1e83;" horiz-adv-x="594" 
d="M330 686h99l-103 -138h-68zM8 487h114l35 -223c8 -52 16 -103 21 -151h4c7 48 18 103 28 149l49 225h82l47 -219c11 -55 21 -104 28 -155h3c4 49 12 99 21 153l37 221h106l-124 -487h-90l-45 199c-11 47 -19 94 -26 150h-2c-7 -57 -17 -105 -28 -151l-49 -198h-91z" />
    <glyph glyph-name="Wdieresis" unicode="&#x1e84;" horiz-adv-x="668" 
d="M242 0h-104l-122 674h111l44 -294c11 -80 19 -157 28 -240h3c9 85 24 158 39 241l54 293h88l52 -289c14 -78 27 -153 36 -245h2c10 93 20 165 30 243l44 291h104l-124 -674h-109l-51 269c-12 67 -23 143 -31 221h-2c-11 -79 -23 -153 -37 -223zM251 719h-1
c-27 0 -50 24 -50 56s23 56 51 56c30 0 52 -24 52 -56s-22 -56 -52 -56zM426 719h-1c-29 0 -52 24 -52 56s24 56 53 56s51 -24 51 -56s-22 -56 -51 -56z" />
    <glyph glyph-name="wdieresis" unicode="&#x1e85;" horiz-adv-x="594" 
d="M213 563h-1c-28 0 -52 23 -52 55s24 55 53 55c30 0 52 -22 52 -55c0 -32 -22 -55 -52 -55zM381 563h-1c-29 0 -52 23 -52 55s24 55 53 55s52 -22 52 -55c0 -32 -22 -55 -52 -55zM8 487h114l35 -223c8 -52 16 -103 21 -151h4c7 48 18 103 28 149l49 225h82l47 -219
c11 -55 21 -104 28 -155h3c4 49 12 99 21 153l37 221h106l-124 -487h-90l-45 199c-11 47 -19 94 -26 150h-2c-7 -57 -17 -105 -28 -151l-49 -198h-91z" />
    <glyph glyph-name="uni1EA0" unicode="&#x1ea0;" horiz-adv-x="448" 
d="M288 176h-134l-36 -176h-104l150 674h125l139 -674h-104zM166 259h111l-28 155c-8 44 -17 106 -25 153h-3c-7 -47 -17 -111 -25 -153zM223 -80c29 0 52 -23 52 -55s-22 -55 -53 -55c-29 0 -53 23 -53 55s25 55 54 55z" />
    <glyph glyph-name="uni1EA1" unicode="&#x1ea1;" horiz-adv-x="396" 
d="M346 305v-194c0 -38 1 -79 6 -111h-96l-6 50h-2c-25 -38 -61 -58 -103 -58c-70 0 -123 59 -123 144c0 125 106 178 216 179v13c0 50 -20 86 -73 86c-35 0 -64 -10 -91 -27l-20 73c24 15 75 35 134 35c126 0 158 -86 158 -190zM241 153v91c-42 -1 -117 -12 -117 -97
c0 -55 29 -75 53 -75c26 0 52 18 61 56c2 7 3 16 3 25zM196 -80c29 0 52 -23 52 -55s-22 -55 -53 -55c-29 0 -53 23 -53 55s25 55 54 55z" />
    <glyph glyph-name="uni1EA2" unicode="&#x1ea2;" horiz-adv-x="448" 
d="M288 176h-134l-36 -176h-104l150 674h125l139 -674h-104zM166 259h111l-28 155c-8 44 -17 106 -25 153h-3c-7 -47 -17 -111 -25 -153zM246 706l-53 10c13 39 45 50 45 80c0 17 -11 29 -28 29s-29 -17 -38 -32l-35 28c17 36 48 64 94 64c44 0 78 -32 78 -73
c0 -46 -41 -64 -63 -106z" />
    <glyph glyph-name="uni1EA3" unicode="&#x1ea3;" horiz-adv-x="396" 
d="M346 305v-194c0 -38 1 -79 6 -111h-96l-6 50h-2c-25 -38 -61 -58 -103 -58c-70 0 -123 59 -123 144c0 125 106 178 216 179v13c0 50 -20 86 -73 86c-35 0 -64 -10 -91 -27l-20 73c24 15 75 35 134 35c126 0 158 -86 158 -190zM241 153v91c-42 -1 -117 -12 -117 -97
c0 -55 29 -75 53 -75c26 0 52 18 61 56c2 7 3 16 3 25zM218 526l-55 12c12 44 51 62 51 98c0 17 -12 31 -30 31s-30 -16 -38 -32l-36 28c17 37 49 65 93 65c47 0 82 -34 82 -77c0 -55 -46 -76 -67 -125z" />
    <glyph glyph-name="uni1EA4" unicode="&#x1ea4;" horiz-adv-x="448" 
d="M288 176h-134l-36 -176h-104l150 674h125l139 -674h-104zM166 259h111l-28 155c-8 44 -17 106 -25 153h-3c-7 -47 -17 -111 -25 -153zM190 814h78l76 -104h-76l-38 56h-2l-38 -56h-73zM368 894h99l-106 -109h-56z" />
    <glyph glyph-name="uni1EA5" unicode="&#x1ea5;" horiz-adv-x="396" 
d="M346 305v-194c0 -38 1 -79 6 -111h-96l-6 50h-2c-25 -38 -61 -58 -103 -58c-70 0 -123 59 -123 144c0 125 106 178 216 179v13c0 50 -20 86 -73 86c-35 0 -64 -10 -91 -27l-20 73c24 15 75 35 134 35c126 0 158 -86 158 -190zM241 153v91c-42 -1 -117 -12 -117 -97
c0 -55 29 -75 53 -75c26 0 52 18 61 56c2 7 3 16 3 25zM156 686h74l67 -138h-71l-32 81h-2l-32 -81h-72zM328 757h83l-85 -127h-52z" />
    <glyph glyph-name="uni1EA6" unicode="&#x1ea6;" horiz-adv-x="448" 
d="M288 176h-134l-36 -176h-104l150 674h125l139 -674h-104zM166 259h111l-28 155c-8 44 -17 106 -25 153h-3c-7 -47 -17 -111 -25 -153zM244 879h99l63 -108h-56zM187 814h78l76 -104h-76l-38 56h-2l-38 -56h-73z" />
    <glyph glyph-name="uni1EA7" unicode="&#x1ea7;" horiz-adv-x="396" 
d="M346 305v-194c0 -38 1 -79 6 -111h-96l-6 50h-2c-25 -38 -61 -58 -103 -58c-70 0 -123 59 -123 144c0 125 106 178 216 179v13c0 50 -20 86 -73 86c-35 0 -64 -10 -91 -27l-20 73c24 15 75 35 134 35c126 0 158 -86 158 -190zM241 153v91c-42 -1 -117 -12 -117 -97
c0 -55 29 -75 53 -75c26 0 52 18 61 56c2 7 3 16 3 25zM229 758h83l44 -126h-51zM160 686h74l67 -138h-71l-32 81h-2l-32 -81h-72z" />
    <glyph glyph-name="uni1EA8" unicode="&#x1ea8;" horiz-adv-x="448" 
d="M288 176h-134l-36 -176h-104l150 674h125l139 -674h-104zM166 259h111l-28 155c-8 44 -17 106 -25 153h-3c-7 -47 -17 -111 -25 -153zM189 814h78l76 -104h-76l-38 56h-2l-38 -56h-73zM364 753l-44 10c12 37 44 49 44 77c0 16 -11 28 -27 28c-17 0 -30 -15 -39 -31
l-31 25c16 33 45 60 88 60c41 0 71 -30 71 -66c0 -47 -40 -64 -62 -103z" />
    <glyph glyph-name="uni1EA9" unicode="&#x1ea9;" horiz-adv-x="396" 
d="M346 305v-194c0 -38 1 -79 6 -111h-96l-6 50h-2c-25 -38 -61 -58 -103 -58c-70 0 -123 59 -123 144c0 125 106 178 216 179v13c0 50 -20 86 -73 86c-35 0 -64 -10 -91 -27l-20 73c24 15 75 35 134 35c126 0 158 -86 158 -190zM241 153v91c-42 -1 -117 -12 -117 -97
c0 -55 29 -75 53 -75c26 0 52 18 61 56c2 7 3 16 3 25zM156 686h74l67 -138h-71l-32 81h-2l-32 -81h-72zM327 620l-48 10c12 36 42 47 42 75c0 16 -11 28 -27 28s-28 -15 -37 -30l-32 25c17 34 46 60 87 60c43 0 75 -30 75 -69c0 -44 -39 -59 -60 -99z" />
    <glyph glyph-name="uni1EAA" unicode="&#x1eaa;" horiz-adv-x="448" 
d="M288 176h-134l-36 -176h-104l150 674h125l139 -674h-104zM166 259h111l-28 155c-8 44 -17 106 -25 153h-3c-7 -47 -17 -111 -25 -153zM183 814h86l86 -104h-83l-45 53h-2l-44 -53h-81zM166 828h-51c-1 47 21 93 66 93c23 0 37 -9 52 -17c13 -8 26 -15 40 -15s22 6 23 33
h50c0 -60 -24 -93 -67 -93c-18 0 -36 10 -50 18c-16 7 -26 14 -39 14s-22 -10 -24 -33z" />
    <glyph glyph-name="uni1EAB" unicode="&#x1eab;" horiz-adv-x="396" 
d="M346 305v-194c0 -38 1 -79 6 -111h-96l-6 50h-2c-25 -38 -61 -58 -103 -58c-70 0 -123 59 -123 144c0 125 106 178 216 179v13c0 50 -20 86 -73 86c-35 0 -64 -10 -91 -27l-20 73c24 15 75 35 134 35c126 0 158 -86 158 -190zM241 153v91c-42 -1 -117 -12 -117 -97
c0 -55 29 -75 53 -75c26 0 52 18 61 56c2 7 3 16 3 25zM161 656h75l79 -108h-76l-39 59h-2l-40 -59h-77zM137 669h-51c-1 47 21 93 66 93c23 0 37 -9 52 -17c13 -8 27 -15 40 -15c14 0 22 6 23 33h50c0 -60 -24 -93 -67 -93c-18 0 -36 10 -50 17c-15 8 -26 15 -39 15
s-22 -11 -24 -33z" />
    <glyph glyph-name="uni1EAC" unicode="&#x1eac;" horiz-adv-x="448" 
d="M288 176h-134l-36 -176h-104l150 674h125l139 -674h-104zM166 259h111l-28 155c-8 44 -17 106 -25 153h-3c-7 -47 -17 -111 -25 -153zM184 814h86l86 -104h-84l-44 53h-2l-45 -53h-81zM224 -190h-1c-29 0 -54 25 -54 55c0 31 25 55 55 55s54 -24 54 -55
c0 -30 -24 -55 -54 -55z" />
    <glyph glyph-name="uni1EAD" unicode="&#x1ead;" horiz-adv-x="396" 
d="M346 305v-194c0 -38 1 -79 6 -111h-96l-6 50h-2c-25 -38 -61 -58 -103 -58c-70 0 -123 59 -123 144c0 125 106 178 216 179v13c0 50 -20 86 -73 86c-35 0 -64 -10 -91 -27l-20 73c24 15 75 35 134 35c126 0 158 -86 158 -190zM241 153v91c-42 -1 -117 -12 -117 -97
c0 -55 29 -75 53 -75c26 0 52 18 61 56c2 7 3 16 3 25zM162 686h73l83 -138h-75l-43 83h-2l-43 -83h-76zM196 -80c29 0 52 -23 52 -55s-22 -55 -53 -55c-29 0 -53 23 -53 55s25 55 54 55z" />
    <glyph glyph-name="uni1EAE" unicode="&#x1eae;" horiz-adv-x="448" 
d="M288 176h-134l-36 -176h-104l150 674h125l139 -674h-104zM166 259h111l-28 155c-8 44 -17 106 -25 153h-3c-7 -47 -17 -111 -25 -153zM112 796h49c8 -28 30 -45 64 -45c35 0 58 14 66 45h50c-8 -63 -54 -100 -117 -100c-62 0 -105 36 -112 100zM254 893h99l-106 -109h-56
z" />
    <glyph glyph-name="uni1EAF" unicode="&#x1eaf;" horiz-adv-x="396" 
d="M346 305v-194c0 -38 1 -79 6 -111h-96l-6 50h-2c-25 -38 -61 -58 -103 -58c-70 0 -123 59 -123 144c0 125 106 178 216 179v13c0 50 -20 86 -73 86c-35 0 -64 -10 -91 -27l-20 73c24 15 75 35 134 35c126 0 158 -86 158 -190zM241 153v91c-42 -1 -117 -12 -117 -97
c0 -55 29 -75 53 -75c26 0 52 18 61 56c2 7 3 16 3 25zM222 753h89l-96 -121h-57zM75 649h53c4 -35 29 -57 66 -57c42 0 65 24 68 57h53c0 -70 -51 -119 -122 -119c-70 0 -118 50 -118 119z" />
    <glyph glyph-name="uni1EB0" unicode="&#x1eb0;" horiz-adv-x="448" 
d="M288 176h-134l-36 -176h-104l150 674h125l139 -674h-104zM166 259h111l-28 155c-8 44 -17 106 -25 153h-3c-7 -47 -17 -111 -25 -153zM100 893h99l63 -109h-57zM109 796h49c8 -28 30 -45 64 -45c35 0 59 14 67 45h49c-7 -63 -54 -100 -116 -100s-106 36 -113 100z" />
    <glyph glyph-name="uni1EB1" unicode="&#x1eb1;" horiz-adv-x="396" 
d="M346 305v-194c0 -38 1 -79 6 -111h-96l-6 50h-2c-25 -38 -61 -58 -103 -58c-70 0 -123 59 -123 144c0 125 106 178 216 179v13c0 50 -20 86 -73 86c-35 0 -64 -10 -91 -27l-20 73c24 15 75 35 134 35c126 0 158 -86 158 -190zM241 153v91c-42 -1 -117 -12 -117 -97
c0 -55 29 -75 53 -75c26 0 52 18 61 56c2 7 3 16 3 25zM80 753h89l63 -121h-57zM78 649h53c4 -35 29 -57 66 -57c42 0 65 24 68 57h53c0 -70 -51 -119 -122 -119c-70 0 -118 50 -118 119z" />
    <glyph glyph-name="uni1EB2" unicode="&#x1eb2;" horiz-adv-x="448" 
d="M288 176h-134l-36 -176h-104l150 674h125l139 -674h-104zM166 259h111l-28 155c-8 44 -17 106 -25 153h-3c-7 -47 -17 -111 -25 -153zM240 773l-44 10c12 37 43 49 43 77c0 16 -10 28 -26 28c-18 0 -30 -15 -39 -31l-32 25c17 33 46 60 89 60c41 0 71 -30 71 -66
c0 -47 -40 -64 -62 -103zM112 796h49c8 -28 30 -45 64 -45c35 0 58 14 66 45h50c-8 -63 -54 -100 -116 -100c-63 0 -106 36 -113 100z" />
    <glyph glyph-name="uni1EB3" unicode="&#x1eb3;" horiz-adv-x="396" 
d="M346 305v-194c0 -38 1 -79 6 -111h-96l-6 50h-2c-25 -38 -61 -58 -103 -58c-70 0 -123 59 -123 144c0 125 106 178 216 179v13c0 50 -20 86 -73 86c-35 0 -64 -10 -91 -27l-20 73c24 15 75 35 134 35c126 0 158 -86 158 -190zM241 153v91c-42 -1 -117 -12 -117 -97
c0 -55 29 -75 53 -75c26 0 52 18 61 56c2 7 3 16 3 25zM213 622l-48 10c12 36 42 47 42 75c0 15 -10 27 -27 27c-16 0 -28 -15 -37 -29l-32 25c17 34 46 60 88 60s75 -30 75 -69c0 -44 -39 -59 -61 -99zM76 649h53c4 -35 29 -57 66 -57c42 0 65 24 68 57h53
c0 -70 -51 -119 -122 -119c-70 0 -118 50 -118 119z" />
    <glyph glyph-name="uni1EB4" unicode="&#x1eb4;" horiz-adv-x="448" 
d="M288 176h-134l-36 -176h-104l150 674h125l139 -674h-104zM166 259h111l-28 155c-8 44 -17 106 -25 153h-3c-7 -47 -17 -111 -25 -153zM161 827h-51c2 41 21 85 65 85c23 0 37 -9 52 -17c14 -8 27 -15 40 -15c14 0 22 6 23 33h50c0 -60 -23 -93 -66 -93
c-19 0 -37 10 -51 17c-15 8 -25 15 -39 15c-13 0 -20 -11 -23 -25zM107 796h49c8 -28 30 -45 64 -45c35 0 59 14 67 45h49c-7 -63 -54 -100 -116 -100s-106 36 -113 100z" />
    <glyph glyph-name="uni1EB5" unicode="&#x1eb5;" horiz-adv-x="396" 
d="M346 305v-194c0 -38 1 -79 6 -111h-96l-6 50h-2c-25 -38 -61 -58 -103 -58c-70 0 -123 59 -123 144c0 125 106 178 216 179v13c0 50 -20 86 -73 86c-35 0 -64 -10 -91 -27l-20 73c24 15 75 35 134 35c126 0 158 -86 158 -190zM241 153v91c-42 -1 -117 -12 -117 -97
c0 -55 29 -75 53 -75c26 0 52 18 61 56c2 7 3 16 3 25zM135 684h-52c2 41 22 85 66 85c23 0 37 -9 52 -17c14 -8 27 -15 40 -15c14 0 22 6 23 33h50c0 -60 -24 -93 -66 -93c-19 0 -37 10 -51 18c-15 7 -26 14 -39 14s-20 -10 -23 -25zM80 650h51c3 -35 29 -61 66 -61
c42 0 66 28 68 61h51c1 -70 -49 -118 -120 -118c-70 0 -117 49 -116 118z" />
    <glyph glyph-name="uni1EB6" unicode="&#x1eb6;" horiz-adv-x="448" 
d="M288 176h-134l-36 -176h-104l150 674h125l139 -674h-104zM166 259h111l-28 155c-8 44 -17 106 -25 153h-3c-7 -47 -17 -111 -25 -153zM113 824h59c3 -26 23 -43 55 -43s52 15 56 43h59c0 -64 -40 -107 -114 -107c-75 0 -115 41 -115 107zM224 -190h-1
c-29 0 -54 25 -54 55c0 31 25 55 55 55s54 -24 54 -55c0 -30 -24 -55 -54 -55z" />
    <glyph glyph-name="uni1EB7" unicode="&#x1eb7;" horiz-adv-x="396" 
d="M346 305v-194c0 -38 1 -79 6 -111h-96l-6 50h-2c-25 -38 -61 -58 -103 -58c-70 0 -123 59 -123 144c0 125 106 178 216 179v13c0 50 -20 86 -73 86c-35 0 -64 -10 -91 -27l-20 73c24 15 75 35 134 35c126 0 158 -86 158 -190zM241 153v91c-42 -1 -117 -12 -117 -97
c0 -55 29 -75 53 -75c26 0 52 18 61 56c2 7 3 16 3 25zM85 675h55c3 -36 26 -57 57 -57c38 0 59 25 59 57h55c2 -70 -44 -121 -115 -121c-70 0 -113 53 -111 121zM196 -80c29 0 52 -23 52 -55s-22 -55 -53 -55c-29 0 -53 23 -53 55s25 55 54 55z" />
    <glyph glyph-name="uni1EB8" unicode="&#x1eb8;" horiz-adv-x="376" 
d="M326 396v-89h-160v-214h182v-93h-289v674h277v-93h-170v-185h160zM188 -190h-1c-29 0 -54 25 -54 55c0 31 25 55 55 55s54 -24 54 -55c0 -30 -24 -55 -54 -55z" />
    <glyph glyph-name="uni1EB9" unicode="&#x1eb9;" horiz-adv-x="394" 
d="M363 215h-229c1 -109 52 -139 109 -139c35 0 65 8 87 18l15 -77c-30 -14 -77 -23 -122 -23c-125 0 -193 91 -193 242c0 161 78 259 182 259c102 0 154 -93 154 -223c0 -28 -2 -44 -3 -57zM135 291h132c1 78 -25 124 -63 124c-46 0 -67 -67 -69 -124zM196 -80
c29 0 52 -23 52 -55s-22 -55 -53 -55c-29 0 -53 23 -53 55s25 55 54 55z" />
    <glyph glyph-name="uni1EBA" unicode="&#x1eba;" horiz-adv-x="376" 
d="M326 396v-89h-160v-214h182v-93h-289v674h277v-93h-170v-185h160zM220 706l-53 10c13 39 45 50 45 80c0 17 -11 29 -28 29s-29 -17 -38 -32l-35 28c17 36 48 64 94 64c44 0 78 -32 78 -73c0 -46 -41 -64 -63 -106z" />
    <glyph glyph-name="uni1EBB" unicode="&#x1ebb;" horiz-adv-x="394" 
d="M363 215h-229c1 -109 52 -139 109 -139c35 0 65 8 87 18l15 -77c-30 -14 -77 -23 -122 -23c-125 0 -193 91 -193 242c0 161 78 259 182 259c102 0 154 -93 154 -223c0 -28 -2 -44 -3 -57zM135 291h132c1 78 -25 124 -63 124c-46 0 -67 -67 -69 -124zM217 526l-55 12
c12 44 51 62 51 98c0 17 -12 31 -30 31s-30 -16 -38 -32l-36 28c17 37 49 65 93 65c47 0 82 -34 82 -77c0 -55 -46 -76 -67 -125z" />
    <glyph glyph-name="uni1EBC" unicode="&#x1ebc;" horiz-adv-x="376" 
d="M326 396v-89h-160v-214h182v-93h-289v674h277v-93h-170v-185h160zM137 718h-51c-2 66 23 106 63 106c21 0 36 -9 50 -17c14 -9 26 -18 38 -18c15 0 22 9 25 37h50c2 -71 -20 -103 -66 -103c-21 0 -38 8 -51 16c-14 9 -24 16 -36 16s-20 -12 -22 -37z" />
    <glyph glyph-name="uni1EBD" unicode="&#x1ebd;" horiz-adv-x="394" 
d="M133 559h-52c0 59 22 107 67 107c22 0 38 -10 54 -18c13 -8 24 -16 38 -16c13 0 22 6 23 36h50c0 -68 -24 -102 -67 -102c-19 0 -37 9 -51 16c-15 8 -25 17 -38 17c-14 0 -23 -14 -24 -40zM363 215h-229c1 -109 52 -139 109 -139c35 0 65 8 87 18l15 -77
c-30 -14 -77 -23 -122 -23c-125 0 -193 91 -193 242c0 161 78 259 182 259c102 0 154 -93 154 -223c0 -28 -2 -44 -3 -57zM135 291h132c1 78 -25 124 -63 124c-46 0 -67 -67 -69 -124z" />
    <glyph glyph-name="uni1EBE" unicode="&#x1ebe;" horiz-adv-x="376" 
d="M326 396v-89h-160v-214h182v-93h-289v674h277v-93h-170v-185h160zM161 814h78l76 -104h-76l-38 56h-2l-38 -56h-73zM339 894h99l-106 -109h-56z" />
    <glyph glyph-name="uni1EBF" unicode="&#x1ebf;" horiz-adv-x="394" 
d="M363 215h-229c1 -109 52 -139 109 -139c35 0 65 8 87 18l15 -77c-30 -14 -77 -23 -122 -23c-125 0 -193 91 -193 242c0 161 78 259 182 259c102 0 154 -93 154 -223c0 -28 -2 -44 -3 -57zM135 291h132c1 78 -25 124 -63 124c-46 0 -67 -67 -69 -124zM175 686h74l67 -138
h-71l-32 81h-2l-32 -81h-72zM347 757h83l-85 -127h-52z" />
    <glyph glyph-name="uni1EC0" unicode="&#x1ec0;" horiz-adv-x="376" 
d="M326 396v-89h-160v-214h182v-93h-289v674h277v-93h-170v-185h160zM212 879h99l63 -108h-56zM155 814h78l76 -104h-76l-38 56h-2l-38 -56h-73z" />
    <glyph glyph-name="uni1EC1" unicode="&#x1ec1;" horiz-adv-x="394" 
d="M363 215h-229c1 -109 52 -139 109 -139c35 0 65 8 87 18l15 -77c-30 -14 -77 -23 -122 -23c-125 0 -193 91 -193 242c0 161 78 259 182 259c102 0 154 -93 154 -223c0 -28 -2 -44 -3 -57zM135 291h132c1 78 -25 124 -63 124c-46 0 -67 -67 -69 -124zM243 758h83l44 -126
h-51zM174 686h74l67 -138h-71l-32 81h-2l-32 -81h-72z" />
    <glyph glyph-name="uni1EC2" unicode="&#x1ec2;" horiz-adv-x="376" 
d="M326 396v-89h-160v-214h182v-93h-289v674h277v-93h-170v-185h160zM159 814h78l76 -104h-76l-38 56h-2l-38 -56h-73zM334 753l-44 10c12 37 44 49 44 77c0 16 -11 28 -27 28c-17 0 -30 -15 -39 -31l-31 25c16 33 45 60 88 60c41 0 71 -30 71 -66c0 -47 -40 -64 -62 -103z
" />
    <glyph glyph-name="uni1EC3" unicode="&#x1ec3;" horiz-adv-x="394" 
d="M363 215h-229c1 -109 52 -139 109 -139c35 0 65 8 87 18l15 -77c-30 -14 -77 -23 -122 -23c-125 0 -193 91 -193 242c0 161 78 259 182 259c102 0 154 -93 154 -223c0 -28 -2 -44 -3 -57zM135 291h132c1 78 -25 124 -63 124c-46 0 -67 -67 -69 -124zM168 686h74l67 -138
h-71l-32 81h-2l-32 -81h-72zM339 620l-48 10c12 36 42 47 42 75c0 16 -11 28 -27 28s-28 -15 -37 -30l-32 25c17 34 46 60 87 60c43 0 75 -30 75 -69c0 -44 -39 -59 -60 -99z" />
    <glyph glyph-name="uni1EC4" unicode="&#x1ec4;" horiz-adv-x="376" 
d="M326 396v-89h-160v-214h182v-93h-289v674h277v-93h-170v-185h160zM159 814h86l86 -104h-83l-45 53h-2l-44 -53h-81zM142 828h-51c-1 47 21 93 66 93c23 0 37 -9 52 -17c13 -8 26 -15 40 -15s22 6 23 33h50c0 -60 -24 -93 -67 -93c-18 0 -36 10 -50 18
c-16 7 -26 14 -39 14s-22 -10 -24 -33z" />
    <glyph glyph-name="uni1EC5" unicode="&#x1ec5;" horiz-adv-x="394" 
d="M363 215h-229c1 -109 52 -139 109 -139c35 0 65 8 87 18l15 -77c-30 -14 -77 -23 -122 -23c-125 0 -193 91 -193 242c0 161 78 259 182 259c102 0 154 -93 154 -223c0 -28 -2 -44 -3 -57zM135 291h132c1 78 -25 124 -63 124c-46 0 -67 -67 -69 -124zM172 656h75l79 -108
h-76l-39 59h-2l-40 -59h-77zM148 669h-51c-1 47 21 93 66 93c23 0 37 -9 52 -17c13 -8 27 -15 40 -15c14 0 22 6 23 33h50c0 -60 -24 -93 -67 -93c-18 0 -36 10 -50 17c-15 8 -26 15 -39 15s-22 -11 -24 -33z" />
    <glyph glyph-name="uni1EC6" unicode="&#x1ec6;" horiz-adv-x="376" 
d="M326 396v-89h-160v-214h182v-93h-289v674h277v-93h-170v-185h160zM152 814h86l86 -104h-84l-44 53h-2l-45 -53h-81zM196 -190h-1c-29 0 -54 25 -54 55c0 31 25 55 55 55s54 -24 54 -55c0 -30 -24 -55 -54 -55z" />
    <glyph glyph-name="uni1EC7" unicode="&#x1ec7;" horiz-adv-x="394" 
d="M363 215h-229c1 -109 52 -139 109 -139c35 0 65 8 87 18l15 -77c-30 -14 -77 -23 -122 -23c-125 0 -193 91 -193 242c0 161 78 259 182 259c102 0 154 -93 154 -223c0 -28 -2 -44 -3 -57zM135 291h132c1 78 -25 124 -63 124c-46 0 -67 -67 -69 -124zM160 686h73l83 -138
h-75l-43 83h-2l-43 -83h-76zM196 -80c29 0 52 -23 52 -55s-22 -55 -53 -55c-29 0 -53 23 -53 55s25 55 54 55z" />
    <glyph glyph-name="uni1EC8" unicode="&#x1ec8;" horiz-adv-x="226" 
d="M59 674h107v-674h-107v674zM136 706l-53 10c13 39 45 50 45 80c0 17 -11 29 -28 29s-29 -17 -38 -32l-35 28c17 36 48 64 94 64c44 0 78 -32 78 -73c0 -46 -41 -64 -63 -106z" />
    <glyph glyph-name="uni1EC9" unicode="&#x1ec9;" horiz-adv-x="205" 
d="M156 0h-107v487h107v-487zM123 526l-55 12c12 44 51 62 51 98c0 17 -12 31 -30 31s-30 -16 -38 -32l-36 28c17 37 49 65 93 65c47 0 82 -34 82 -77c0 -55 -46 -76 -67 -125z" />
    <glyph glyph-name="uni1ECA" unicode="&#x1eca;" horiz-adv-x="226" 
d="M59 674h107v-674h-107v674zM113 -190h-1c-29 0 -54 25 -54 55c0 31 25 55 55 55s54 -24 54 -55c0 -30 -24 -55 -54 -55z" />
    <glyph glyph-name="uni1ECB" unicode="&#x1ecb;" horiz-adv-x="205" 
d="M156 0h-107v487h107v-487zM102 676c33 0 57 -24 57 -62c1 -36 -24 -61 -59 -61c-31 0 -56 25 -55 61c-1 38 25 62 57 62zM102 -80c29 0 52 -23 52 -55s-22 -55 -53 -55c-29 0 -53 23 -53 55s25 55 54 55z" />
    <glyph glyph-name="uni1ECC" unicode="&#x1ecc;" horiz-adv-x="465" 
d="M239 682c142 0 198 -155 198 -336c0 -254 -89 -354 -208 -354c-134 0 -201 143 -201 346c0 202 76 344 211 344zM234 589c-67 0 -95 -111 -95 -252c0 -147 28 -252 96 -252c69 0 91 121 91 256c0 122 -20 248 -92 248zM232 -190h-1c-29 0 -54 25 -54 55c0 31 25 55 55 55
s54 -24 54 -55c0 -30 -24 -55 -54 -55z" />
    <glyph glyph-name="uni1ECD" unicode="&#x1ecd;" horiz-adv-x="410" 
d="M208 495c102 0 171 -90 171 -250c0 -197 -101 -253 -175 -253c-103 0 -174 86 -174 250c0 176 87 253 178 253zM206 412c-58 0 -69 -97 -69 -168c0 -82 14 -170 71 -170c53 0 65 97 65 170c0 71 -12 168 -67 168zM203 -80c29 0 52 -23 52 -55s-22 -55 -53 -55
c-29 0 -53 23 -53 55s25 55 54 55z" />
    <glyph glyph-name="uni1ECE" unicode="&#x1ece;" horiz-adv-x="465" 
d="M239 682c142 0 198 -155 198 -336c0 -254 -89 -354 -208 -354c-134 0 -201 143 -201 346c0 202 76 344 211 344zM234 589c-67 0 -95 -111 -95 -252c0 -147 28 -252 96 -252c69 0 91 121 91 256c0 122 -20 248 -92 248zM255 706l-53 10c13 39 45 50 45 80
c0 17 -11 29 -28 29s-29 -17 -38 -32l-35 28c17 36 48 64 94 64c44 0 78 -32 78 -73c0 -46 -41 -64 -63 -106z" />
    <glyph glyph-name="uni1ECF" unicode="&#x1ecf;" horiz-adv-x="410" 
d="M208 495c102 0 171 -90 171 -250c0 -197 -101 -253 -175 -253c-103 0 -174 86 -174 250c0 176 87 253 178 253zM206 412c-58 0 -69 -97 -69 -168c0 -82 14 -170 71 -170c53 0 65 97 65 170c0 71 -12 168 -67 168zM225 526l-55 12c12 44 51 62 51 98c0 17 -12 31 -30 31
s-30 -16 -38 -32l-36 28c17 37 49 65 93 65c47 0 82 -34 82 -77c0 -55 -46 -76 -67 -125z" />
    <glyph glyph-name="uni1ED0" unicode="&#x1ed0;" horiz-adv-x="465" 
d="M239 682c142 0 198 -155 198 -336c0 -254 -89 -354 -208 -354c-134 0 -201 143 -201 346c0 202 76 344 211 344zM234 589c-67 0 -95 -111 -95 -252c0 -147 28 -252 96 -252c69 0 91 121 91 256c0 122 -20 248 -92 248zM202 814h78l76 -104h-76l-38 56h-2l-38 -56h-73z
M380 894h99l-106 -109h-56z" />
    <glyph glyph-name="uni1ED1" unicode="&#x1ed1;" horiz-adv-x="410" 
d="M208 495c102 0 171 -90 171 -250c0 -197 -101 -253 -175 -253c-103 0 -174 86 -174 250c0 176 87 253 178 253zM206 412c-58 0 -69 -97 -69 -168c0 -82 14 -170 71 -170c53 0 65 97 65 170c0 71 -12 168 -67 168zM172 686h74l67 -138h-71l-32 81h-2l-32 -81h-72zM344 757
h83l-85 -127h-52z" />
    <glyph glyph-name="uni1ED2" unicode="&#x1ed2;" horiz-adv-x="465" 
d="M239 682c142 0 198 -155 198 -336c0 -254 -89 -354 -208 -354c-134 0 -201 143 -201 346c0 202 76 344 211 344zM234 589c-67 0 -95 -111 -95 -252c0 -147 28 -252 96 -252c69 0 91 121 91 256c0 122 -20 248 -92 248zM255 879h99l63 -108h-56zM198 814h78l76 -104h-76
l-38 56h-2l-38 -56h-73z" />
    <glyph glyph-name="uni1ED3" unicode="&#x1ed3;" horiz-adv-x="410" 
d="M208 495c102 0 171 -90 171 -250c0 -197 -101 -253 -175 -253c-103 0 -174 86 -174 250c0 176 87 253 178 253zM206 412c-58 0 -69 -97 -69 -168c0 -82 14 -170 71 -170c53 0 65 97 65 170c0 71 -12 168 -67 168zM241 758h83l44 -126h-51zM172 686h74l67 -138h-71l-32 81
h-2l-32 -81h-72z" />
    <glyph glyph-name="uni1ED4" unicode="&#x1ed4;" horiz-adv-x="465" 
d="M239 682c142 0 198 -155 198 -336c0 -254 -89 -354 -208 -354c-134 0 -201 143 -201 346c0 202 76 344 211 344zM234 589c-67 0 -95 -111 -95 -252c0 -147 28 -252 96 -252c69 0 91 121 91 256c0 122 -20 248 -92 248zM199 814h78l76 -104h-76l-38 56h-2l-38 -56h-73z
M374 753l-44 10c12 37 44 49 44 77c0 16 -11 28 -27 28c-17 0 -30 -15 -39 -31l-31 25c16 33 45 60 88 60c41 0 71 -30 71 -66c0 -47 -40 -64 -62 -103z" />
    <glyph glyph-name="uni1ED5" unicode="&#x1ed5;" horiz-adv-x="410" 
d="M208 495c102 0 171 -90 171 -250c0 -197 -101 -253 -175 -253c-103 0 -174 86 -174 250c0 176 87 253 178 253zM206 412c-58 0 -69 -97 -69 -168c0 -82 14 -170 71 -170c53 0 65 97 65 170c0 71 -12 168 -67 168zM171 686h74l67 -138h-71l-32 81h-2l-32 -81h-72zM342 620
l-48 10c12 36 42 47 42 75c0 16 -11 28 -27 28s-28 -15 -37 -30l-32 25c17 34 46 60 87 60c43 0 75 -30 75 -69c0 -44 -39 -59 -60 -99z" />
    <glyph glyph-name="uni1ED6" unicode="&#x1ed6;" horiz-adv-x="465" 
d="M239 682c142 0 198 -155 198 -336c0 -254 -89 -354 -208 -354c-134 0 -201 143 -201 346c0 202 76 344 211 344zM234 589c-67 0 -95 -111 -95 -252c0 -147 28 -252 96 -252c69 0 91 121 91 256c0 122 -20 248 -92 248zM193 814h86l86 -104h-83l-45 53h-2l-44 -53h-81z
M176 828h-51c-1 47 21 93 66 93c23 0 37 -9 52 -17c13 -8 26 -15 40 -15s22 6 23 33h50c0 -60 -24 -93 -67 -93c-18 0 -36 10 -50 18c-16 7 -26 14 -39 14s-22 -10 -24 -33z" />
    <glyph glyph-name="uni1ED7" unicode="&#x1ed7;" horiz-adv-x="410" 
d="M208 495c102 0 171 -90 171 -250c0 -197 -101 -253 -175 -253c-103 0 -174 86 -174 250c0 176 87 253 178 253zM206 412c-58 0 -69 -97 -69 -168c0 -82 14 -170 71 -170c53 0 65 97 65 170c0 71 -12 168 -67 168zM168 656h75l79 -108h-76l-39 59h-2l-40 -59h-77zM144 669
h-51c-1 47 21 93 66 93c23 0 37 -9 52 -17c13 -8 27 -15 40 -15c14 0 22 6 23 33h50c0 -60 -24 -93 -67 -93c-18 0 -36 10 -50 17c-15 8 -26 15 -39 15s-22 -11 -24 -33z" />
    <glyph glyph-name="uni1ED8" unicode="&#x1ed8;" horiz-adv-x="465" 
d="M239 682c142 0 198 -155 198 -336c0 -254 -89 -354 -208 -354c-134 0 -201 143 -201 346c0 202 76 344 211 344zM234 589c-67 0 -95 -111 -95 -252c0 -147 28 -252 96 -252c69 0 91 121 91 256c0 122 -20 248 -92 248zM191 814h86l86 -104h-84l-44 53h-2l-45 -53h-81z
M232 -190h-1c-29 0 -54 25 -54 55c0 31 25 55 55 55s54 -24 54 -55c0 -30 -24 -55 -54 -55z" />
    <glyph glyph-name="uni1ED9" unicode="&#x1ed9;" horiz-adv-x="410" 
d="M208 495c102 0 171 -90 171 -250c0 -197 -101 -253 -175 -253c-103 0 -174 86 -174 250c0 176 87 253 178 253zM206 412c-58 0 -69 -97 -69 -168c0 -82 14 -170 71 -170c53 0 65 97 65 170c0 71 -12 168 -67 168zM168 686h73l83 -138h-75l-43 83h-2l-43 -83h-76zM203 -80
c29 0 52 -23 52 -55s-22 -55 -53 -55c-29 0 -53 23 -53 55s25 55 54 55z" />
    <glyph glyph-name="uni1EDA" unicode="&#x1eda;" horiz-adv-x="465" 
d="M235 85c69 0 91 121 91 256c0 122 -20 248 -92 248c-71 0 -96 -125 -95 -250c-1 -133 24 -254 96 -254zM372 726l78 12c10 -19 18 -46 18 -76c0 -49 -24 -85 -74 -90c24 -48 43 -119 43 -226c0 -254 -89 -354 -208 -354c-134 0 -201 143 -201 346c0 202 76 344 211 344
c24 0 52 -6 76 -18c29 -15 42 -28 54 -28c16 0 22 10 22 28c0 23 -10 44 -19 62zM261 821h114l-123 -111h-79z" />
    <glyph glyph-name="uni1EDB" unicode="&#x1edb;" horiz-adv-x="410" 
d="M206 412c-58 0 -69 -97 -69 -168c0 -82 14 -170 71 -170c53 0 65 97 65 170c0 71 -12 168 -67 168zM324 552l77 11c10 -19 19 -45 19 -77c0 -48 -26 -78 -72 -84c18 -35 31 -91 31 -157c0 -197 -101 -253 -175 -253c-103 0 -174 86 -174 250c0 176 87 253 178 253
c22 0 43 -6 60 -13c15 -5 32 -17 50 -17c14 0 24 9 24 29c0 21 -8 41 -18 58zM228 686h99l-103 -138h-68z" />
    <glyph glyph-name="uni1EDC" unicode="&#x1edc;" horiz-adv-x="465" 
d="M235 85c69 0 91 121 91 256c0 122 -20 248 -92 248c-71 0 -96 -125 -95 -250c-1 -133 24 -254 96 -254zM372 726l78 12c10 -19 18 -46 18 -76c0 -49 -24 -85 -74 -90c24 -48 43 -119 43 -226c0 -254 -89 -354 -208 -354c-134 0 -201 143 -201 346c0 202 76 344 211 344
c24 0 52 -6 76 -18c29 -15 42 -28 54 -28c16 0 22 10 22 28c0 23 -10 44 -19 62zM98 821h114l88 -111h-79z" />
    <glyph glyph-name="uni1EDD" unicode="&#x1edd;" horiz-adv-x="410" 
d="M206 412c-58 0 -69 -97 -69 -168c0 -82 14 -170 71 -170c53 0 65 97 65 170c0 71 -12 168 -67 168zM324 552l77 11c10 -19 19 -45 19 -77c0 -48 -26 -78 -72 -84c18 -35 31 -91 31 -157c0 -197 -101 -253 -175 -253c-103 0 -174 86 -174 250c0 176 87 253 178 253
c22 0 43 -6 60 -13c15 -5 32 -17 50 -17c14 0 24 9 24 29c0 21 -8 41 -18 58zM91 686h99l72 -138h-68z" />
    <glyph glyph-name="uni1EDE" unicode="&#x1ede;" horiz-adv-x="465" 
d="M235 85c69 0 91 121 91 256c0 122 -20 248 -92 248c-71 0 -96 -125 -95 -250c-1 -133 24 -254 96 -254zM372 726l78 12c10 -19 18 -46 18 -76c0 -49 -24 -85 -74 -90c24 -48 43 -119 43 -226c0 -254 -89 -354 -208 -354c-134 0 -201 143 -201 346c0 202 76 344 211 344
c24 0 52 -6 76 -18c29 -15 42 -28 54 -28c16 0 22 10 22 28c0 23 -10 44 -19 62zM255 706l-53 10c13 39 45 50 45 80c0 17 -11 29 -28 29s-29 -17 -38 -32l-35 28c17 36 48 64 94 64c44 0 78 -32 78 -73c0 -46 -41 -64 -63 -106z" />
    <glyph glyph-name="uni1EDF" unicode="&#x1edf;" horiz-adv-x="410" 
d="M206 412c-58 0 -69 -97 -69 -168c0 -82 14 -170 71 -170c53 0 65 97 65 170c0 71 -12 168 -67 168zM324 552l77 11c10 -19 19 -45 19 -77c0 -48 -26 -78 -72 -84c18 -35 31 -91 31 -157c0 -197 -101 -253 -175 -253c-103 0 -174 86 -174 250c0 176 87 253 178 253
c22 0 43 -6 60 -13c15 -5 32 -17 50 -17c14 0 24 9 24 29c0 21 -8 41 -18 58zM224 526l-55 12c12 44 51 62 51 98c0 17 -12 31 -30 31s-30 -16 -38 -32l-36 28c17 37 49 65 93 65c47 0 82 -34 82 -77c0 -55 -46 -76 -67 -125z" />
    <glyph glyph-name="uni1EE0" unicode="&#x1ee0;" horiz-adv-x="465" 
d="M235 85c69 0 91 121 91 256c0 122 -20 248 -92 248c-71 0 -96 -125 -95 -250c-1 -133 24 -254 96 -254zM372 726l78 12c10 -19 18 -46 18 -76c0 -49 -24 -85 -74 -90c24 -48 43 -119 43 -226c0 -254 -89 -354 -208 -354c-134 0 -201 143 -201 346c0 202 76 344 211 344
c24 0 52 -6 76 -18c29 -15 42 -28 54 -28c16 0 22 10 22 28c0 23 -10 44 -19 62zM170 718h-51c-2 66 23 106 63 106c21 0 36 -9 50 -17c14 -9 26 -18 38 -18c15 0 22 9 25 37h50c2 -71 -20 -103 -66 -103c-21 0 -38 8 -51 16c-14 9 -24 16 -36 16s-20 -12 -22 -37z" />
    <glyph glyph-name="uni1EE1" unicode="&#x1ee1;" horiz-adv-x="410" 
d="M206 412c-58 0 -69 -97 -69 -168c0 -82 14 -170 71 -170c53 0 65 97 65 170c0 71 -12 168 -67 168zM324 552l77 11c10 -19 19 -45 19 -77c0 -48 -26 -78 -72 -84c18 -35 31 -91 31 -157c0 -197 -101 -253 -175 -253c-103 0 -174 86 -174 250c0 176 87 253 178 253
c22 0 43 -6 60 -13c15 -5 32 -17 50 -17c14 0 24 9 24 29c0 21 -8 41 -18 58zM139 559h-52c0 59 22 107 67 107c22 0 38 -10 54 -18c13 -8 24 -16 38 -16c13 0 22 6 23 36h50c0 -68 -24 -102 -67 -102c-19 0 -37 9 -51 16c-15 8 -25 17 -38 17c-14 0 -23 -14 -24 -40z" />
    <glyph glyph-name="uni1EE2" unicode="&#x1ee2;" horiz-adv-x="465" 
d="M235 85c69 0 91 121 91 256c0 122 -20 248 -92 248c-71 0 -96 -125 -95 -250c-1 -133 24 -254 96 -254zM372 726l78 12c10 -19 18 -46 18 -76c0 -49 -24 -85 -74 -90c24 -48 43 -119 43 -226c0 -254 -89 -354 -208 -354c-134 0 -201 143 -201 346c0 202 76 344 211 344
c24 0 52 -6 76 -18c29 -15 42 -28 54 -28c16 0 22 10 22 28c0 23 -10 44 -19 62zM232 -190h-1c-29 0 -54 25 -54 55c0 31 25 55 55 55s54 -24 54 -55c0 -30 -24 -55 -54 -55z" />
    <glyph glyph-name="uni1EE3" unicode="&#x1ee3;" horiz-adv-x="410" 
d="M206 412c-58 0 -69 -97 -69 -168c0 -82 14 -170 71 -170c53 0 65 97 65 170c0 71 -12 168 -67 168zM324 552l77 11c10 -19 19 -45 19 -77c0 -48 -26 -78 -72 -84c18 -35 31 -91 31 -157c0 -197 -101 -253 -175 -253c-103 0 -174 86 -174 250c0 176 87 253 178 253
c22 0 43 -6 60 -13c15 -5 32 -17 50 -17c14 0 24 9 24 29c0 21 -8 41 -18 58zM208 -80c29 0 52 -23 52 -55s-22 -55 -53 -55c-29 0 -53 23 -53 55s25 55 54 55z" />
    <glyph glyph-name="uni1EE4" unicode="&#x1ee4;" horiz-adv-x="481" 
d="M56 674h107v-444c0 -109 34 -144 77 -144c46 0 77 34 77 144v444h107v-426c0 -174 -68 -256 -185 -256c-123 0 -183 83 -183 251v431zM240 -190h-1c-29 0 -54 25 -54 55c0 31 25 55 55 55s54 -24 54 -55c0 -30 -24 -55 -54 -55z" />
    <glyph glyph-name="uni1EE5" unicode="&#x1ee5;" horiz-adv-x="428" 
d="M377 487v-346c0 -52 2 -100 4 -141h-92l-7 51h-2c-19 -29 -57 -59 -109 -59c-89 0 -124 67 -124 194v301h106v-288c0 -69 13 -118 57 -118c32 0 49 29 54 48c4 11 6 26 6 42v316h107zM212 -80c29 0 52 -23 52 -55s-22 -55 -53 -55c-29 0 -53 23 -53 55s25 55 54 55z" />
    <glyph glyph-name="uni1EE6" unicode="&#x1ee6;" horiz-adv-x="481" 
d="M56 674h107v-444c0 -109 34 -144 77 -144c46 0 77 34 77 144v444h107v-426c0 -174 -68 -256 -185 -256c-123 0 -183 83 -183 251v431zM263 706l-53 10c13 39 45 50 45 80c0 17 -11 29 -28 29s-29 -17 -38 -32l-35 28c17 36 48 64 94 64c44 0 78 -32 78 -73
c0 -46 -41 -64 -63 -106z" />
    <glyph glyph-name="uni1EE7" unicode="&#x1ee7;" horiz-adv-x="428" 
d="M377 487v-346c0 -52 2 -100 4 -141h-92l-7 51h-2c-19 -29 -57 -59 -109 -59c-89 0 -124 67 -124 194v301h106v-288c0 -69 13 -118 57 -118c32 0 49 29 54 48c4 11 6 26 6 42v316h107zM234 526l-55 12c12 44 51 62 51 98c0 17 -12 31 -30 31s-30 -16 -38 -32l-36 28
c17 37 49 65 93 65c47 0 82 -34 82 -77c0 -55 -46 -76 -67 -125z" />
    <glyph glyph-name="uni1EE8" unicode="&#x1ee8;" horiz-adv-x="504" 
d="M416 761l77 11c11 -22 17 -47 17 -76c0 -48 -23 -80 -75 -85l-11 -1v-362c0 -174 -68 -256 -185 -256c-123 0 -183 83 -183 251v431h107v-444c0 -109 34 -144 77 -144c46 0 77 34 77 144v444h80c25 0 35 6 35 28c0 21 -7 42 -16 59zM270 821h114l-123 -111h-79z" />
    <glyph glyph-name="uni1EE9" unicode="&#x1ee9;" horiz-adv-x="428" 
d="M359 575l78 11c11 -21 18 -47 18 -75c0 -45 -25 -75 -73 -80l-5 -1v-289c0 -52 2 -100 4 -141h-92l-7 51h-2c-19 -29 -57 -59 -109 -59c-89 0 -124 67 -124 194v301h106v-288c0 -69 13 -118 57 -118c32 0 49 29 54 48c4 11 6 26 6 42v316h73c25 0 33 8 33 30
c0 19 -7 42 -17 58zM246 686h99l-103 -138h-68z" />
    <glyph glyph-name="uni1EEA" unicode="&#x1eea;" horiz-adv-x="504" 
d="M416 761l77 11c11 -22 17 -47 17 -76c0 -48 -23 -80 -75 -85l-11 -1v-362c0 -174 -68 -256 -185 -256c-123 0 -183 83 -183 251v431h107v-444c0 -109 34 -144 77 -144c46 0 77 34 77 144v444h80c25 0 35 6 35 28c0 21 -7 42 -16 59zM95 821h114l88 -111h-79z" />
    <glyph glyph-name="uni1EEB" unicode="&#x1eeb;" horiz-adv-x="428" 
d="M359 575l78 11c11 -21 18 -47 18 -75c0 -45 -25 -75 -73 -80l-5 -1v-289c0 -52 2 -100 4 -141h-92l-7 51h-2c-19 -29 -57 -59 -109 -59c-89 0 -124 67 -124 194v301h106v-288c0 -69 13 -118 57 -118c32 0 49 29 54 48c4 11 6 26 6 42v316h73c25 0 33 8 33 30
c0 19 -7 42 -17 58zM97 686h99l72 -138h-68z" />
    <glyph glyph-name="uni1EEC" unicode="&#x1eec;" horiz-adv-x="504" 
d="M416 761l77 11c11 -22 17 -47 17 -76c0 -48 -23 -80 -75 -85l-11 -1v-362c0 -174 -68 -256 -185 -256c-123 0 -183 83 -183 251v431h107v-444c0 -109 34 -144 77 -144c46 0 77 34 77 144v444h80c25 0 35 6 35 28c0 21 -7 42 -16 59zM274 706l-53 10c13 39 45 50 45 80
c0 17 -11 29 -28 29s-29 -17 -38 -32l-35 28c17 36 48 64 94 64c44 0 78 -32 78 -73c0 -46 -41 -64 -63 -106z" />
    <glyph glyph-name="uni1EED" unicode="&#x1eed;" horiz-adv-x="428" 
d="M359 575l78 11c11 -21 18 -47 18 -75c0 -45 -25 -75 -73 -80l-5 -1v-289c0 -52 2 -100 4 -141h-92l-7 51h-2c-19 -29 -57 -59 -109 -59c-89 0 -124 67 -124 194v301h106v-288c0 -69 13 -118 57 -118c32 0 49 29 54 48c4 11 6 26 6 42v316h73c25 0 33 8 33 30
c0 19 -7 42 -17 58zM243 526l-55 12c12 44 51 62 51 98c0 17 -12 31 -30 31s-30 -16 -38 -32l-36 28c17 37 49 65 93 65c47 0 82 -34 82 -77c0 -55 -46 -76 -67 -125z" />
    <glyph glyph-name="uni1EEE" unicode="&#x1eee;" horiz-adv-x="504" 
d="M416 761l77 11c11 -22 17 -47 17 -76c0 -48 -23 -80 -75 -85l-11 -1v-362c0 -174 -68 -256 -185 -256c-123 0 -183 83 -183 251v431h107v-444c0 -109 34 -144 77 -144c46 0 77 34 77 144v444h80c25 0 35 6 35 28c0 21 -7 42 -16 59zM190 718h-51c-2 66 23 106 63 106
c21 0 36 -9 50 -17c14 -9 26 -18 38 -18c15 0 22 9 25 37h50c2 -71 -20 -103 -66 -103c-21 0 -38 8 -51 16c-14 9 -24 16 -36 16s-20 -12 -22 -37z" />
    <glyph glyph-name="uni1EEF" unicode="&#x1eef;" horiz-adv-x="428" 
d="M359 575l78 11c11 -21 18 -47 18 -75c0 -45 -25 -75 -73 -80l-5 -1v-289c0 -52 2 -100 4 -141h-92l-7 51h-2c-19 -29 -57 -59 -109 -59c-89 0 -124 67 -124 194v301h106v-288c0 -69 13 -118 57 -118c32 0 49 29 54 48c4 11 6 26 6 42v316h73c25 0 33 8 33 30
c0 19 -7 42 -17 58zM151 559h-52c0 59 22 107 67 107c22 0 38 -10 54 -18c13 -8 24 -16 38 -16c13 0 22 6 23 36h50c0 -68 -24 -102 -67 -102c-19 0 -37 9 -51 16c-15 8 -25 17 -38 17c-14 0 -23 -14 -24 -40z" />
    <glyph glyph-name="uni1EF0" unicode="&#x1ef0;" horiz-adv-x="504" 
d="M416 761l77 11c11 -22 17 -47 17 -76c0 -48 -23 -80 -75 -85l-11 -1v-362c0 -174 -68 -256 -185 -256c-123 0 -183 83 -183 251v431h107v-444c0 -109 34 -144 77 -144c46 0 77 34 77 144v444h80c25 0 35 6 35 28c0 21 -7 42 -16 59zM251 -80c29 0 52 -23 52 -55
s-22 -55 -53 -55c-29 0 -53 23 -53 55s25 55 54 55z" />
    <glyph glyph-name="uni1EF1" unicode="&#x1ef1;" horiz-adv-x="428" 
d="M359 575l78 11c11 -21 18 -47 18 -75c0 -45 -25 -75 -73 -80l-5 -1v-289c0 -52 2 -100 4 -141h-92l-7 51h-2c-19 -29 -57 -59 -109 -59c-89 0 -124 67 -124 194v301h106v-288c0 -69 13 -118 57 -118c32 0 49 29 54 48c4 11 6 26 6 42v316h73c25 0 33 8 33 30
c0 19 -7 42 -17 58zM210 -80c29 0 52 -23 52 -55s-22 -55 -53 -55c-29 0 -53 23 -53 55s25 55 54 55z" />
    <glyph glyph-name="Ygrave" unicode="&#x1ef2;" horiz-adv-x="398" 
d="M251 0h-107v270l-148 404h114l52 -164c14 -45 29 -97 42 -148h2c10 51 24 101 39 151l48 161h111l-153 -400v-274zM57 817h114l88 -111h-79z" />
    <glyph glyph-name="ygrave" unicode="&#x1ef3;" horiz-adv-x="370" 
d="M68 686h99l72 -138h-68zM8 487h114l56 -265c7 -33 11 -62 16 -90h2c4 26 10 58 16 88l48 267h105l-91 -348c-26 -105 -59 -210 -114 -277c-38 -47 -81 -69 -100 -76l-34 92c22 10 45 27 66 50c19 20 33 46 42 68c4 10 6 16 6 23c0 6 -1 12 -3 18z" />
    <glyph glyph-name="uni1EF4" unicode="&#x1ef4;" horiz-adv-x="398" 
d="M251 0h-107v270l-148 404h114l52 -164c14 -45 29 -97 42 -148h2c10 51 24 101 39 151l48 161h111l-153 -400v-274zM200 -190h-1c-29 0 -54 25 -54 55c0 31 25 55 55 55s54 -24 54 -55c0 -30 -24 -55 -54 -55z" />
    <glyph glyph-name="uni1EF5" unicode="&#x1ef5;" horiz-adv-x="370" 
d="M8 487h114l56 -265c7 -33 11 -62 16 -90h2c4 26 10 58 16 88l48 267h105l-91 -348c-26 -105 -59 -210 -114 -277c-38 -47 -81 -69 -100 -76l-34 92c22 10 45 27 66 50c19 20 33 46 42 68c4 10 6 16 6 23c0 6 -1 12 -3 18zM283 -80c29 0 52 -23 52 -55s-22 -55 -53 -55
c-29 0 -53 23 -53 55s25 55 54 55z" />
    <glyph glyph-name="uni1EF6" unicode="&#x1ef6;" horiz-adv-x="398" 
d="M251 0h-107v270l-148 404h114l52 -164c14 -45 29 -97 42 -148h2c10 51 24 101 39 151l48 161h111l-153 -400v-274zM222 706l-53 10c13 39 45 50 45 80c0 17 -11 29 -28 29s-29 -17 -38 -32l-35 28c17 36 48 64 94 64c44 0 78 -32 78 -73c0 -46 -41 -64 -63 -106z" />
    <glyph glyph-name="uni1EF7" unicode="&#x1ef7;" horiz-adv-x="370" 
d="M8 487h114l56 -265c7 -33 11 -62 16 -90h2c4 26 10 58 16 88l48 267h105l-91 -348c-26 -105 -59 -210 -114 -277c-38 -47 -81 -69 -100 -76l-34 92c22 10 45 27 66 50c19 20 33 46 42 68c4 10 6 16 6 23c0 6 -1 12 -3 18zM210 526l-55 12c12 44 51 62 51 98
c0 17 -12 31 -30 31s-30 -16 -38 -32l-36 28c17 37 49 65 93 65c47 0 82 -34 82 -77c0 -55 -46 -76 -67 -125z" />
    <glyph glyph-name="uni1EF8" unicode="&#x1ef8;" horiz-adv-x="398" 
d="M251 0h-107v270l-148 404h114l52 -164c14 -45 29 -97 42 -148h2c10 51 24 101 39 151l48 161h111l-153 -400v-274zM137 718h-51c-2 66 23 106 63 106c21 0 36 -9 50 -17c14 -9 26 -18 38 -18c15 0 22 9 25 37h50c2 -71 -20 -103 -66 -103c-21 0 -38 8 -51 16
c-14 9 -24 16 -36 16s-20 -12 -22 -37z" />
    <glyph glyph-name="uni1EF9" unicode="&#x1ef9;" horiz-adv-x="370" 
d="M131 559h-52c0 59 22 107 67 107c22 0 38 -10 54 -18c13 -8 24 -16 38 -16c13 0 22 6 23 36h50c0 -68 -24 -102 -67 -102c-19 0 -37 9 -51 16c-15 8 -25 17 -38 17c-14 0 -23 -14 -24 -40zM8 487h114l56 -265c7 -33 11 -62 16 -90h2c4 26 10 58 16 88l48 267h105
l-91 -348c-26 -105 -59 -210 -114 -277c-38 -47 -81 -69 -100 -76l-34 92c22 10 45 27 66 50c19 20 33 46 42 68c4 10 6 16 6 23c0 6 -1 12 -3 18z" />
    <glyph glyph-name="endash" unicode="&#x2013;" horiz-adv-x="500" 
d="M30 297h440v-74h-440v74z" />
    <glyph glyph-name="emdash" unicode="&#x2014;" horiz-adv-x="1000" 
d="M30 297h940v-74h-940v74z" />
    <glyph glyph-name="quoteleft" unicode="&#x2018;" horiz-adv-x="184" 
d="M111 444l-97 -10c25 85 67 182 103 242l57 8c-25 -72 -52 -166 -63 -240z" />
    <glyph glyph-name="quoteright" unicode="&#x2019;" horiz-adv-x="184" 
d="M74 674l97 10c-24 -86 -67 -182 -102 -242l-58 -8c25 72 52 165 63 240z" />
    <glyph glyph-name="quotesinglbase" unicode="&#x201a;" horiz-adv-x="184" 
d="M69 -106l-58 -8c25 72 52 165 63 240l97 10c-24 -86 -67 -182 -102 -242z" />
    <glyph glyph-name="quotedblleft" unicode="&#x201c;" horiz-adv-x="323" 
d="M109 444l-98 -10c25 85 67 182 103 242l57 8c-25 -72 -52 -166 -62 -240zM254 444l-98 -10c25 85 68 182 103 242l58 8c-25 -72 -52 -166 -63 -240z" />
    <glyph glyph-name="quotedblright" unicode="&#x201d;" horiz-adv-x="323" 
d="M71 674l98 10c-25 -86 -68 -182 -103 -242l-58 -8c25 72 52 165 63 240zM216 674l98 10c-25 -86 -67 -182 -103 -242l-57 -8c25 72 52 165 62 240z" />
    <glyph glyph-name="quotedblbase" unicode="&#x201e;" horiz-adv-x="323" 
d="M66 -106l-58 -8c25 72 52 165 63 240l98 10c-25 -86 -68 -182 -103 -242zM211 -106l-57 -8c25 72 52 165 62 240l98 10c-25 -86 -67 -182 -103 -242z" />
    <glyph glyph-name="dagger" unicode="&#x2020;" horiz-adv-x="405" 
d="M156 674h93l-6 -193l131 6v-89l-131 6l6 -454h-93l6 454l-131 -6v89l131 -6z" />
    <glyph glyph-name="daggerdbl" unicode="&#x2021;" horiz-adv-x="405" 
d="M156 674h93l-6 -187l131 6v-89l-131 6v-191l131 6v-89l-131 6l6 -192h-93l5 192l-130 -6v89l130 -6v191l-130 -6v89l130 -6z" />
    <glyph glyph-name="bullet" unicode="&#x2022;" horiz-adv-x="274" 
d="M137 160h-1c-56 0 -100 42 -100 103c-1 62 44 104 101 104c56 0 101 -41 101 -104c0 -61 -43 -103 -101 -103z" />
    <glyph glyph-name="ellipsis" unicode="&#x2026;" horiz-adv-x="1000" 
d="M166 -8h-1c-34 0 -63 29 -63 74c0 43 30 74 65 74c37 0 65 -28 65 -74c0 -45 -26 -74 -66 -74zM500 -8h-1c-35 0 -64 29 -64 74c0 43 30 74 66 74s64 -28 64 -74c0 -45 -25 -74 -65 -74zM834 -8h-1c-35 0 -64 29 -64 74c0 43 30 74 65 74c37 0 65 -28 65 -74
c0 -45 -26 -74 -65 -74z" />
    <glyph glyph-name="perthousand" unicode="&#x2030;" horiz-adv-x="947" 
d="M152 658h1c85 0 123 -94 123 -197c0 -137 -61 -199 -125 -199c-82 0 -127 88 -127 196c0 114 50 200 128 200zM150 598h-1c-37 0 -51 -63 -51 -138c0 -76 13 -139 53 -139s51 64 51 138c0 71 -10 139 -52 139zM181 -11h-60l348 672h60zM503 390h1c86 0 124 -94 124 -197
c0 -137 -62 -199 -126 -199c-82 0 -127 88 -127 196c0 114 50 200 128 200zM502 330h-1c-38 0 -51 -63 -51 -138c-1 -77 12 -139 52 -139s51 63 51 138c0 71 -10 139 -51 139zM799 390h1c85 0 124 -94 124 -197c0 -137 -62 -199 -126 -199c-82 0 -127 88 -127 196
c0 114 50 200 128 200zM798 330h-1c-38 0 -52 -63 -52 -138c0 -77 13 -139 53 -139s51 63 51 138c0 71 -10 139 -51 139z" />
    <glyph glyph-name="guilsinglleft" unicode="&#x2039;" horiz-adv-x="216" 
d="M204 432l-106 -180l106 -180h-80l-104 180l104 180h80z" />
    <glyph glyph-name="guilsinglright" unicode="&#x203a;" horiz-adv-x="216" 
d="M118 252l-106 180h79l105 -180l-103 -180h-81z" />
    <glyph glyph-name="fraction" unicode="&#x2044;" horiz-adv-x="114" 
d="M-86 -8h-59l345 666h59z" />
    <glyph glyph-name="zero.superior" unicode="&#x2070;" horiz-adv-x="279" 
d="M140 412h-1c-87 0 -122 92 -122 198c0 116 41 202 125 202c92 0 120 -97 120 -198c0 -135 -50 -202 -122 -202zM141 477h1c28 0 42 43 42 135c0 87 -13 135 -42 135s-47 -44 -47 -135c0 -92 16 -135 46 -135z" />
    <glyph glyph-name="four.superior" unicode="&#x2074;" horiz-adv-x="287" 
d="M229 417h-72v97h-147v49l142 246h77v-236h44v-59h-44v-97zM157 573v84c0 28 2 52 4 69h-2c-11 -22 -17 -38 -29 -60l-51 -91v-2h78z" />
    <glyph glyph-name="five.superior" unicode="&#x2075;" horiz-adv-x="262" 
d="M231 807v-67h-117l-9 -72h16c23 0 57 -8 81 -28c23 -20 37 -51 37 -91c0 -76 -53 -137 -142 -137c-33 0 -65 8 -83 17l14 61c15 -7 39 -14 64 -14c39 0 69 22 69 66c0 50 -38 71 -92 71c-14 0 -25 -2 -35 -3l23 197h174z" />
    <glyph glyph-name="six.superior" unicode="&#x2076;" horiz-adv-x="282" 
d="M231 812v-63c-10 0 -21 -1 -33 -3c-62 -10 -90 -56 -100 -105h2c16 19 38 32 67 32c56 0 98 -48 98 -123c0 -71 -42 -138 -119 -138c-81 0 -127 67 -127 163c0 82 26 140 64 179c29 30 70 49 109 55c18 2 31 3 39 3zM144 470h1c28 0 41 33 41 80c0 36 -14 67 -44 67
c-17 0 -33 -11 -41 -30c-2 -5 -4 -14 -4 -30c0 -51 17 -87 47 -87z" />
    <glyph glyph-name="seven.superior" unicode="&#x2077;" horiz-adv-x="245" 
d="M11 807h227v-51l-134 -339h-78l132 321v1h-147v68z" />
    <glyph glyph-name="eight.superior" unicode="&#x2078;" horiz-adv-x="285" 
d="M146 812h1c65 0 107 -42 107 -97c0 -28 -13 -62 -53 -86v-2c37 -19 64 -53 64 -100c0 -71 -54 -115 -125 -115c-76 0 -121 46 -121 106c0 49 27 83 62 103v1c-35 22 -50 55 -50 86c0 64 51 104 115 104zM143 465h1c27 0 44 24 44 58c0 37 -24 60 -51 72
c-24 -13 -42 -39 -42 -69c0 -35 18 -61 48 -61zM144 760h-1c-25 0 -39 -24 -39 -49c0 -29 19 -48 45 -60c19 9 33 33 33 57c0 27 -11 52 -38 52z" />
    <glyph glyph-name="nine.superior" unicode="&#x2079;" horiz-adv-x="278" 
d="M47 412v64c14 0 23 0 37 2c20 4 39 12 55 25c20 17 34 46 41 80h-1c-14 -15 -35 -26 -63 -26c-55 0 -99 46 -99 118c0 70 46 137 123 137c79 0 119 -69 119 -162c0 -85 -27 -147 -64 -185c-28 -29 -66 -46 -110 -52c-13 -2 -26 -1 -38 -1zM137 754h-1
c-23 0 -42 -27 -42 -74c0 -38 15 -69 44 -69c17 0 33 11 38 23c3 7 4 14 4 35c0 52 -15 85 -43 85z" />
    <glyph glyph-name="parenleft.superior" unicode="&#x207d;" horiz-adv-x="161" 
d="M101 846h57c-35 -54 -64 -133 -64 -244c0 -108 29 -186 64 -243h-57c-33 46 -69 126 -69 243s36 198 69 244z" />
    <glyph glyph-name="parenright.superior" unicode="&#x207e;" horiz-adv-x="161" 
d="M60 359h-57c35 56 64 136 64 245c0 108 -29 186 -64 242h57c33 -45 70 -124 70 -243c0 -115 -37 -197 -70 -244z" />
    <glyph glyph-name="zero.inferior" unicode="&#x2080;" horiz-adv-x="279" 
d="M140 -152h-1c-87 0 -122 92 -122 198c0 116 41 202 125 202c92 0 120 -97 120 -198c0 -135 -50 -202 -122 -202zM141 -87h1c28 0 42 43 42 135c0 87 -13 135 -42 135s-47 -44 -47 -135c0 -92 16 -135 46 -135z" />
    <glyph glyph-name="one.inferior" unicode="&#x2081;" horiz-adv-x="227" 
d="M176 -147h-78v319h-2l-72 -36l-14 59l97 48h69v-390z" />
    <glyph glyph-name="two.inferior" unicode="&#x2082;" horiz-adv-x="261" 
d="M5 -147v42l44 54c51 63 101 120 101 173c0 42 -23 59 -55 59c-26 0 -49 -13 -64 -25l-19 58c20 17 58 34 104 34c87 0 118 -55 118 -110c0 -73 -57 -136 -104 -188l-23 -27v-3h132v-67h-234z" />
    <glyph glyph-name="three.inferior" unicode="&#x2083;" horiz-adv-x="249" 
d="M33 168l-14 55c21 13 55 25 92 25c75 0 109 -46 109 -93c0 -42 -24 -73 -64 -90v-2c39 -8 76 -45 76 -95c0 -68 -55 -120 -145 -120c-35 0 -64 8 -83 20l13 59c15 -9 40 -18 68 -18c36 0 65 23 65 60c0 43 -33 66 -81 66h-10v53h7c31 0 76 15 76 54c0 29 -19 45 -48 45
c-26 0 -44 -8 -61 -19z" />
    <glyph glyph-name="four.inferior" unicode="&#x2084;" horiz-adv-x="287" 
d="M229 -147h-72v97h-147v49l142 246h77v-236h44v-59h-44v-97zM157 9v84c0 28 2 52 4 69h-2c-11 -22 -17 -38 -29 -60l-51 -91v-2h78z" />
    <glyph glyph-name="five.inferior" unicode="&#x2085;" horiz-adv-x="262" 
d="M231 243v-67h-117l-9 -72h16c23 0 57 -8 81 -28c23 -20 37 -51 37 -91c0 -76 -53 -137 -142 -137c-33 0 -65 8 -83 17l14 61c15 -7 39 -14 64 -14c39 0 69 22 69 66c0 50 -38 71 -92 71c-14 0 -25 -2 -35 -3l23 197h174z" />
    <glyph glyph-name="six.inferior" unicode="&#x2086;" horiz-adv-x="282" 
d="M231 248v-63c-10 0 -21 -1 -33 -3c-62 -10 -90 -56 -100 -105h2c16 19 38 32 67 32c56 0 98 -48 98 -123c0 -71 -42 -138 -119 -138c-81 0 -127 67 -127 163c0 82 26 140 64 179c29 30 70 49 109 55c18 2 31 3 39 3zM144 -94h1c28 0 41 33 41 80c0 36 -14 67 -44 67
c-17 0 -33 -11 -41 -30c-2 -5 -4 -14 -4 -30c0 -51 17 -87 47 -87z" />
    <glyph glyph-name="seven.inferior" unicode="&#x2087;" horiz-adv-x="245" 
d="M11 243h227v-51l-134 -339h-78l132 321v1h-147v68z" />
    <glyph glyph-name="eight.inferior" unicode="&#x2088;" horiz-adv-x="285" 
d="M146 248h1c65 0 107 -42 107 -97c0 -28 -13 -62 -53 -86v-2c37 -19 64 -53 64 -100c0 -71 -54 -115 -125 -115c-76 0 -121 46 -121 106c0 49 27 83 62 103v1c-35 22 -50 55 -50 86c0 64 51 104 115 104zM143 -99h1c27 0 44 24 44 58c0 37 -24 60 -51 72
c-24 -13 -42 -39 -42 -69c0 -35 18 -61 48 -61zM144 196h-1c-25 0 -39 -24 -39 -49c0 -29 19 -48 45 -60c19 9 33 33 33 57c0 27 -11 52 -38 52z" />
    <glyph glyph-name="nine.inferior" unicode="&#x2089;" horiz-adv-x="278" 
d="M47 -152v64c14 0 23 0 37 2c20 4 39 12 55 25c20 17 34 46 41 80h-1c-14 -15 -35 -26 -63 -26c-55 0 -99 46 -99 118c0 70 46 137 123 137c79 0 119 -69 119 -162c0 -85 -27 -147 -64 -185c-28 -29 -66 -46 -110 -52c-13 -2 -26 -1 -38 -1zM137 190h-1
c-23 0 -42 -27 -42 -74c0 -38 15 -69 44 -69c17 0 33 11 38 23c3 7 4 14 4 35c0 52 -15 85 -43 85z" />
    <glyph glyph-name="parenleft.inferior" unicode="&#x208d;" horiz-adv-x="161" 
d="M101 282h57c-35 -54 -64 -133 -64 -244c0 -108 29 -186 64 -243h-57c-33 46 -69 126 -69 243s36 198 69 244z" />
    <glyph glyph-name="parenright.inferior" unicode="&#x208e;" horiz-adv-x="161" 
d="M60 -205h-57c35 56 64 136 64 245c0 108 -29 186 -64 242h57c33 -45 70 -124 70 -243c0 -115 -37 -197 -70 -244z" />
    <glyph glyph-name="dong" unicode="&#x20ab;" horiz-adv-x="408" 
d="M70 109h275v-70h-275v70zM250 657h92v-62h41v-58h-41v-287c0 -28 3 -67 4 -93h-80l-5 41h-3c-14 -25 -44 -47 -85 -47c-80 0 -126 74 -126 177c0 122 63 180 130 180c32 0 56 -14 72 -37h1v66h-92v58h92v62zM250 281v89c0 6 0 13 -1 20c-4 26 -22 50 -48 50
c-44 0 -60 -52 -60 -112c0 -67 21 -109 57 -109c17 0 38 6 49 40c2 6 3 13 3 22z" />
    <glyph glyph-name="Euro" unicode="&#x20ac;" horiz-adv-x="408" 
d="M377 104l13 -87c-19 -10 -59 -25 -102 -25c-54 0 -109 19 -151 69c-33 39 -57 97 -66 184h-50v58h46v13c0 14 0 27 1 39h-47v58h52c10 74 34 127 62 163c41 55 94 82 163 82c41 0 71 -12 89 -22l-19 -88c-13 8 -42 18 -68 18c-31 0 -58 -10 -80 -40
c-18 -22 -33 -58 -39 -113h160v-58h-166c-1 -11 -1 -24 -1 -37v-15h167v-58h-164c5 -56 18 -92 35 -116c22 -34 55 -45 88 -45c28 0 61 12 77 20z" />
    <glyph glyph-name="afii61289" unicode="&#x2113;" horiz-adv-x="428" 
d="M197 485v-134c47 68 76 136 76 210c0 50 -17 65 -34 65c-22 0 -42 -24 -42 -141zM359 133l47 -50c-36 -60 -98 -94 -165 -94c-102 0 -146 68 -149 175v8c-13 -11 -27 -21 -43 -32l-29 54c28 21 51 39 72 60v240c0 158 63 216 141 216c68 0 118 -50 118 -145
c0 -110 -55 -212 -154 -318v-36c0 -102 30 -130 73 -130c33 0 61 19 89 52z" />
    <glyph glyph-name="afii61352" unicode="&#x2116;" horiz-adv-x="731" 
d="M577 647h1c81 0 123 -60 123 -164c0 -128 -65 -166 -125 -166c-79 0 -127 58 -127 165c0 111 58 165 128 165zM575 589h-1c-38 0 -47 -67 -47 -107c0 -53 12 -106 48 -106c41 0 48 58 48 106c0 47 -8 107 -48 107zM684 221h-219v57h219v-57zM151 0h-92v660h97l98 -282
c21 -61 50 -147 70 -211h1c-4 85 -9 186 -9 304v189h91v-660h-98l-99 282c-21 61 -45 140 -65 210h-2c4 -77 8 -170 8 -306v-186z" />
    <glyph glyph-name="trademark" unicode="&#x2122;" horiz-adv-x="525" 
d="M25 674h185v-55h-61v-218h-64v218h-60v55zM509 401h-59l-6 138c-1 26 -1 57 -2 93h-2c-7 -38 -13 -71 -17 -95l-28 -131h-60l-26 133c-3 24 -9 62 -14 93h-2c-1 -32 -1 -64 -3 -93l-6 -138h-57l14 273h94l22 -94c4 -25 7 -42 12 -79h1c4 29 9 55 13 78l24 95h88z" />
    <glyph glyph-name="Omega" unicode="&#x2126;" horiz-adv-x="505" 
d="M380 92v-4h95v-88h-196v68c41 50 76 161 75 290c0 112 -27 231 -101 231c-72 0 -103 -115 -103 -231c0 -119 38 -243 76 -290v-68h-197v88h95v4c-45 66 -85 167 -85 284c0 180 87 306 220 306c141 0 206 -140 206 -298c0 -122 -40 -229 -85 -292z" />
    <glyph glyph-name="estimated" unicode="&#x212e;" horiz-adv-x="817" 
d="M782 316h-605c-3 0 -5 -1 -5 -4v-183c0 -8 4 -15 9 -21c57 -61 139 -99 229 -99c96 0 182 43 240 111h55c-68 -79 -176 -131 -296 -131c-206 0 -374 150 -374 336s168 336 374 336s373 -150 373 -336v-9zM646 340v184c0 9 -4 16 -10 22c-58 58 -138 95 -226 95
c-90 0 -170 -38 -228 -98c-6 -6 -10 -14 -10 -23v-180c0 -3 2 -5 5 -5h464c3 0 5 2 5 5z" />
    <glyph glyph-name="partialdiff" unicode="&#x2202;" horiz-adv-x="375" 
d="M74 614l-30 73c31 21 77 44 139 44c113 0 223 -110 223 -342c0 -279 -111 -397 -221 -397c-99 0 -161 80 -161 209c0 155 84 250 181 250c46 0 76 -21 96 -49h1v14c0 153 -65 226 -136 226c-43 0 -74 -15 -92 -28zM194 80h1c52 0 96 108 100 230c-14 34 -38 56 -68 56
c-54 0 -97 -76 -97 -170c0 -84 30 -116 64 -116z" />
    <glyph glyph-name="Delta" unicode="&#x2206;" horiz-adv-x="434" 
d="M416 0h-397v56l145 597h115l137 -595v-58zM311 91l-57 263c-12 56 -27 136 -34 183h-3c-7 -48 -23 -122 -35 -178l-59 -268h188z" />
    <glyph glyph-name="product" unicode="&#x220f;" horiz-adv-x="475" 
d="M465 557h-62v-647h-98v647h-141v-647h-98v647h-62v93h461v-93z" />
    <glyph glyph-name="summation" unicode="&#x2211;" horiz-adv-x="398" 
d="M392 -90h-380v67l170 304l-164 301v68h356v-92h-227v-4l143 -267l-157 -281v-3h259v-93z" />
    <glyph glyph-name="minus" unicode="&#x2212;" horiz-adv-x="596" 
d="M40 302h516v-70h-516v70z" />
    <glyph glyph-name="uni2215" unicode="&#x2215;" horiz-adv-x="114" 
d="M-86 -8h-59l345 666h59z" />
    <glyph glyph-name="uni2219" unicode="&#x2219;" horiz-adv-x="216" 
d="M108 192h-1c-35 0 -64 28 -64 73c0 42 31 73 65 73c37 0 65 -28 65 -73s-26 -73 -65 -73z" />
    <glyph glyph-name="radical" unicode="&#x221a;" horiz-adv-x="536" 
d="M523 831l-193 -915h-74l-125 417l-74 -26l-17 54l145 53l85 -302c9 -35 17 -73 20 -90h1c2 18 7 56 14 92l144 717h74z" />
    <glyph glyph-name="infinity" unicode="&#x221e;" horiz-adv-x="736" 
d="M546 110h-1c-73 0 -130 59 -178 105c-49 -47 -101 -105 -185 -105c-88 0 -149 65 -149 154c0 82 64 154 157 154c74 0 130 -59 178 -106c50 48 102 106 186 106c87 0 149 -65 149 -154c0 -82 -65 -154 -157 -154zM545 180h1c47 0 83 38 83 84c0 49 -34 84 -81 84
c-54 0 -98 -47 -134 -84c37 -34 76 -84 131 -84zM187 180h1c54 0 98 46 133 83c-36 34 -75 85 -131 85c-48 0 -83 -38 -83 -84c0 -49 33 -84 80 -84z" />
    </font>
</defs>
</svg>
